{
	"patcher" : 	{
		"fileversion" : 1,
		"rect" : [ 585.0, 15.0, 128.0, 128.0 ],
		"bgcolor" : [ 1.0, 1.0, 1.0, 0.0 ],
		"bglocked" : 0,
		"defrect" : [ 585.0, 15.0, 128.0, 128.0 ],
		"openrect" : [ 0.0, 0.0, 0.0, 0.0 ],
		"openinpresentation" : 1,
		"default_fontsize" : 12.0,
		"default_fontface" : 0,
		"default_fontname" : "Arial",
		"gridonopen" : 0,
		"gridsize" : [ 15.0, 15.0 ],
		"gridsnaponopen" : 0,
		"toolbarvisible" : 1,
		"boxanimatetime" : 200,
		"imprint" : 0,
		"enablehscroll" : 1,
		"enablevscroll" : 1,
		"devicewidth" : 0.0,
		"boxes" : [ 			{
				"box" : 				{
					"maxclass" : "newobj",
					"text" : "s midiOut",
					"patching_rect" : [ 300.0, 500.0, 61.0, 20.0 ],
					"fontname" : "Arial",
					"numinlets" : 1,
					"id" : "obj-20",
					"fontsize" : 12.0,
					"numoutlets" : 0
				}

			}
, 			{
				"box" : 				{
					"maxclass" : "newobj",
					"text" : "t b i i",
					"outlettype" : [ "bang", "int", "int" ],
					"patching_rect" : [ 300.0, 354.0, 46.0, 20.0 ],
					"fontname" : "Arial",
					"numinlets" : 1,
					"id" : "obj-19",
					"fontsize" : 12.0,
					"numoutlets" : 3
				}

			}
, 			{
				"box" : 				{
					"maxclass" : "newobj",
					"text" : "i",
					"outlettype" : [ "int" ],
					"patching_rect" : [ 300.0, 455.0, 32.5, 20.0 ],
					"fontname" : "Arial",
					"numinlets" : 2,
					"id" : "obj-18",
					"fontsize" : 12.0,
					"numoutlets" : 1
				}

			}
, 			{
				"box" : 				{
					"maxclass" : "newobj",
					"text" : "del 100",
					"outlettype" : [ "bang" ],
					"patching_rect" : [ 300.0, 426.0, 50.0, 20.0 ],
					"fontname" : "Arial",
					"numinlets" : 2,
					"id" : "obj-15",
					"fontsize" : 12.0,
					"numoutlets" : 1
				}

			}
, 			{
				"box" : 				{
					"maxclass" : "newobj",
					"text" : "sprintf 144 %i 0",
					"outlettype" : [ "" ],
					"patching_rect" : [ 300.0, 477.0, 93.0, 20.0 ],
					"fontname" : "Arial",
					"numinlets" : 1,
					"id" : "obj-14",
					"fontsize" : 12.0,
					"numoutlets" : 1
				}

			}
, 			{
				"box" : 				{
					"maxclass" : "newobj",
					"text" : "grab 1 scale_notes",
					"outlettype" : [ "" ],
					"patching_rect" : [ 495.0, 348.0, 112.0, 20.0 ],
					"fontname" : "Arial",
					"numinlets" : 1,
					"id" : "obj-10",
					"fontsize" : 12.0,
					"numoutlets" : 1
				}

			}
, 			{
				"box" : 				{
					"maxclass" : "message",
					"text" : "#1",
					"outlettype" : [ "" ],
					"patching_rect" : [ 495.0, 325.0, 32.5, 18.0 ],
					"fontname" : "Arial",
					"numinlets" : 2,
					"id" : "obj-11",
					"fontsize" : 12.0,
					"numoutlets" : 1
				}

			}
, 			{
				"box" : 				{
					"maxclass" : "newobj",
					"text" : "r updateNotes",
					"outlettype" : [ "" ],
					"patching_rect" : [ 495.0, 300.0, 86.0, 20.0 ],
					"fontname" : "Arial",
					"numinlets" : 0,
					"id" : "obj-8",
					"fontsize" : 12.0,
					"numoutlets" : 1
				}

			}
, 			{
				"box" : 				{
					"maxclass" : "number",
					"outlettype" : [ "int", "bang" ],
					"patching_rect" : [ 495.0, 380.0, 88.0, 20.0 ],
					"presentation" : 1,
					"cantchange" : 1,
					"fontname" : "Arial",
					"format" : 4,
					"bgcolor" : [ 1.0, 1.0, 1.0, 0.0 ],
					"numinlets" : 1,
					"bordercolor" : [ 0.501961, 0.501961, 0.501961, 0.0 ],
					"id" : "obj-51",
					"presentation_rect" : [ 36.0, 41.0, 52.0, 20.0 ],
					"fontsize" : 12.0,
					"numoutlets" : 2,
					"triangle" : 0
				}

			}
, 			{
				"box" : 				{
					"maxclass" : "newobj",
					"text" : "loadbang",
					"outlettype" : [ "bang" ],
					"patching_rect" : [ 760.0, 214.0, 60.0, 20.0 ],
					"fontname" : "Arial",
					"numinlets" : 1,
					"id" : "obj-123",
					"fontsize" : 12.0,
					"numoutlets" : 1,
					"color" : [ 0.0, 0.0, 0.0, 1.0 ]
				}

			}
, 			{
				"box" : 				{
					"maxclass" : "message",
					"text" : "#1",
					"outlettype" : [ "" ],
					"patching_rect" : [ 760.0, 238.0, 32.5, 18.0 ],
					"fontname" : "Arial",
					"numinlets" : 2,
					"id" : "obj-124",
					"fontsize" : 12.0,
					"numoutlets" : 1
				}

			}
, 			{
				"box" : 				{
					"maxclass" : "newobj",
					"text" : "sprintf set %i",
					"outlettype" : [ "" ],
					"patching_rect" : [ 760.0, 263.0, 79.0, 20.0 ],
					"fontname" : "Arial",
					"numinlets" : 1,
					"id" : "obj-122",
					"fontsize" : 12.0,
					"numoutlets" : 1
				}

			}
, 			{
				"box" : 				{
					"maxclass" : "comment",
					"text" : "0",
					"patching_rect" : [ 760.0, 297.0, 160.0, 23.0 ],
					"presentation" : 1,
					"fontname" : "Arial",
					"frgb" : [ 1.0, 1.0, 1.0, 1.0 ],
					"numinlets" : 1,
					"id" : "obj-121",
					"textcolor" : [ 1.0, 1.0, 1.0, 1.0 ],
					"presentation_rect" : [ 85.0, 81.0, 22.0, 23.0 ],
					"fontsize" : 14.0,
					"numoutlets" : 0
				}

			}
, 			{
				"box" : 				{
					"maxclass" : "newobj",
					"text" : "abs 1.",
					"outlettype" : [ "float" ],
					"patching_rect" : [ 340.0, 143.0, 43.0, 20.0 ],
					"fontname" : "Arial",
					"numinlets" : 1,
					"id" : "obj-29",
					"fontsize" : 12.0,
					"numoutlets" : 1
				}

			}
, 			{
				"box" : 				{
					"maxclass" : "newobj",
					"text" : "% 360.",
					"outlettype" : [ "int" ],
					"patching_rect" : [ 424.0, 34.0, 48.0, 20.0 ],
					"fontname" : "Arial",
					"numinlets" : 2,
					"id" : "obj-17",
					"fontsize" : 12.0,
					"numoutlets" : 1
				}

			}
, 			{
				"box" : 				{
					"maxclass" : "newobj",
					"text" : "/ 1.",
					"outlettype" : [ "float" ],
					"patching_rect" : [ 424.0, 105.0, 32.5, 20.0 ],
					"fontname" : "Arial",
					"numinlets" : 2,
					"id" : "obj-13",
					"fontsize" : 12.0,
					"numoutlets" : 1
				}

			}
, 			{
				"box" : 				{
					"maxclass" : "newobj",
					"text" : "grab 1 gap+piece_angle",
					"outlettype" : [ "" ],
					"patching_rect" : [ 438.0, 82.0, 140.0, 20.0 ],
					"fontname" : "Arial",
					"numinlets" : 1,
					"id" : "obj-7",
					"fontsize" : 12.0,
					"numoutlets" : 1
				}

			}
, 			{
				"box" : 				{
					"maxclass" : "newobj",
					"text" : "t f b",
					"outlettype" : [ "float", "bang" ],
					"patching_rect" : [ 424.0, 58.0, 32.5, 20.0 ],
					"fontname" : "Arial",
					"numinlets" : 1,
					"id" : "obj-12",
					"fontsize" : 12.0,
					"numoutlets" : 2
				}

			}
, 			{
				"box" : 				{
					"maxclass" : "newobj",
					"text" : "r setRotationAngle",
					"outlettype" : [ "" ],
					"patching_rect" : [ 424.0, 8.0, 109.0, 20.0 ],
					"fontname" : "Arial",
					"numinlets" : 0,
					"id" : "obj-2",
					"fontsize" : 12.0,
					"numoutlets" : 1
				}

			}
, 			{
				"box" : 				{
					"maxclass" : "newobj",
					"text" : "sel 1",
					"outlettype" : [ "bang", "" ],
					"patching_rect" : [ 340.0, 282.0, 36.0, 20.0 ],
					"fontname" : "Arial",
					"numinlets" : 2,
					"id" : "obj-40",
					"fontsize" : 12.0,
					"numoutlets" : 2
				}

			}
, 			{
				"box" : 				{
					"maxclass" : "newobj",
					"text" : "grab 1 cyclinder_steps",
					"outlettype" : [ "" ],
					"patching_rect" : [ 340.0, 234.0, 131.0, 20.0 ],
					"fontname" : "Arial",
					"numinlets" : 1,
					"id" : "obj-33",
					"fontsize" : 12.0,
					"numoutlets" : 1
				}

			}
, 			{
				"box" : 				{
					"maxclass" : "message",
					"text" : "#1",
					"outlettype" : [ "" ],
					"patching_rect" : [ 340.0, 213.0, 32.5, 18.0 ],
					"fontname" : "Arial",
					"numinlets" : 2,
					"id" : "obj-32",
					"fontsize" : 12.0,
					"numoutlets" : 1
				}

			}
, 			{
				"box" : 				{
					"maxclass" : "newobj",
					"text" : "zl mth",
					"outlettype" : [ "", "" ],
					"patching_rect" : [ 340.0, 257.0, 43.0, 20.0 ],
					"fontname" : "Arial",
					"numinlets" : 2,
					"id" : "obj-31",
					"fontsize" : 12.0,
					"numoutlets" : 2
				}

			}
, 			{
				"box" : 				{
					"maxclass" : "newobj",
					"text" : "t b i",
					"outlettype" : [ "bang", "int" ],
					"patching_rect" : [ 340.0, 188.0, 32.5, 20.0 ],
					"fontname" : "Arial",
					"numinlets" : 1,
					"id" : "obj-30",
					"fontsize" : 12.0,
					"numoutlets" : 2
				}

			}
, 			{
				"box" : 				{
					"maxclass" : "newobj",
					"text" : "change 0",
					"outlettype" : [ "", "int", "int" ],
					"patching_rect" : [ 340.0, 166.0, 60.0, 20.0 ],
					"fontname" : "Arial",
					"numinlets" : 1,
					"id" : "obj-27",
					"fontsize" : 12.0,
					"numoutlets" : 3
				}

			}
, 			{
				"box" : 				{
					"maxclass" : "newobj",
					"text" : "/ 1.",
					"outlettype" : [ "float" ],
					"patching_rect" : [ 265.0, 105.0, 32.5, 20.0 ],
					"fontname" : "Arial",
					"numinlets" : 2,
					"id" : "obj-23",
					"fontsize" : 12.0,
					"numoutlets" : 1
				}

			}
, 			{
				"box" : 				{
					"maxclass" : "newobj",
					"text" : "p drawCylinder",
					"patching_rect" : [ 523.0, 118.0, 91.0, 20.0 ],
					"fontname" : "Arial",
					"numinlets" : 0,
					"id" : "obj-9",
					"fontsize" : 12.0,
					"numoutlets" : 0,
					"color" : [ 0.843137, 0.741176, 0.431373, 1.0 ],
					"patcher" : 					{
						"fileversion" : 1,
						"rect" : [ 930.0, 102.0, 982.0, 846.0 ],
						"bglocked" : 0,
						"defrect" : [ 930.0, 102.0, 982.0, 846.0 ],
						"openrect" : [ 0.0, 0.0, 0.0, 0.0 ],
						"openinpresentation" : 0,
						"default_fontsize" : 12.0,
						"default_fontface" : 0,
						"default_fontname" : "Arial",
						"gridonopen" : 0,
						"gridsize" : [ 15.0, 15.0 ],
						"gridsnaponopen" : 0,
						"toolbarvisible" : 1,
						"boxanimatetime" : 200,
						"imprint" : 0,
						"enablehscroll" : 1,
						"enablevscroll" : 1,
						"devicewidth" : 0.0,
						"visible" : 1,
						"boxes" : [ 							{
								"box" : 								{
									"maxclass" : "newobj",
									"text" : "r guiMetro",
									"outlettype" : [ "" ],
									"patching_rect" : [ 701.0, 12.0, 65.0, 20.0 ],
									"fontname" : "Arial",
									"numinlets" : 0,
									"id" : "obj-1",
									"fontsize" : 12.0,
									"numoutlets" : 1
								}

							}
, 							{
								"box" : 								{
									"maxclass" : "newobj",
									"text" : "gate",
									"outlettype" : [ "" ],
									"patching_rect" : [ 171.0, 433.0, 34.0, 20.0 ],
									"fontname" : "Arial",
									"numinlets" : 2,
									"id" : "obj-52",
									"fontsize" : 12.0,
									"numoutlets" : 1
								}

							}
, 							{
								"box" : 								{
									"maxclass" : "newobj",
									"text" : "grab 1 cyclinder_steps",
									"outlettype" : [ "" ],
									"patching_rect" : [ 200.0, 379.0, 131.0, 20.0 ],
									"fontname" : "Arial",
									"numinlets" : 1,
									"id" : "obj-48",
									"fontsize" : 12.0,
									"numoutlets" : 1
								}

							}
, 							{
								"box" : 								{
									"maxclass" : "message",
									"text" : "#1",
									"outlettype" : [ "" ],
									"patching_rect" : [ 200.0, 358.0, 32.5, 18.0 ],
									"fontname" : "Arial",
									"numinlets" : 2,
									"id" : "obj-49",
									"fontsize" : 12.0,
									"numoutlets" : 1
								}

							}
, 							{
								"box" : 								{
									"maxclass" : "newobj",
									"text" : "zl mth",
									"outlettype" : [ "", "" ],
									"patching_rect" : [ 200.0, 402.0, 43.0, 20.0 ],
									"fontname" : "Arial",
									"numinlets" : 2,
									"id" : "obj-50",
									"fontsize" : 12.0,
									"numoutlets" : 2
								}

							}
, 							{
								"box" : 								{
									"maxclass" : "newobj",
									"text" : "t i b i",
									"outlettype" : [ "int", "bang", "int" ],
									"patching_rect" : [ 186.0, 330.0, 46.0, 20.0 ],
									"fontname" : "Arial",
									"numinlets" : 1,
									"id" : "obj-51",
									"fontsize" : 12.0,
									"numoutlets" : 3
								}

							}
, 							{
								"box" : 								{
									"maxclass" : "newobj",
									"text" : "t l b",
									"outlettype" : [ "", "bang" ],
									"patching_rect" : [ 171.0, 695.0, 32.5, 20.0 ],
									"fontname" : "Arial",
									"numinlets" : 1,
									"id" : "obj-37",
									"fontsize" : 12.0,
									"numoutlets" : 2
								}

							}
, 							{
								"box" : 								{
									"maxclass" : "message",
									"text" : "#1",
									"outlettype" : [ "" ],
									"patching_rect" : [ 185.0, 720.0, 32.5, 18.0 ],
									"fontname" : "Arial",
									"numinlets" : 2,
									"id" : "obj-38",
									"fontsize" : 12.0,
									"numoutlets" : 1
								}

							}
, 							{
								"box" : 								{
									"maxclass" : "newobj",
									"text" : "sprintf send lcd%i",
									"outlettype" : [ "" ],
									"patching_rect" : [ 185.0, 739.0, 105.0, 20.0 ],
									"fontname" : "Arial",
									"numinlets" : 1,
									"id" : "obj-39",
									"fontsize" : 12.0,
									"numoutlets" : 1
								}

							}
, 							{
								"box" : 								{
									"maxclass" : "newobj",
									"text" : "forward",
									"patching_rect" : [ 171.0, 764.0, 51.0, 20.0 ],
									"fontname" : "Arial",
									"numinlets" : 1,
									"id" : "obj-47",
									"fontsize" : 12.0,
									"numoutlets" : 0
								}

							}
, 							{
								"box" : 								{
									"maxclass" : "newobj",
									"text" : "t l b",
									"outlettype" : [ "", "bang" ],
									"patching_rect" : [ 299.0, 126.0, 32.5, 20.0 ],
									"fontname" : "Arial",
									"numinlets" : 1,
									"id" : "obj-12",
									"fontsize" : 12.0,
									"numoutlets" : 2
								}

							}
, 							{
								"box" : 								{
									"maxclass" : "message",
									"text" : "#1",
									"outlettype" : [ "" ],
									"patching_rect" : [ 313.0, 151.0, 32.5, 18.0 ],
									"fontname" : "Arial",
									"numinlets" : 2,
									"id" : "obj-17",
									"fontsize" : 12.0,
									"numoutlets" : 1
								}

							}
, 							{
								"box" : 								{
									"maxclass" : "newobj",
									"text" : "sprintf send lcd%i",
									"outlettype" : [ "" ],
									"patching_rect" : [ 313.0, 170.0, 105.0, 20.0 ],
									"fontname" : "Arial",
									"numinlets" : 1,
									"id" : "obj-26",
									"fontsize" : 12.0,
									"numoutlets" : 1
								}

							}
, 							{
								"box" : 								{
									"maxclass" : "newobj",
									"text" : "forward",
									"patching_rect" : [ 299.0, 195.0, 51.0, 20.0 ],
									"fontname" : "Arial",
									"numinlets" : 1,
									"id" : "obj-32",
									"fontsize" : 12.0,
									"numoutlets" : 0
								}

							}
, 							{
								"box" : 								{
									"maxclass" : "newobj",
									"text" : "t l b",
									"outlettype" : [ "", "bang" ],
									"patching_rect" : [ 440.0, 124.0, 32.5, 20.0 ],
									"fontname" : "Arial",
									"numinlets" : 1,
									"id" : "obj-11",
									"fontsize" : 12.0,
									"numoutlets" : 2
								}

							}
, 							{
								"box" : 								{
									"maxclass" : "message",
									"text" : "#1",
									"outlettype" : [ "" ],
									"patching_rect" : [ 454.0, 149.0, 32.5, 18.0 ],
									"fontname" : "Arial",
									"numinlets" : 2,
									"id" : "obj-9",
									"fontsize" : 12.0,
									"numoutlets" : 1
								}

							}
, 							{
								"box" : 								{
									"maxclass" : "newobj",
									"text" : "sprintf send lcd%i",
									"outlettype" : [ "" ],
									"patching_rect" : [ 454.0, 168.0, 105.0, 20.0 ],
									"fontname" : "Arial",
									"numinlets" : 1,
									"id" : "obj-7",
									"fontsize" : 12.0,
									"numoutlets" : 1
								}

							}
, 							{
								"box" : 								{
									"maxclass" : "newobj",
									"text" : "forward",
									"patching_rect" : [ 440.0, 193.0, 51.0, 20.0 ],
									"fontname" : "Arial",
									"numinlets" : 1,
									"id" : "obj-2",
									"fontsize" : 12.0,
									"numoutlets" : 0
								}

							}
, 							{
								"box" : 								{
									"maxclass" : "newobj",
									"text" : "t b b",
									"outlettype" : [ "bang", "bang" ],
									"patching_rect" : [ 635.0, 75.0, 34.0, 20.0 ],
									"fontname" : "Arial",
									"numinlets" : 1,
									"id" : "obj-35",
									"fontsize" : 12.0,
									"numoutlets" : 2
								}

							}
, 							{
								"box" : 								{
									"maxclass" : "newobj",
									"text" : "t b b",
									"outlettype" : [ "bang", "bang" ],
									"patching_rect" : [ 18.0, 46.0, 636.0, 20.0 ],
									"fontname" : "Arial",
									"numinlets" : 1,
									"id" : "obj-34",
									"fontsize" : 12.0,
									"numoutlets" : 2
								}

							}
, 							{
								"box" : 								{
									"maxclass" : "newobj",
									"text" : "p drawMainCyclinder",
									"patching_rect" : [ 33.0, 133.0, 123.0, 20.0 ],
									"fontname" : "Arial",
									"numinlets" : 1,
									"id" : "obj-33",
									"fontsize" : 12.0,
									"numoutlets" : 0,
									"color" : [ 0.843137, 0.741176, 0.431373, 1.0 ],
									"patcher" : 									{
										"fileversion" : 1,
										"rect" : [ 33.0, 75.0, 640.0, 480.0 ],
										"bglocked" : 0,
										"defrect" : [ 33.0, 75.0, 640.0, 480.0 ],
										"openrect" : [ 0.0, 0.0, 0.0, 0.0 ],
										"openinpresentation" : 0,
										"default_fontsize" : 12.0,
										"default_fontface" : 0,
										"default_fontname" : "Arial",
										"gridonopen" : 0,
										"gridsize" : [ 15.0, 15.0 ],
										"gridsnaponopen" : 0,
										"toolbarvisible" : 1,
										"boxanimatetime" : 200,
										"imprint" : 0,
										"enablehscroll" : 1,
										"enablevscroll" : 1,
										"devicewidth" : 0.0,
										"boxes" : [ 											{
												"box" : 												{
													"maxclass" : "newobj",
													"text" : "t l b",
													"outlettype" : [ "", "bang" ],
													"patching_rect" : [ 50.0, 265.0, 32.5, 20.0 ],
													"fontname" : "Arial",
													"numinlets" : 1,
													"id" : "obj-2",
													"fontsize" : 12.0,
													"numoutlets" : 2
												}

											}
, 											{
												"box" : 												{
													"maxclass" : "message",
													"text" : "#1",
													"outlettype" : [ "" ],
													"patching_rect" : [ 64.0, 290.0, 32.5, 18.0 ],
													"fontname" : "Arial",
													"numinlets" : 2,
													"id" : "obj-3",
													"fontsize" : 12.0,
													"numoutlets" : 1
												}

											}
, 											{
												"box" : 												{
													"maxclass" : "newobj",
													"text" : "sprintf send lcd%i",
													"outlettype" : [ "" ],
													"patching_rect" : [ 64.0, 309.0, 105.0, 20.0 ],
													"fontname" : "Arial",
													"numinlets" : 1,
													"id" : "obj-4",
													"fontsize" : 12.0,
													"numoutlets" : 1
												}

											}
, 											{
												"box" : 												{
													"maxclass" : "newobj",
													"text" : "forward",
													"patching_rect" : [ 50.0, 334.0, 51.0, 20.0 ],
													"fontname" : "Arial",
													"numinlets" : 1,
													"id" : "obj-5",
													"fontsize" : 12.0,
													"numoutlets" : 0
												}

											}
, 											{
												"box" : 												{
													"maxclass" : "newobj",
													"text" : "t l b",
													"outlettype" : [ "", "bang" ],
													"patching_rect" : [ 65.0, 143.0, 32.5, 20.0 ],
													"fontname" : "Arial",
													"numinlets" : 1,
													"id" : "obj-12",
													"fontsize" : 12.0,
													"numoutlets" : 2
												}

											}
, 											{
												"box" : 												{
													"maxclass" : "message",
													"text" : "#1",
													"outlettype" : [ "" ],
													"patching_rect" : [ 79.0, 168.0, 32.5, 18.0 ],
													"fontname" : "Arial",
													"numinlets" : 2,
													"id" : "obj-17",
													"fontsize" : 12.0,
													"numoutlets" : 1
												}

											}
, 											{
												"box" : 												{
													"maxclass" : "newobj",
													"text" : "sprintf send lcd%i",
													"outlettype" : [ "" ],
													"patching_rect" : [ 79.0, 187.0, 105.0, 20.0 ],
													"fontname" : "Arial",
													"numinlets" : 1,
													"id" : "obj-26",
													"fontsize" : 12.0,
													"numoutlets" : 1
												}

											}
, 											{
												"box" : 												{
													"maxclass" : "newobj",
													"text" : "forward",
													"patching_rect" : [ 65.0, 212.0, 51.0, 20.0 ],
													"fontname" : "Arial",
													"numinlets" : 1,
													"id" : "obj-1",
													"fontsize" : 12.0,
													"numoutlets" : 0
												}

											}
, 											{
												"box" : 												{
													"maxclass" : "newobj",
													"text" : "t b b",
													"outlettype" : [ "bang", "bang" ],
													"patching_rect" : [ 50.0, 100.0, 34.0, 20.0 ],
													"fontname" : "Arial",
													"numinlets" : 1,
													"id" : "obj-73",
													"fontsize" : 12.0,
													"numoutlets" : 2
												}

											}
, 											{
												"box" : 												{
													"maxclass" : "message",
													"text" : "frgb 50 50 50",
													"outlettype" : [ "" ],
													"patching_rect" : [ 65.0, 123.0, 79.0, 18.0 ],
													"fontname" : "Arial",
													"numinlets" : 2,
													"id" : "obj-72",
													"fontsize" : 11.595187,
													"numoutlets" : 1
												}

											}
, 											{
												"box" : 												{
													"maxclass" : "message",
													"text" : "paintarc 10 10 90 90 0 360",
													"outlettype" : [ "" ],
													"patching_rect" : [ 50.0, 243.0, 148.0, 18.0 ],
													"fontname" : "Arial",
													"numinlets" : 2,
													"id" : "obj-71",
													"fontsize" : 11.595187,
													"numoutlets" : 1
												}

											}
, 											{
												"box" : 												{
													"maxclass" : "inlet",
													"outlettype" : [ "bang" ],
													"patching_rect" : [ 50.0, 40.0, 25.0, 25.0 ],
													"numinlets" : 0,
													"id" : "obj-32",
													"numoutlets" : 1,
													"comment" : ""
												}

											}
 ],
										"lines" : [ 											{
												"patchline" : 												{
													"source" : [ "obj-32", 0 ],
													"destination" : [ "obj-73", 0 ],
													"hidden" : 0,
													"midpoints" : [  ]
												}

											}
, 											{
												"patchline" : 												{
													"source" : [ "obj-73", 1 ],
													"destination" : [ "obj-72", 0 ],
													"hidden" : 0,
													"midpoints" : [  ]
												}

											}
, 											{
												"patchline" : 												{
													"source" : [ "obj-73", 0 ],
													"destination" : [ "obj-71", 0 ],
													"hidden" : 0,
													"midpoints" : [  ]
												}

											}
, 											{
												"patchline" : 												{
													"source" : [ "obj-17", 0 ],
													"destination" : [ "obj-26", 0 ],
													"hidden" : 0,
													"midpoints" : [  ]
												}

											}
, 											{
												"patchline" : 												{
													"source" : [ "obj-26", 0 ],
													"destination" : [ "obj-1", 0 ],
													"hidden" : 0,
													"midpoints" : [  ]
												}

											}
, 											{
												"patchline" : 												{
													"source" : [ "obj-12", 1 ],
													"destination" : [ "obj-17", 0 ],
													"hidden" : 0,
													"midpoints" : [  ]
												}

											}
, 											{
												"patchline" : 												{
													"source" : [ "obj-12", 0 ],
													"destination" : [ "obj-1", 0 ],
													"hidden" : 0,
													"midpoints" : [  ]
												}

											}
, 											{
												"patchline" : 												{
													"source" : [ "obj-72", 0 ],
													"destination" : [ "obj-12", 0 ],
													"hidden" : 0,
													"midpoints" : [  ]
												}

											}
, 											{
												"patchline" : 												{
													"source" : [ "obj-3", 0 ],
													"destination" : [ "obj-4", 0 ],
													"hidden" : 0,
													"midpoints" : [  ]
												}

											}
, 											{
												"patchline" : 												{
													"source" : [ "obj-4", 0 ],
													"destination" : [ "obj-5", 0 ],
													"hidden" : 0,
													"midpoints" : [  ]
												}

											}
, 											{
												"patchline" : 												{
													"source" : [ "obj-2", 1 ],
													"destination" : [ "obj-3", 0 ],
													"hidden" : 0,
													"midpoints" : [  ]
												}

											}
, 											{
												"patchline" : 												{
													"source" : [ "obj-2", 0 ],
													"destination" : [ "obj-5", 0 ],
													"hidden" : 0,
													"midpoints" : [  ]
												}

											}
, 											{
												"patchline" : 												{
													"source" : [ "obj-71", 0 ],
													"destination" : [ "obj-2", 0 ],
													"hidden" : 0,
													"midpoints" : [  ]
												}

											}
 ]
									}
,
									"saved_object_attributes" : 									{
										"globalpatchername" : "",
										"default_fontname" : "Arial",
										"default_fontsize" : 12.0,
										"fontname" : "Arial",
										"fontface" : 0,
										"default_fontface" : 0,
										"fontsize" : 12.0
									}

								}

							}
, 							{
								"box" : 								{
									"maxclass" : "newobj",
									"text" : "p drawRedLine",
									"patching_rect" : [ 18.0, 160.0, 91.0, 20.0 ],
									"fontname" : "Arial",
									"numinlets" : 1,
									"id" : "obj-30",
									"fontsize" : 12.0,
									"numoutlets" : 0,
									"color" : [ 0.843137, 0.741176, 0.431373, 1.0 ],
									"patcher" : 									{
										"fileversion" : 1,
										"rect" : [ 33.0, 75.0, 640.0, 480.0 ],
										"bglocked" : 0,
										"defrect" : [ 33.0, 75.0, 640.0, 480.0 ],
										"openrect" : [ 0.0, 0.0, 0.0, 0.0 ],
										"openinpresentation" : 0,
										"default_fontsize" : 12.0,
										"default_fontface" : 0,
										"default_fontname" : "Arial",
										"gridonopen" : 0,
										"gridsize" : [ 15.0, 15.0 ],
										"gridsnaponopen" : 0,
										"toolbarvisible" : 1,
										"boxanimatetime" : 200,
										"imprint" : 0,
										"enablehscroll" : 1,
										"enablevscroll" : 1,
										"devicewidth" : 0.0,
										"boxes" : [ 											{
												"box" : 												{
													"maxclass" : "newobj",
													"text" : "t l b",
													"outlettype" : [ "", "bang" ],
													"patching_rect" : [ 50.0, 262.0, 32.5, 20.0 ],
													"fontname" : "Arial",
													"numinlets" : 1,
													"id" : "obj-5",
													"fontsize" : 12.0,
													"numoutlets" : 2
												}

											}
, 											{
												"box" : 												{
													"maxclass" : "message",
													"text" : "#1",
													"outlettype" : [ "" ],
													"patching_rect" : [ 64.0, 287.0, 32.5, 18.0 ],
													"fontname" : "Arial",
													"numinlets" : 2,
													"id" : "obj-6",
													"fontsize" : 12.0,
													"numoutlets" : 1
												}

											}
, 											{
												"box" : 												{
													"maxclass" : "newobj",
													"text" : "sprintf send lcd%i",
													"outlettype" : [ "" ],
													"patching_rect" : [ 64.0, 306.0, 105.0, 20.0 ],
													"fontname" : "Arial",
													"numinlets" : 1,
													"id" : "obj-7",
													"fontsize" : 12.0,
													"numoutlets" : 1
												}

											}
, 											{
												"box" : 												{
													"maxclass" : "newobj",
													"text" : "forward",
													"patching_rect" : [ 50.0, 331.0, 51.0, 20.0 ],
													"fontname" : "Arial",
													"numinlets" : 1,
													"id" : "obj-8",
													"fontsize" : 12.0,
													"numoutlets" : 0
												}

											}
, 											{
												"box" : 												{
													"maxclass" : "newobj",
													"text" : "t l b",
													"outlettype" : [ "", "bang" ],
													"patching_rect" : [ 65.0, 144.0, 32.5, 20.0 ],
													"fontname" : "Arial",
													"numinlets" : 1,
													"id" : "obj-1",
													"fontsize" : 12.0,
													"numoutlets" : 2
												}

											}
, 											{
												"box" : 												{
													"maxclass" : "message",
													"text" : "#1",
													"outlettype" : [ "" ],
													"patching_rect" : [ 79.0, 169.0, 32.5, 18.0 ],
													"fontname" : "Arial",
													"numinlets" : 2,
													"id" : "obj-3",
													"fontsize" : 12.0,
													"numoutlets" : 1
												}

											}
, 											{
												"box" : 												{
													"maxclass" : "newobj",
													"text" : "sprintf send lcd%i",
													"outlettype" : [ "" ],
													"patching_rect" : [ 79.0, 188.0, 105.0, 20.0 ],
													"fontname" : "Arial",
													"numinlets" : 1,
													"id" : "obj-4",
													"fontsize" : 12.0,
													"numoutlets" : 1
												}

											}
, 											{
												"box" : 												{
													"maxclass" : "newobj",
													"text" : "forward",
													"patching_rect" : [ 65.0, 213.0, 51.0, 20.0 ],
													"fontname" : "Arial",
													"numinlets" : 1,
													"id" : "obj-32",
													"fontsize" : 12.0,
													"numoutlets" : 0
												}

											}
, 											{
												"box" : 												{
													"maxclass" : "newobj",
													"text" : "t b b",
													"outlettype" : [ "bang", "bang" ],
													"patching_rect" : [ 50.0, 100.0, 34.0, 20.0 ],
													"fontname" : "Arial",
													"numinlets" : 1,
													"id" : "obj-17",
													"fontsize" : 12.0,
													"numoutlets" : 2
												}

											}
, 											{
												"box" : 												{
													"maxclass" : "message",
													"text" : "frgb 255 0 0",
													"outlettype" : [ "" ],
													"patching_rect" : [ 65.0, 123.0, 72.0, 18.0 ],
													"fontname" : "Arial",
													"numinlets" : 2,
													"id" : "obj-11",
													"fontsize" : 11.595187,
													"numoutlets" : 1
												}

											}
, 											{
												"box" : 												{
													"maxclass" : "message",
													"text" : "linesegment 50 0 50 15",
													"outlettype" : [ "" ],
													"patching_rect" : [ 50.0, 241.0, 131.0, 18.0 ],
													"fontname" : "Arial",
													"numinlets" : 2,
													"id" : "obj-2",
													"fontsize" : 11.595187,
													"numoutlets" : 1
												}

											}
, 											{
												"box" : 												{
													"maxclass" : "inlet",
													"outlettype" : [ "bang" ],
													"patching_rect" : [ 50.0, 40.0, 25.0, 25.0 ],
													"numinlets" : 0,
													"id" : "obj-26",
													"numoutlets" : 1,
													"comment" : ""
												}

											}
 ],
										"lines" : [ 											{
												"patchline" : 												{
													"source" : [ "obj-26", 0 ],
													"destination" : [ "obj-17", 0 ],
													"hidden" : 0,
													"midpoints" : [  ]
												}

											}
, 											{
												"patchline" : 												{
													"source" : [ "obj-17", 0 ],
													"destination" : [ "obj-2", 0 ],
													"hidden" : 0,
													"midpoints" : [  ]
												}

											}
, 											{
												"patchline" : 												{
													"source" : [ "obj-17", 1 ],
													"destination" : [ "obj-11", 0 ],
													"hidden" : 0,
													"midpoints" : [  ]
												}

											}
, 											{
												"patchline" : 												{
													"source" : [ "obj-3", 0 ],
													"destination" : [ "obj-4", 0 ],
													"hidden" : 0,
													"midpoints" : [  ]
												}

											}
, 											{
												"patchline" : 												{
													"source" : [ "obj-4", 0 ],
													"destination" : [ "obj-32", 0 ],
													"hidden" : 0,
													"midpoints" : [  ]
												}

											}
, 											{
												"patchline" : 												{
													"source" : [ "obj-1", 1 ],
													"destination" : [ "obj-3", 0 ],
													"hidden" : 0,
													"midpoints" : [  ]
												}

											}
, 											{
												"patchline" : 												{
													"source" : [ "obj-1", 0 ],
													"destination" : [ "obj-32", 0 ],
													"hidden" : 0,
													"midpoints" : [  ]
												}

											}
, 											{
												"patchline" : 												{
													"source" : [ "obj-11", 0 ],
													"destination" : [ "obj-1", 0 ],
													"hidden" : 0,
													"midpoints" : [  ]
												}

											}
, 											{
												"patchline" : 												{
													"source" : [ "obj-5", 0 ],
													"destination" : [ "obj-8", 0 ],
													"hidden" : 0,
													"midpoints" : [  ]
												}

											}
, 											{
												"patchline" : 												{
													"source" : [ "obj-5", 1 ],
													"destination" : [ "obj-6", 0 ],
													"hidden" : 0,
													"midpoints" : [  ]
												}

											}
, 											{
												"patchline" : 												{
													"source" : [ "obj-7", 0 ],
													"destination" : [ "obj-8", 0 ],
													"hidden" : 0,
													"midpoints" : [  ]
												}

											}
, 											{
												"patchline" : 												{
													"source" : [ "obj-6", 0 ],
													"destination" : [ "obj-7", 0 ],
													"hidden" : 0,
													"midpoints" : [  ]
												}

											}
, 											{
												"patchline" : 												{
													"source" : [ "obj-2", 0 ],
													"destination" : [ "obj-5", 0 ],
													"hidden" : 0,
													"midpoints" : [  ]
												}

											}
 ]
									}
,
									"saved_object_attributes" : 									{
										"globalpatchername" : "",
										"default_fontname" : "Arial",
										"default_fontsize" : 12.0,
										"fontname" : "Arial",
										"fontface" : 0,
										"default_fontface" : 0,
										"fontsize" : 12.0
									}

								}

							}
, 							{
								"box" : 								{
									"maxclass" : "newobj",
									"text" : "t b b",
									"outlettype" : [ "bang", "bang" ],
									"patching_rect" : [ 18.0, 108.0, 34.0, 20.0 ],
									"fontname" : "Arial",
									"numinlets" : 1,
									"id" : "obj-20",
									"fontsize" : 12.0,
									"numoutlets" : 2
								}

							}
, 							{
								"box" : 								{
									"maxclass" : "comment",
									"text" : "Do calculations",
									"patching_rect" : [ 679.0, 75.0, 92.0, 20.0 ],
									"fontname" : "Arial",
									"numinlets" : 1,
									"id" : "obj-76",
									"fontsize" : 12.0,
									"numoutlets" : 0
								}

							}
, 							{
								"box" : 								{
									"maxclass" : "newobj",
									"text" : "grab 1 gap_angle",
									"outlettype" : [ "" ],
									"patching_rect" : [ 650.0, 270.0, 104.0, 20.0 ],
									"fontname" : "Arial",
									"numinlets" : 1,
									"id" : "obj-60",
									"fontsize" : 12.0,
									"numoutlets" : 1
								}

							}
, 							{
								"box" : 								{
									"maxclass" : "newobj",
									"text" : "grab 1 gap_angle",
									"outlettype" : [ "" ],
									"patching_rect" : [ 650.0, 222.0, 104.0, 20.0 ],
									"fontname" : "Arial",
									"numinlets" : 1,
									"id" : "obj-57",
									"fontsize" : 12.0,
									"numoutlets" : 1
								}

							}
, 							{
								"box" : 								{
									"maxclass" : "newobj",
									"text" : "t b f",
									"outlettype" : [ "bang", "float" ],
									"patching_rect" : [ 650.0, 196.0, 32.5, 20.0 ],
									"fontname" : "Arial",
									"numinlets" : 1,
									"id" : "obj-56",
									"fontsize" : 12.0,
									"numoutlets" : 2
								}

							}
, 							{
								"box" : 								{
									"maxclass" : "newobj",
									"text" : "minimum 0.",
									"outlettype" : [ "float", "int" ],
									"patching_rect" : [ 650.0, 247.0, 73.0, 20.0 ],
									"fontname" : "Arial",
									"numinlets" : 2,
									"id" : "obj-55",
									"fontsize" : 12.0,
									"numoutlets" : 2
								}

							}
, 							{
								"box" : 								{
									"maxclass" : "newobj",
									"text" : "t f f",
									"outlettype" : [ "float", "float" ],
									"patching_rect" : [ 650.0, 146.0, 32.5, 20.0 ],
									"fontname" : "Arial",
									"numinlets" : 1,
									"id" : "obj-54",
									"fontsize" : 12.0,
									"numoutlets" : 2
								}

							}
, 							{
								"box" : 								{
									"maxclass" : "newobj",
									"text" : "grab 1 gap+piece_angle",
									"outlettype" : [ "" ],
									"patching_rect" : [ 664.0, 171.0, 140.0, 20.0 ],
									"fontname" : "Arial",
									"numinlets" : 1,
									"id" : "obj-53",
									"fontsize" : 12.0,
									"numoutlets" : 1
								}

							}
, 							{
								"box" : 								{
									"maxclass" : "newobj",
									"text" : "!/ 360.",
									"outlettype" : [ "float" ],
									"patching_rect" : [ 650.0, 121.0, 44.0, 20.0 ],
									"fontname" : "Arial",
									"numinlets" : 2,
									"id" : "obj-31",
									"fontsize" : 12.0,
									"numoutlets" : 1
								}

							}
, 							{
								"box" : 								{
									"maxclass" : "newobj",
									"text" : "grab 1 number_of_pieces",
									"outlettype" : [ "" ],
									"patching_rect" : [ 650.0, 98.0, 147.0, 20.0 ],
									"fontname" : "Arial",
									"numinlets" : 1,
									"id" : "obj-16",
									"fontsize" : 12.0,
									"numoutlets" : 1
								}

							}
, 							{
								"box" : 								{
									"maxclass" : "newobj",
									"text" : "r redrawMetro",
									"outlettype" : [ "" ],
									"patching_rect" : [ 18.0, 20.0, 85.0, 20.0 ],
									"fontname" : "Arial",
									"numinlets" : 0,
									"id" : "obj-46",
									"fontsize" : 12.0,
									"numoutlets" : 1
								}

							}
, 							{
								"box" : 								{
									"maxclass" : "newobj",
									"text" : "t f b",
									"outlettype" : [ "float", "bang" ],
									"patching_rect" : [ 171.0, 602.0, 32.5, 20.0 ],
									"fontname" : "Arial",
									"numinlets" : 1,
									"id" : "obj-45",
									"fontsize" : 12.0,
									"numoutlets" : 2
								}

							}
, 							{
								"box" : 								{
									"maxclass" : "newobj",
									"text" : "* 1.",
									"outlettype" : [ "float" ],
									"patching_rect" : [ 171.0, 579.0, 32.5, 20.0 ],
									"fontname" : "Arial",
									"numinlets" : 2,
									"id" : "obj-44",
									"fontsize" : 12.0,
									"numoutlets" : 1
								}

							}
, 							{
								"box" : 								{
									"maxclass" : "newobj",
									"text" : "+ 0.",
									"outlettype" : [ "float" ],
									"patching_rect" : [ 185.0, 556.0, 32.5, 20.0 ],
									"fontname" : "Arial",
									"numinlets" : 2,
									"id" : "obj-43",
									"fontsize" : 12.0,
									"numoutlets" : 1
								}

							}
, 							{
								"box" : 								{
									"maxclass" : "newobj",
									"text" : "t i b b",
									"outlettype" : [ "int", "bang", "bang" ],
									"patching_rect" : [ 171.0, 482.0, 46.0, 20.0 ],
									"fontname" : "Arial",
									"numinlets" : 1,
									"id" : "obj-42",
									"fontsize" : 12.0,
									"numoutlets" : 3
								}

							}
, 							{
								"box" : 								{
									"maxclass" : "newobj",
									"text" : "grab 1 piece_angle",
									"outlettype" : [ "" ],
									"patching_rect" : [ 198.0, 506.0, 113.0, 20.0 ],
									"fontname" : "Arial",
									"numinlets" : 1,
									"id" : "obj-40",
									"fontsize" : 12.0,
									"numoutlets" : 1
								}

							}
, 							{
								"box" : 								{
									"maxclass" : "newobj",
									"text" : "grab 1 gap_angle",
									"outlettype" : [ "" ],
									"patching_rect" : [ 185.0, 529.0, 104.0, 20.0 ],
									"fontname" : "Arial",
									"numinlets" : 1,
									"id" : "obj-41",
									"fontsize" : 12.0,
									"numoutlets" : 1
								}

							}
, 							{
								"box" : 								{
									"maxclass" : "newobj",
									"text" : "grab 1 rotation_angle",
									"outlettype" : [ "" ],
									"patching_rect" : [ 185.0, 625.0, 124.0, 20.0 ],
									"fontname" : "Arial",
									"numinlets" : 1,
									"id" : "obj-36",
									"fontsize" : 12.0,
									"numoutlets" : 1
								}

							}
, 							{
								"box" : 								{
									"maxclass" : "newobj",
									"text" : "grab 1 piece_angle",
									"outlettype" : [ "" ],
									"patching_rect" : [ 341.0, 483.0, 113.0, 20.0 ],
									"fontname" : "Arial",
									"numinlets" : 1,
									"id" : "obj-29",
									"fontsize" : 12.0,
									"numoutlets" : 1
								}

							}
, 							{
								"box" : 								{
									"maxclass" : "newobj",
									"text" : "+ 0.",
									"outlettype" : [ "float" ],
									"patching_rect" : [ 171.0, 646.0, 32.5, 20.0 ],
									"fontname" : "Arial",
									"numinlets" : 2,
									"id" : "obj-28",
									"fontsize" : 12.0,
									"numoutlets" : 1
								}

							}
, 							{
								"box" : 								{
									"maxclass" : "newobj",
									"text" : "t i b",
									"outlettype" : [ "int", "bang" ],
									"patching_rect" : [ 171.0, 456.0, 188.5, 20.0 ],
									"fontname" : "Arial",
									"numinlets" : 1,
									"id" : "obj-27",
									"fontsize" : 12.0,
									"numoutlets" : 2
								}

							}
, 							{
								"box" : 								{
									"maxclass" : "newobj",
									"text" : "- 1",
									"outlettype" : [ "int" ],
									"patching_rect" : [ 186.0, 307.0, 32.5, 20.0 ],
									"fontname" : "Arial",
									"numinlets" : 2,
									"id" : "obj-25",
									"fontsize" : 12.0,
									"numoutlets" : 1
								}

							}
, 							{
								"box" : 								{
									"maxclass" : "newobj",
									"text" : "sprintf paintarc 0 0 100 100 %f %f",
									"outlettype" : [ "" ],
									"patching_rect" : [ 171.0, 670.0, 191.0, 20.0 ],
									"fontname" : "Arial",
									"numinlets" : 2,
									"id" : "obj-24",
									"fontsize" : 12.0,
									"numoutlets" : 1
								}

							}
, 							{
								"box" : 								{
									"maxclass" : "newobj",
									"text" : "t b i",
									"outlettype" : [ "bang", "int" ],
									"patching_rect" : [ 159.0, 257.0, 32.5, 20.0 ],
									"fontname" : "Arial",
									"numinlets" : 1,
									"id" : "obj-23",
									"fontsize" : 12.0,
									"numoutlets" : 2
								}

							}
, 							{
								"box" : 								{
									"maxclass" : "newobj",
									"text" : "uzi",
									"outlettype" : [ "bang", "bang", "int" ],
									"patching_rect" : [ 159.0, 281.0, 46.0, 20.0 ],
									"fontname" : "Arial",
									"numinlets" : 2,
									"id" : "obj-22",
									"fontsize" : 12.0,
									"numoutlets" : 3
								}

							}
, 							{
								"box" : 								{
									"maxclass" : "newobj",
									"text" : "grab 1 number_of_pieces",
									"outlettype" : [ "" ],
									"patching_rect" : [ 159.0, 233.0, 147.0, 20.0 ],
									"fontname" : "Arial",
									"numinlets" : 1,
									"id" : "obj-21",
									"fontsize" : 12.0,
									"numoutlets" : 1
								}

							}
, 							{
								"box" : 								{
									"maxclass" : "newobj",
									"text" : "grab 1 piece_angle",
									"outlettype" : [ "" ],
									"patching_rect" : [ 635.0, 441.0, 113.0, 20.0 ],
									"fontname" : "Arial",
									"numinlets" : 1,
									"id" : "obj-19",
									"fontsize" : 12.0,
									"numoutlets" : 1
								}

							}
, 							{
								"box" : 								{
									"maxclass" : "newobj",
									"text" : "/ 1.",
									"outlettype" : [ "float" ],
									"patching_rect" : [ 635.0, 415.0, 45.5, 20.0 ],
									"fontname" : "Arial",
									"numinlets" : 2,
									"id" : "obj-18",
									"fontsize" : 12.0,
									"numoutlets" : 1
								}

							}
, 							{
								"box" : 								{
									"maxclass" : "newobj",
									"text" : "!- 360.",
									"outlettype" : [ "float" ],
									"patching_rect" : [ 635.0, 391.0, 45.0, 20.0 ],
									"fontname" : "Arial",
									"numinlets" : 2,
									"id" : "obj-15",
									"fontsize" : 12.0,
									"numoutlets" : 1
								}

							}
, 							{
								"box" : 								{
									"maxclass" : "newobj",
									"text" : "* 1.",
									"outlettype" : [ "float" ],
									"patching_rect" : [ 635.0, 368.0, 32.5, 20.0 ],
									"fontname" : "Arial",
									"numinlets" : 2,
									"id" : "obj-14",
									"fontsize" : 12.0,
									"numoutlets" : 1
								}

							}
, 							{
								"box" : 								{
									"maxclass" : "newobj",
									"text" : "t b i i",
									"outlettype" : [ "bang", "int", "int" ],
									"patching_rect" : [ 635.0, 320.0, 46.0, 20.0 ],
									"fontname" : "Arial",
									"numinlets" : 1,
									"id" : "obj-13",
									"fontsize" : 12.0,
									"numoutlets" : 3
								}

							}
, 							{
								"box" : 								{
									"maxclass" : "newobj",
									"text" : "grab 1 number_of_pieces",
									"outlettype" : [ "" ],
									"patching_rect" : [ 635.0, 296.0, 147.0, 20.0 ],
									"fontname" : "Arial",
									"numinlets" : 1,
									"id" : "obj-10",
									"fontsize" : 12.0,
									"numoutlets" : 1
								}

							}
, 							{
								"box" : 								{
									"maxclass" : "newobj",
									"text" : "grab 1 gap_angle",
									"outlettype" : [ "" ],
									"patching_rect" : [ 635.0, 344.0, 104.0, 20.0 ],
									"fontname" : "Arial",
									"numinlets" : 1,
									"id" : "obj-6",
									"fontsize" : 12.0,
									"numoutlets" : 1
								}

							}
, 							{
								"box" : 								{
									"maxclass" : "newobj",
									"text" : "t b b b b",
									"outlettype" : [ "bang", "bang", "bang", "bang" ],
									"patching_rect" : [ 18.0, 80.0, 440.5, 20.0 ],
									"fontname" : "Arial",
									"numinlets" : 1,
									"id" : "obj-4",
									"fontsize" : 12.0,
									"numoutlets" : 4
								}

							}
, 							{
								"box" : 								{
									"maxclass" : "message",
									"text" : "clear",
									"outlettype" : [ "" ],
									"patching_rect" : [ 440.0, 104.0, 37.0, 18.0 ],
									"fontname" : "Arial",
									"numinlets" : 2,
									"id" : "obj-3",
									"fontsize" : 12.0,
									"numoutlets" : 1
								}

							}
, 							{
								"box" : 								{
									"maxclass" : "message",
									"text" : "frgb 127 127 127",
									"outlettype" : [ "" ],
									"patching_rect" : [ 299.0, 105.0, 98.0, 18.0 ],
									"fontname" : "Arial",
									"numinlets" : 2,
									"id" : "obj-5",
									"fontsize" : 11.595187,
									"numoutlets" : 1
								}

							}
 ],
						"lines" : [ 							{
								"patchline" : 								{
									"source" : [ "obj-1", 0 ],
									"destination" : [ "obj-35", 0 ],
									"hidden" : 0,
									"midpoints" : [  ]
								}

							}
, 							{
								"patchline" : 								{
									"source" : [ "obj-51", 2 ],
									"destination" : [ "obj-50", 1 ],
									"hidden" : 0,
									"midpoints" : [  ]
								}

							}
, 							{
								"patchline" : 								{
									"source" : [ "obj-50", 0 ],
									"destination" : [ "obj-52", 0 ],
									"hidden" : 0,
									"midpoints" : [  ]
								}

							}
, 							{
								"patchline" : 								{
									"source" : [ "obj-48", 0 ],
									"destination" : [ "obj-50", 0 ],
									"hidden" : 0,
									"midpoints" : [  ]
								}

							}
, 							{
								"patchline" : 								{
									"source" : [ "obj-4", 1 ],
									"destination" : [ "obj-21", 0 ],
									"hidden" : 0,
									"midpoints" : [  ]
								}

							}
, 							{
								"patchline" : 								{
									"source" : [ "obj-4", 2 ],
									"destination" : [ "obj-5", 0 ],
									"hidden" : 0,
									"midpoints" : [  ]
								}

							}
, 							{
								"patchline" : 								{
									"source" : [ "obj-45", 1 ],
									"destination" : [ "obj-36", 0 ],
									"hidden" : 0,
									"midpoints" : [  ]
								}

							}
, 							{
								"patchline" : 								{
									"source" : [ "obj-44", 0 ],
									"destination" : [ "obj-45", 0 ],
									"hidden" : 0,
									"midpoints" : [  ]
								}

							}
, 							{
								"patchline" : 								{
									"source" : [ "obj-45", 0 ],
									"destination" : [ "obj-28", 0 ],
									"hidden" : 0,
									"midpoints" : [  ]
								}

							}
, 							{
								"patchline" : 								{
									"source" : [ "obj-36", 0 ],
									"destination" : [ "obj-28", 1 ],
									"hidden" : 0,
									"midpoints" : [  ]
								}

							}
, 							{
								"patchline" : 								{
									"source" : [ "obj-42", 0 ],
									"destination" : [ "obj-44", 0 ],
									"hidden" : 0,
									"midpoints" : [  ]
								}

							}
, 							{
								"patchline" : 								{
									"source" : [ "obj-43", 0 ],
									"destination" : [ "obj-44", 1 ],
									"hidden" : 0,
									"midpoints" : [  ]
								}

							}
, 							{
								"patchline" : 								{
									"source" : [ "obj-41", 0 ],
									"destination" : [ "obj-43", 0 ],
									"hidden" : 0,
									"midpoints" : [  ]
								}

							}
, 							{
								"patchline" : 								{
									"source" : [ "obj-40", 0 ],
									"destination" : [ "obj-43", 1 ],
									"hidden" : 0,
									"midpoints" : [  ]
								}

							}
, 							{
								"patchline" : 								{
									"source" : [ "obj-4", 3 ],
									"destination" : [ "obj-3", 0 ],
									"hidden" : 0,
									"midpoints" : [  ]
								}

							}
, 							{
								"patchline" : 								{
									"source" : [ "obj-18", 0 ],
									"destination" : [ "obj-19", 0 ],
									"hidden" : 0,
									"midpoints" : [  ]
								}

							}
, 							{
								"patchline" : 								{
									"source" : [ "obj-13", 2 ],
									"destination" : [ "obj-18", 1 ],
									"hidden" : 0,
									"midpoints" : [  ]
								}

							}
, 							{
								"patchline" : 								{
									"source" : [ "obj-15", 0 ],
									"destination" : [ "obj-18", 0 ],
									"hidden" : 0,
									"midpoints" : [  ]
								}

							}
, 							{
								"patchline" : 								{
									"source" : [ "obj-13", 1 ],
									"destination" : [ "obj-14", 1 ],
									"hidden" : 0,
									"midpoints" : [  ]
								}

							}
, 							{
								"patchline" : 								{
									"source" : [ "obj-6", 0 ],
									"destination" : [ "obj-14", 0 ],
									"hidden" : 0,
									"midpoints" : [  ]
								}

							}
, 							{
								"patchline" : 								{
									"source" : [ "obj-14", 0 ],
									"destination" : [ "obj-15", 0 ],
									"hidden" : 0,
									"midpoints" : [  ]
								}

							}
, 							{
								"patchline" : 								{
									"source" : [ "obj-27", 1 ],
									"destination" : [ "obj-29", 0 ],
									"hidden" : 0,
									"midpoints" : [  ]
								}

							}
, 							{
								"patchline" : 								{
									"source" : [ "obj-27", 0 ],
									"destination" : [ "obj-42", 0 ],
									"hidden" : 0,
									"midpoints" : [  ]
								}

							}
, 							{
								"patchline" : 								{
									"source" : [ "obj-55", 0 ],
									"destination" : [ "obj-60", 0 ],
									"hidden" : 0,
									"midpoints" : [  ]
								}

							}
, 							{
								"patchline" : 								{
									"source" : [ "obj-57", 0 ],
									"destination" : [ "obj-55", 0 ],
									"hidden" : 0,
									"midpoints" : [  ]
								}

							}
, 							{
								"patchline" : 								{
									"source" : [ "obj-56", 0 ],
									"destination" : [ "obj-57", 0 ],
									"hidden" : 0,
									"midpoints" : [  ]
								}

							}
, 							{
								"patchline" : 								{
									"source" : [ "obj-56", 1 ],
									"destination" : [ "obj-55", 1 ],
									"hidden" : 0,
									"midpoints" : [  ]
								}

							}
, 							{
								"patchline" : 								{
									"source" : [ "obj-54", 0 ],
									"destination" : [ "obj-56", 0 ],
									"hidden" : 0,
									"midpoints" : [  ]
								}

							}
, 							{
								"patchline" : 								{
									"source" : [ "obj-54", 1 ],
									"destination" : [ "obj-53", 0 ],
									"hidden" : 0,
									"midpoints" : [  ]
								}

							}
, 							{
								"patchline" : 								{
									"source" : [ "obj-31", 0 ],
									"destination" : [ "obj-54", 0 ],
									"hidden" : 0,
									"midpoints" : [  ]
								}

							}
, 							{
								"patchline" : 								{
									"source" : [ "obj-16", 0 ],
									"destination" : [ "obj-31", 0 ],
									"hidden" : 0,
									"midpoints" : [  ]
								}

							}
, 							{
								"patchline" : 								{
									"source" : [ "obj-13", 0 ],
									"destination" : [ "obj-6", 0 ],
									"hidden" : 0,
									"midpoints" : [  ]
								}

							}
, 							{
								"patchline" : 								{
									"source" : [ "obj-10", 0 ],
									"destination" : [ "obj-13", 0 ],
									"hidden" : 0,
									"midpoints" : [  ]
								}

							}
, 							{
								"patchline" : 								{
									"source" : [ "obj-21", 0 ],
									"destination" : [ "obj-23", 0 ],
									"hidden" : 0,
									"midpoints" : [  ]
								}

							}
, 							{
								"patchline" : 								{
									"source" : [ "obj-23", 1 ],
									"destination" : [ "obj-22", 1 ],
									"hidden" : 0,
									"midpoints" : [  ]
								}

							}
, 							{
								"patchline" : 								{
									"source" : [ "obj-23", 0 ],
									"destination" : [ "obj-22", 0 ],
									"hidden" : 0,
									"midpoints" : [  ]
								}

							}
, 							{
								"patchline" : 								{
									"source" : [ "obj-22", 2 ],
									"destination" : [ "obj-25", 0 ],
									"hidden" : 0,
									"midpoints" : [  ]
								}

							}
, 							{
								"patchline" : 								{
									"source" : [ "obj-42", 1 ],
									"destination" : [ "obj-41", 0 ],
									"hidden" : 0,
									"midpoints" : [  ]
								}

							}
, 							{
								"patchline" : 								{
									"source" : [ "obj-42", 2 ],
									"destination" : [ "obj-40", 0 ],
									"hidden" : 0,
									"midpoints" : [  ]
								}

							}
, 							{
								"patchline" : 								{
									"source" : [ "obj-4", 0 ],
									"destination" : [ "obj-20", 0 ],
									"hidden" : 0,
									"midpoints" : [  ]
								}

							}
, 							{
								"patchline" : 								{
									"source" : [ "obj-20", 0 ],
									"destination" : [ "obj-30", 0 ],
									"hidden" : 0,
									"midpoints" : [  ]
								}

							}
, 							{
								"patchline" : 								{
									"source" : [ "obj-20", 1 ],
									"destination" : [ "obj-33", 0 ],
									"hidden" : 0,
									"midpoints" : [  ]
								}

							}
, 							{
								"patchline" : 								{
									"source" : [ "obj-34", 0 ],
									"destination" : [ "obj-4", 0 ],
									"hidden" : 0,
									"midpoints" : [  ]
								}

							}
, 							{
								"patchline" : 								{
									"source" : [ "obj-35", 0 ],
									"destination" : [ "obj-10", 0 ],
									"hidden" : 0,
									"midpoints" : [  ]
								}

							}
, 							{
								"patchline" : 								{
									"source" : [ "obj-35", 1 ],
									"destination" : [ "obj-16", 0 ],
									"hidden" : 0,
									"midpoints" : [  ]
								}

							}
, 							{
								"patchline" : 								{
									"source" : [ "obj-34", 1 ],
									"destination" : [ "obj-35", 0 ],
									"hidden" : 0,
									"midpoints" : [  ]
								}

							}
, 							{
								"patchline" : 								{
									"source" : [ "obj-9", 0 ],
									"destination" : [ "obj-7", 0 ],
									"hidden" : 0,
									"midpoints" : [  ]
								}

							}
, 							{
								"patchline" : 								{
									"source" : [ "obj-7", 0 ],
									"destination" : [ "obj-2", 0 ],
									"hidden" : 0,
									"midpoints" : [  ]
								}

							}
, 							{
								"patchline" : 								{
									"source" : [ "obj-3", 0 ],
									"destination" : [ "obj-11", 0 ],
									"hidden" : 0,
									"midpoints" : [  ]
								}

							}
, 							{
								"patchline" : 								{
									"source" : [ "obj-11", 1 ],
									"destination" : [ "obj-9", 0 ],
									"hidden" : 0,
									"midpoints" : [  ]
								}

							}
, 							{
								"patchline" : 								{
									"source" : [ "obj-11", 0 ],
									"destination" : [ "obj-2", 0 ],
									"hidden" : 0,
									"midpoints" : [  ]
								}

							}
, 							{
								"patchline" : 								{
									"source" : [ "obj-12", 0 ],
									"destination" : [ "obj-32", 0 ],
									"hidden" : 0,
									"midpoints" : [  ]
								}

							}
, 							{
								"patchline" : 								{
									"source" : [ "obj-12", 1 ],
									"destination" : [ "obj-17", 0 ],
									"hidden" : 0,
									"midpoints" : [  ]
								}

							}
, 							{
								"patchline" : 								{
									"source" : [ "obj-26", 0 ],
									"destination" : [ "obj-32", 0 ],
									"hidden" : 0,
									"midpoints" : [  ]
								}

							}
, 							{
								"patchline" : 								{
									"source" : [ "obj-17", 0 ],
									"destination" : [ "obj-26", 0 ],
									"hidden" : 0,
									"midpoints" : [  ]
								}

							}
, 							{
								"patchline" : 								{
									"source" : [ "obj-5", 0 ],
									"destination" : [ "obj-12", 0 ],
									"hidden" : 0,
									"midpoints" : [  ]
								}

							}
, 							{
								"patchline" : 								{
									"source" : [ "obj-37", 0 ],
									"destination" : [ "obj-47", 0 ],
									"hidden" : 0,
									"midpoints" : [  ]
								}

							}
, 							{
								"patchline" : 								{
									"source" : [ "obj-37", 1 ],
									"destination" : [ "obj-38", 0 ],
									"hidden" : 0,
									"midpoints" : [  ]
								}

							}
, 							{
								"patchline" : 								{
									"source" : [ "obj-39", 0 ],
									"destination" : [ "obj-47", 0 ],
									"hidden" : 0,
									"midpoints" : [  ]
								}

							}
, 							{
								"patchline" : 								{
									"source" : [ "obj-38", 0 ],
									"destination" : [ "obj-39", 0 ],
									"hidden" : 0,
									"midpoints" : [  ]
								}

							}
, 							{
								"patchline" : 								{
									"source" : [ "obj-49", 0 ],
									"destination" : [ "obj-48", 0 ],
									"hidden" : 0,
									"midpoints" : [  ]
								}

							}
, 							{
								"patchline" : 								{
									"source" : [ "obj-25", 0 ],
									"destination" : [ "obj-51", 0 ],
									"hidden" : 0,
									"midpoints" : [  ]
								}

							}
, 							{
								"patchline" : 								{
									"source" : [ "obj-51", 1 ],
									"destination" : [ "obj-49", 0 ],
									"hidden" : 0,
									"midpoints" : [  ]
								}

							}
, 							{
								"patchline" : 								{
									"source" : [ "obj-51", 0 ],
									"destination" : [ "obj-52", 1 ],
									"hidden" : 0,
									"midpoints" : [  ]
								}

							}
, 							{
								"patchline" : 								{
									"source" : [ "obj-52", 0 ],
									"destination" : [ "obj-27", 0 ],
									"hidden" : 0,
									"midpoints" : [  ]
								}

							}
, 							{
								"patchline" : 								{
									"source" : [ "obj-24", 0 ],
									"destination" : [ "obj-37", 0 ],
									"hidden" : 0,
									"midpoints" : [  ]
								}

							}
, 							{
								"patchline" : 								{
									"source" : [ "obj-28", 0 ],
									"destination" : [ "obj-24", 0 ],
									"hidden" : 0,
									"midpoints" : [  ]
								}

							}
, 							{
								"patchline" : 								{
									"source" : [ "obj-29", 0 ],
									"destination" : [ "obj-24", 1 ],
									"hidden" : 0,
									"midpoints" : [  ]
								}

							}
 ]
					}
,
					"saved_object_attributes" : 					{
						"globalpatchername" : "",
						"default_fontname" : "Arial",
						"default_fontsize" : 12.0,
						"fontname" : "Arial",
						"fontface" : 0,
						"default_fontface" : 0,
						"fontsize" : 12.0
					}

				}

			}
, 			{
				"box" : 				{
					"maxclass" : "newobj",
					"text" : "s midiOut",
					"patching_rect" : [ 327.0, 403.0, 61.0, 20.0 ],
					"fontname" : "Arial",
					"numinlets" : 1,
					"id" : "obj-63",
					"fontsize" : 12.0,
					"numoutlets" : 0
				}

			}
, 			{
				"box" : 				{
					"maxclass" : "newobj",
					"text" : "sprintf 144 %i 60",
					"outlettype" : [ "" ],
					"patching_rect" : [ 327.0, 378.0, 100.0, 20.0 ],
					"fontname" : "Arial",
					"numinlets" : 1,
					"id" : "obj-60",
					"fontsize" : 12.0,
					"numoutlets" : 1
				}

			}
, 			{
				"box" : 				{
					"maxclass" : "newobj",
					"text" : "grab 1 scale_notes",
					"outlettype" : [ "" ],
					"patching_rect" : [ 340.0, 332.0, 112.0, 20.0 ],
					"fontname" : "Arial",
					"numinlets" : 1,
					"id" : "obj-57",
					"fontsize" : 12.0,
					"numoutlets" : 1
				}

			}
, 			{
				"box" : 				{
					"maxclass" : "message",
					"text" : "#1",
					"outlettype" : [ "" ],
					"patching_rect" : [ 340.0, 309.0, 32.5, 18.0 ],
					"fontname" : "Arial",
					"numinlets" : 2,
					"id" : "obj-56",
					"fontsize" : 12.0,
					"numoutlets" : 1
				}

			}
, 			{
				"box" : 				{
					"maxclass" : "newobj",
					"text" : "grab 1 gap+piece_angle",
					"outlettype" : [ "" ],
					"patching_rect" : [ 280.0, 58.0, 140.0, 20.0 ],
					"fontname" : "Arial",
					"numinlets" : 1,
					"id" : "obj-53",
					"fontsize" : 12.0,
					"numoutlets" : 1
				}

			}
, 			{
				"box" : 				{
					"maxclass" : "newobj",
					"text" : "grab 1 rotation_angle",
					"outlettype" : [ "" ],
					"patching_rect" : [ 265.0, 82.0, 124.0, 20.0 ],
					"fontname" : "Arial",
					"numinlets" : 1,
					"id" : "obj-39",
					"fontsize" : 12.0,
					"numoutlets" : 1
				}

			}
, 			{
				"box" : 				{
					"maxclass" : "newobj",
					"text" : "t b b",
					"outlettype" : [ "bang", "bang" ],
					"patching_rect" : [ 265.0, 34.0, 34.0, 20.0 ],
					"fontname" : "Arial",
					"numinlets" : 1,
					"id" : "obj-38",
					"fontsize" : 12.0,
					"numoutlets" : 2
				}

			}
, 			{
				"box" : 				{
					"maxclass" : "newobj",
					"text" : "r playMetro",
					"outlettype" : [ "" ],
					"patching_rect" : [ 265.0, 8.0, 71.0, 20.0 ],
					"fontname" : "Arial",
					"numinlets" : 0,
					"id" : "obj-35",
					"fontsize" : 12.0,
					"numoutlets" : 1
				}

			}
, 			{
				"box" : 				{
					"maxclass" : "button",
					"outlettype" : [ "bang" ],
					"patching_rect" : [ 378.0, 309.0, 20.0, 20.0 ],
					"presentation" : 1,
					"bgcolor" : [ 0.196078, 0.196078, 0.196078, 1.0 ],
					"numinlets" : 1,
					"outlinecolor" : [ 0.196078, 0.196078, 0.196078, 1.0 ],
					"id" : "obj-16",
					"presentation_rect" : [ 28.0, 28.0, 44.0, 44.0 ],
					"blinkcolor" : [ 1.0, 0.94902, 0.0, 1.0 ],
					"numoutlets" : 1
				}

			}
, 			{
				"box" : 				{
					"maxclass" : "newobj",
					"text" : "loadbang",
					"outlettype" : [ "bang" ],
					"patching_rect" : [ 13.0, 1.0, 60.0, 20.0 ],
					"fontname" : "Arial",
					"numinlets" : 1,
					"id" : "obj-6",
					"fontsize" : 12.0,
					"numoutlets" : 1,
					"color" : [ 0.0, 0.0, 0.0, 1.0 ]
				}

			}
, 			{
				"box" : 				{
					"maxclass" : "newobj",
					"text" : "sprintf set lcd%i",
					"outlettype" : [ "" ],
					"patching_rect" : [ 13.0, 44.0, 95.0, 20.0 ],
					"fontname" : "Arial",
					"numinlets" : 1,
					"id" : "obj-5",
					"fontsize" : 12.0,
					"numoutlets" : 1
				}

			}
, 			{
				"box" : 				{
					"maxclass" : "newobj",
					"text" : "r",
					"outlettype" : [ "" ],
					"patching_rect" : [ 13.0, 69.0, 19.0, 20.0 ],
					"fontname" : "Arial",
					"numinlets" : 1,
					"id" : "obj-4",
					"fontsize" : 12.0,
					"numoutlets" : 1
				}

			}
, 			{
				"box" : 				{
					"maxclass" : "message",
					"text" : "#1",
					"outlettype" : [ "" ],
					"patching_rect" : [ 13.0, 25.0, 32.5, 18.0 ],
					"fontname" : "Arial",
					"numinlets" : 2,
					"id" : "obj-3",
					"fontsize" : 12.0,
					"numoutlets" : 1
				}

			}
, 			{
				"box" : 				{
					"maxclass" : "lcd",
					"local" : 0,
					"outlettype" : [ "list", "list", "int", "" ],
					"patching_rect" : [ 13.0, 92.0, 213.0, 213.0 ],
					"presentation" : 1,
					"bgtransparent" : 1,
					"border" : 0,
					"numinlets" : 1,
					"id" : "obj-1",
					"presentation_rect" : [ 0.0, 0.0, 100.0, 100.0 ],
					"numoutlets" : 4
				}

			}
 ],
		"lines" : [ 			{
				"patchline" : 				{
					"source" : [ "obj-14", 0 ],
					"destination" : [ "obj-20", 0 ],
					"hidden" : 0,
					"midpoints" : [  ]
				}

			}
, 			{
				"patchline" : 				{
					"source" : [ "obj-18", 0 ],
					"destination" : [ "obj-14", 0 ],
					"hidden" : 0,
					"midpoints" : [  ]
				}

			}
, 			{
				"patchline" : 				{
					"source" : [ "obj-15", 0 ],
					"destination" : [ "obj-18", 0 ],
					"hidden" : 0,
					"midpoints" : [  ]
				}

			}
, 			{
				"patchline" : 				{
					"source" : [ "obj-19", 0 ],
					"destination" : [ "obj-15", 0 ],
					"hidden" : 0,
					"midpoints" : [  ]
				}

			}
, 			{
				"patchline" : 				{
					"source" : [ "obj-19", 1 ],
					"destination" : [ "obj-18", 1 ],
					"hidden" : 0,
					"midpoints" : [  ]
				}

			}
, 			{
				"patchline" : 				{
					"source" : [ "obj-19", 2 ],
					"destination" : [ "obj-60", 0 ],
					"hidden" : 0,
					"midpoints" : [  ]
				}

			}
, 			{
				"patchline" : 				{
					"source" : [ "obj-57", 0 ],
					"destination" : [ "obj-19", 0 ],
					"hidden" : 0,
					"midpoints" : [  ]
				}

			}
, 			{
				"patchline" : 				{
					"source" : [ "obj-29", 0 ],
					"destination" : [ "obj-27", 0 ],
					"hidden" : 0,
					"midpoints" : [  ]
				}

			}
, 			{
				"patchline" : 				{
					"source" : [ "obj-27", 0 ],
					"destination" : [ "obj-30", 0 ],
					"hidden" : 0,
					"midpoints" : [  ]
				}

			}
, 			{
				"patchline" : 				{
					"source" : [ "obj-10", 0 ],
					"destination" : [ "obj-51", 0 ],
					"hidden" : 0,
					"midpoints" : [  ]
				}

			}
, 			{
				"patchline" : 				{
					"source" : [ "obj-8", 0 ],
					"destination" : [ "obj-11", 0 ],
					"hidden" : 0,
					"midpoints" : [  ]
				}

			}
, 			{
				"patchline" : 				{
					"source" : [ "obj-11", 0 ],
					"destination" : [ "obj-10", 0 ],
					"hidden" : 0,
					"midpoints" : [  ]
				}

			}
, 			{
				"patchline" : 				{
					"source" : [ "obj-17", 0 ],
					"destination" : [ "obj-12", 0 ],
					"hidden" : 0,
					"midpoints" : [  ]
				}

			}
, 			{
				"patchline" : 				{
					"source" : [ "obj-2", 0 ],
					"destination" : [ "obj-17", 0 ],
					"hidden" : 0,
					"midpoints" : [  ]
				}

			}
, 			{
				"patchline" : 				{
					"source" : [ "obj-12", 1 ],
					"destination" : [ "obj-7", 0 ],
					"hidden" : 0,
					"midpoints" : [  ]
				}

			}
, 			{
				"patchline" : 				{
					"source" : [ "obj-31", 0 ],
					"destination" : [ "obj-40", 0 ],
					"hidden" : 0,
					"midpoints" : [  ]
				}

			}
, 			{
				"patchline" : 				{
					"source" : [ "obj-33", 0 ],
					"destination" : [ "obj-31", 0 ],
					"hidden" : 0,
					"midpoints" : [  ]
				}

			}
, 			{
				"patchline" : 				{
					"source" : [ "obj-30", 1 ],
					"destination" : [ "obj-31", 1 ],
					"hidden" : 0,
					"midpoints" : [  ]
				}

			}
, 			{
				"patchline" : 				{
					"source" : [ "obj-4", 0 ],
					"destination" : [ "obj-1", 0 ],
					"hidden" : 0,
					"midpoints" : [  ]
				}

			}
, 			{
				"patchline" : 				{
					"source" : [ "obj-35", 0 ],
					"destination" : [ "obj-38", 0 ],
					"hidden" : 0,
					"midpoints" : [  ]
				}

			}
, 			{
				"patchline" : 				{
					"source" : [ "obj-38", 0 ],
					"destination" : [ "obj-39", 0 ],
					"hidden" : 0,
					"midpoints" : [  ]
				}

			}
, 			{
				"patchline" : 				{
					"source" : [ "obj-38", 1 ],
					"destination" : [ "obj-53", 0 ],
					"hidden" : 0,
					"midpoints" : [  ]
				}

			}
, 			{
				"patchline" : 				{
					"source" : [ "obj-56", 0 ],
					"destination" : [ "obj-57", 0 ],
					"hidden" : 0,
					"midpoints" : [  ]
				}

			}
, 			{
				"patchline" : 				{
					"source" : [ "obj-60", 0 ],
					"destination" : [ "obj-63", 0 ],
					"hidden" : 0,
					"midpoints" : [  ]
				}

			}
, 			{
				"patchline" : 				{
					"source" : [ "obj-6", 0 ],
					"destination" : [ "obj-3", 0 ],
					"hidden" : 0,
					"midpoints" : [  ]
				}

			}
, 			{
				"patchline" : 				{
					"source" : [ "obj-3", 0 ],
					"destination" : [ "obj-5", 0 ],
					"hidden" : 0,
					"midpoints" : [  ]
				}

			}
, 			{
				"patchline" : 				{
					"source" : [ "obj-5", 0 ],
					"destination" : [ "obj-4", 0 ],
					"hidden" : 0,
					"midpoints" : [  ]
				}

			}
, 			{
				"patchline" : 				{
					"source" : [ "obj-32", 0 ],
					"destination" : [ "obj-33", 0 ],
					"hidden" : 0,
					"midpoints" : [  ]
				}

			}
, 			{
				"patchline" : 				{
					"source" : [ "obj-30", 0 ],
					"destination" : [ "obj-32", 0 ],
					"hidden" : 0,
					"midpoints" : [  ]
				}

			}
, 			{
				"patchline" : 				{
					"source" : [ "obj-40", 0 ],
					"destination" : [ "obj-56", 0 ],
					"hidden" : 0,
					"midpoints" : [  ]
				}

			}
, 			{
				"patchline" : 				{
					"source" : [ "obj-40", 0 ],
					"destination" : [ "obj-16", 0 ],
					"hidden" : 0,
					"midpoints" : [  ]
				}

			}
, 			{
				"patchline" : 				{
					"source" : [ "obj-122", 0 ],
					"destination" : [ "obj-121", 0 ],
					"hidden" : 0,
					"midpoints" : [  ]
				}

			}
, 			{
				"patchline" : 				{
					"source" : [ "obj-123", 0 ],
					"destination" : [ "obj-124", 0 ],
					"hidden" : 0,
					"midpoints" : [  ]
				}

			}
, 			{
				"patchline" : 				{
					"source" : [ "obj-124", 0 ],
					"destination" : [ "obj-122", 0 ],
					"hidden" : 0,
					"midpoints" : [  ]
				}

			}
, 			{
				"patchline" : 				{
					"source" : [ "obj-53", 0 ],
					"destination" : [ "obj-23", 1 ],
					"hidden" : 0,
					"midpoints" : [  ]
				}

			}
, 			{
				"patchline" : 				{
					"source" : [ "obj-39", 0 ],
					"destination" : [ "obj-23", 0 ],
					"hidden" : 0,
					"midpoints" : [  ]
				}

			}
, 			{
				"patchline" : 				{
					"source" : [ "obj-23", 0 ],
					"destination" : [ "obj-29", 0 ],
					"hidden" : 0,
					"midpoints" : [ 274.5, 133.5, 349.5, 133.5 ]
				}

			}
, 			{
				"patchline" : 				{
					"source" : [ "obj-7", 0 ],
					"destination" : [ "obj-13", 1 ],
					"hidden" : 0,
					"midpoints" : [  ]
				}

			}
, 			{
				"patchline" : 				{
					"source" : [ "obj-12", 0 ],
					"destination" : [ "obj-13", 0 ],
					"hidden" : 0,
					"midpoints" : [  ]
				}

			}
, 			{
				"patchline" : 				{
					"source" : [ "obj-13", 0 ],
					"destination" : [ "obj-29", 0 ],
					"hidden" : 0,
					"midpoints" : [ 433.5, 133.5, 349.5, 133.5 ]
				}

			}
 ]
	}

}
