{
	"patcher" : 	{
		"fileversion" : 1,
		"rect" : [ 611.0, 111.0, 341.0, 640.0 ],
		"bgcolor" : [ 1.0, 1.0, 1.0, 0.0 ],
		"bglocked" : 0,
		"defrect" : [ 78.0, 68.0, 1066.0, 863.0 ],
		"openrect" : [ 0.0, 0.0, 0.0, 0.0 ],
		"openinpresentation" : 1,
		"default_fontsize" : 12.0,
		"default_fontface" : 0,
		"default_fontname" : "Arial",
		"gridonopen" : 0,
		"gridsize" : [ 15.0, 15.0 ],
		"gridsnaponopen" : 0,
		"toolbarvisible" : 1,
		"boxanimatetime" : 200,
		"imprint" : 0,
		"enablehscroll" : 1,
		"enablevscroll" : 1,
		"devicewidth" : 0.0,
		"boxes" : [ 			{
				"box" : 				{
					"maxclass" : "newobj",
					"text" : "t i i",
					"id" : "obj-32",
					"numinlets" : 1,
					"numoutlets" : 2,
					"fontname" : "Arial",
					"patching_rect" : [ 383.0, 172.0, 32.5, 20.0 ],
					"outlettype" : [ "int", "int" ],
					"fontsize" : 12.0
				}

			}
, 			{
				"box" : 				{
					"maxclass" : "newobj",
					"text" : "gate 10",
					"id" : "obj-31",
					"numinlets" : 2,
					"numoutlets" : 10,
					"fontname" : "Arial",
					"patching_rect" : [ 261.0, 267.0, 140.5, 20.0 ],
					"outlettype" : [ "", "", "", "", "", "", "", "", "", "" ],
					"fontsize" : 12.0
				}

			}
, 			{
				"box" : 				{
					"maxclass" : "number",
					"format" : 4,
					"id" : "obj-21",
					"bordercolor" : [ 0.501961, 0.501961, 0.501961, 0.0 ],
					"textcolor" : [ 1.0, 1.0, 1.0, 1.0 ],
					"presentation_rect" : [ 311.0, 4.0, 52.0, 20.0 ],
					"numinlets" : 1,
					"triangle" : 0,
					"numoutlets" : 2,
					"fontname" : "Arial",
					"patching_rect" : [ 559.0, 357.0, 37.0, 20.0 ],
					"bgcolor" : [ 1.0, 1.0, 1.0, 0.0 ],
					"presentation" : 1,
					"outlettype" : [ "int", "bang" ],
					"cantchange" : 1,
					"fontsize" : 12.0
				}

			}
, 			{
				"box" : 				{
					"maxclass" : "number",
					"format" : 4,
					"id" : "obj-23",
					"bordercolor" : [ 0.501961, 0.501961, 0.501961, 0.0 ],
					"textcolor" : [ 1.0, 1.0, 1.0, 1.0 ],
					"presentation_rect" : [ 277.0, 4.0, 52.0, 20.0 ],
					"numinlets" : 1,
					"triangle" : 0,
					"numoutlets" : 2,
					"fontname" : "Arial",
					"patching_rect" : [ 521.0, 357.0, 37.0, 20.0 ],
					"bgcolor" : [ 1.0, 1.0, 1.0, 0.0 ],
					"presentation" : 1,
					"outlettype" : [ "int", "bang" ],
					"cantchange" : 1,
					"fontsize" : 12.0
				}

			}
, 			{
				"box" : 				{
					"maxclass" : "number",
					"format" : 4,
					"id" : "obj-26",
					"bordercolor" : [ 0.501961, 0.501961, 0.501961, 0.0 ],
					"textcolor" : [ 1.0, 1.0, 1.0, 1.0 ],
					"presentation_rect" : [ 241.0, 4.0, 52.0, 20.0 ],
					"numinlets" : 1,
					"triangle" : 0,
					"numoutlets" : 2,
					"fontname" : "Arial",
					"patching_rect" : [ 483.0, 357.0, 37.0, 20.0 ],
					"bgcolor" : [ 1.0, 1.0, 1.0, 0.0 ],
					"presentation" : 1,
					"outlettype" : [ "int", "bang" ],
					"cantchange" : 1,
					"fontsize" : 12.0
				}

			}
, 			{
				"box" : 				{
					"maxclass" : "number",
					"format" : 4,
					"id" : "obj-29",
					"bordercolor" : [ 0.501961, 0.501961, 0.501961, 0.0 ],
					"textcolor" : [ 1.0, 1.0, 1.0, 1.0 ],
					"presentation_rect" : [ 206.0, 4.0, 52.0, 20.0 ],
					"numinlets" : 1,
					"triangle" : 0,
					"numoutlets" : 2,
					"fontname" : "Arial",
					"patching_rect" : [ 445.0, 357.0, 37.0, 20.0 ],
					"bgcolor" : [ 1.0, 1.0, 1.0, 0.0 ],
					"presentation" : 1,
					"outlettype" : [ "int", "bang" ],
					"cantchange" : 1,
					"fontsize" : 12.0
				}

			}
, 			{
				"box" : 				{
					"maxclass" : "number",
					"format" : 4,
					"id" : "obj-30",
					"bordercolor" : [ 0.501961, 0.501961, 0.501961, 0.0 ],
					"textcolor" : [ 1.0, 1.0, 1.0, 1.0 ],
					"presentation_rect" : [ 170.0, 4.0, 52.0, 20.0 ],
					"numinlets" : 1,
					"triangle" : 0,
					"numoutlets" : 2,
					"fontname" : "Arial",
					"patching_rect" : [ 407.0, 357.0, 37.0, 20.0 ],
					"bgcolor" : [ 1.0, 1.0, 1.0, 0.0 ],
					"presentation" : 1,
					"outlettype" : [ "int", "bang" ],
					"cantchange" : 1,
					"fontsize" : 12.0
				}

			}
, 			{
				"box" : 				{
					"maxclass" : "number",
					"format" : 4,
					"id" : "obj-12",
					"bordercolor" : [ 0.501961, 0.501961, 0.501961, 0.0 ],
					"textcolor" : [ 1.0, 1.0, 1.0, 1.0 ],
					"presentation_rect" : [ 136.0, 4.0, 52.0, 20.0 ],
					"numinlets" : 1,
					"triangle" : 0,
					"numoutlets" : 2,
					"fontname" : "Arial",
					"patching_rect" : [ 366.0, 357.0, 37.0, 20.0 ],
					"bgcolor" : [ 1.0, 1.0, 1.0, 0.0 ],
					"presentation" : 1,
					"outlettype" : [ "int", "bang" ],
					"cantchange" : 1,
					"fontsize" : 12.0
				}

			}
, 			{
				"box" : 				{
					"maxclass" : "number",
					"format" : 4,
					"id" : "obj-11",
					"bordercolor" : [ 0.501961, 0.501961, 0.501961, 0.0 ],
					"textcolor" : [ 1.0, 1.0, 1.0, 1.0 ],
					"presentation_rect" : [ 101.0, 4.0, 52.0, 20.0 ],
					"numinlets" : 1,
					"triangle" : 0,
					"numoutlets" : 2,
					"fontname" : "Arial",
					"patching_rect" : [ 328.0, 357.0, 37.0, 20.0 ],
					"bgcolor" : [ 1.0, 1.0, 1.0, 0.0 ],
					"presentation" : 1,
					"outlettype" : [ "int", "bang" ],
					"cantchange" : 1,
					"fontsize" : 12.0
				}

			}
, 			{
				"box" : 				{
					"maxclass" : "number",
					"format" : 4,
					"id" : "obj-6",
					"bordercolor" : [ 0.501961, 0.501961, 0.501961, 0.0 ],
					"textcolor" : [ 1.0, 1.0, 1.0, 1.0 ],
					"presentation_rect" : [ 68.0, 4.0, 52.0, 20.0 ],
					"numinlets" : 1,
					"triangle" : 0,
					"numoutlets" : 2,
					"fontname" : "Arial",
					"patching_rect" : [ 290.0, 357.0, 37.0, 20.0 ],
					"bgcolor" : [ 1.0, 1.0, 1.0, 0.0 ],
					"presentation" : 1,
					"outlettype" : [ "int", "bang" ],
					"cantchange" : 1,
					"fontsize" : 12.0
				}

			}
, 			{
				"box" : 				{
					"maxclass" : "number",
					"format" : 4,
					"id" : "obj-5",
					"bordercolor" : [ 0.501961, 0.501961, 0.501961, 0.0 ],
					"textcolor" : [ 1.0, 1.0, 1.0, 1.0 ],
					"presentation_rect" : [ 30.0, 4.0, 52.0, 20.0 ],
					"numinlets" : 1,
					"triangle" : 0,
					"numoutlets" : 2,
					"fontname" : "Arial",
					"patching_rect" : [ 252.0, 357.0, 37.0, 20.0 ],
					"bgcolor" : [ 1.0, 1.0, 1.0, 0.0 ],
					"presentation" : 1,
					"outlettype" : [ "int", "bang" ],
					"cantchange" : 1,
					"fontsize" : 12.0
				}

			}
, 			{
				"box" : 				{
					"maxclass" : "newobj",
					"text" : "- 1",
					"id" : "obj-3",
					"numinlets" : 2,
					"numoutlets" : 1,
					"fontname" : "Arial",
					"patching_rect" : [ 383.0, 217.0, 32.5, 20.0 ],
					"outlettype" : [ "int" ],
					"fontsize" : 12.0
				}

			}
, 			{
				"box" : 				{
					"maxclass" : "newobj",
					"text" : "uzi 10",
					"id" : "obj-2",
					"numinlets" : 2,
					"numoutlets" : 3,
					"fontname" : "Arial",
					"patching_rect" : [ 356.0, 148.0, 46.0, 20.0 ],
					"outlettype" : [ "bang", "bang", "int" ],
					"fontsize" : 12.0
				}

			}
, 			{
				"box" : 				{
					"maxclass" : "newobj",
					"text" : "grab 1 scale_notes",
					"id" : "obj-10",
					"numinlets" : 1,
					"numoutlets" : 1,
					"fontname" : "Arial",
					"patching_rect" : [ 383.0, 241.0, 112.0, 20.0 ],
					"outlettype" : [ "" ],
					"fontsize" : 12.0
				}

			}
, 			{
				"box" : 				{
					"maxclass" : "newobj",
					"text" : "r updateNotes",
					"id" : "obj-8",
					"numinlets" : 0,
					"numoutlets" : 1,
					"fontname" : "Arial",
					"patching_rect" : [ 356.0, 124.0, 86.0, 20.0 ],
					"outlettype" : [ "" ],
					"fontsize" : 12.0
				}

			}
, 			{
				"box" : 				{
					"maxclass" : "number",
					"format" : 4,
					"id" : "obj-51",
					"bordercolor" : [ 0.501961, 0.501961, 0.501961, 0.0 ],
					"textcolor" : [ 1.0, 1.0, 1.0, 1.0 ],
					"presentation_rect" : [ 2.0, 4.0, 35.0, 20.0 ],
					"numinlets" : 1,
					"triangle" : 0,
					"numoutlets" : 2,
					"fontname" : "Arial",
					"patching_rect" : [ 214.0, 357.0, 37.0, 20.0 ],
					"bgcolor" : [ 1.0, 1.0, 1.0, 0.0 ],
					"presentation" : 1,
					"outlettype" : [ "int", "bang" ],
					"cantchange" : 1,
					"fontsize" : 12.0
				}

			}
, 			{
				"box" : 				{
					"maxclass" : "bpatcher",
					"varname" : "step_maker_[31]",
					"id" : "obj-153",
					"presentation_rect" : [ 0.0, 650.0, 346.0, 20.0 ],
					"numinlets" : 0,
					"args" : [ 31 ],
					"hidden" : 1,
					"numoutlets" : 0,
					"name" : "step_maker.maxpat",
					"patching_rect" : [ 0.0, 620.0, 156.0, 20.0 ],
					"presentation" : 1
				}

			}
, 			{
				"box" : 				{
					"maxclass" : "bpatcher",
					"varname" : "step_maker_[30]",
					"id" : "obj-152",
					"presentation_rect" : [ 0.0, 630.0, 346.0, 20.0 ],
					"numinlets" : 0,
					"args" : [ 30 ],
					"hidden" : 1,
					"numoutlets" : 0,
					"name" : "step_maker.maxpat",
					"patching_rect" : [ 0.0, 600.0, 156.0, 20.0 ],
					"presentation" : 1
				}

			}
, 			{
				"box" : 				{
					"maxclass" : "bpatcher",
					"varname" : "step_maker_[29]",
					"id" : "obj-151",
					"presentation_rect" : [ 0.0, 610.0, 346.0, 20.0 ],
					"numinlets" : 0,
					"args" : [ 29 ],
					"hidden" : 1,
					"numoutlets" : 0,
					"name" : "step_maker.maxpat",
					"patching_rect" : [ 0.0, 580.0, 156.0, 20.0 ],
					"presentation" : 1
				}

			}
, 			{
				"box" : 				{
					"maxclass" : "bpatcher",
					"varname" : "step_maker_[28]",
					"id" : "obj-150",
					"presentation_rect" : [ 0.0, 590.0, 346.0, 20.0 ],
					"numinlets" : 0,
					"args" : [ 28 ],
					"hidden" : 1,
					"numoutlets" : 0,
					"name" : "step_maker.maxpat",
					"patching_rect" : [ 0.0, 560.0, 156.0, 20.0 ],
					"presentation" : 1
				}

			}
, 			{
				"box" : 				{
					"maxclass" : "bpatcher",
					"varname" : "step_maker_[27]",
					"id" : "obj-149",
					"presentation_rect" : [ 0.0, 570.0, 346.0, 20.0 ],
					"numinlets" : 0,
					"args" : [ 27 ],
					"hidden" : 1,
					"numoutlets" : 0,
					"name" : "step_maker.maxpat",
					"patching_rect" : [ 0.0, 540.0, 156.0, 20.0 ],
					"presentation" : 1
				}

			}
, 			{
				"box" : 				{
					"maxclass" : "bpatcher",
					"varname" : "step_maker_[26]",
					"id" : "obj-148",
					"presentation_rect" : [ 0.0, 550.0, 346.0, 20.0 ],
					"numinlets" : 0,
					"args" : [ 26 ],
					"hidden" : 1,
					"numoutlets" : 0,
					"name" : "step_maker.maxpat",
					"patching_rect" : [ 0.0, 520.0, 156.0, 20.0 ],
					"presentation" : 1
				}

			}
, 			{
				"box" : 				{
					"maxclass" : "bpatcher",
					"varname" : "step_maker_[25]",
					"id" : "obj-147",
					"presentation_rect" : [ 0.0, 530.0, 346.0, 20.0 ],
					"numinlets" : 0,
					"args" : [ 25 ],
					"hidden" : 1,
					"numoutlets" : 0,
					"name" : "step_maker.maxpat",
					"patching_rect" : [ 0.0, 500.0, 156.0, 20.0 ],
					"presentation" : 1
				}

			}
, 			{
				"box" : 				{
					"maxclass" : "bpatcher",
					"varname" : "step_maker_[24]",
					"id" : "obj-146",
					"presentation_rect" : [ 0.0, 510.0, 346.0, 20.0 ],
					"numinlets" : 0,
					"args" : [ 24 ],
					"hidden" : 1,
					"numoutlets" : 0,
					"name" : "step_maker.maxpat",
					"patching_rect" : [ 0.0, 480.0, 156.0, 20.0 ],
					"presentation" : 1
				}

			}
, 			{
				"box" : 				{
					"maxclass" : "bpatcher",
					"varname" : "step_maker_[23]",
					"id" : "obj-145",
					"presentation_rect" : [ 0.0, 490.0, 346.0, 20.0 ],
					"numinlets" : 0,
					"args" : [ 23 ],
					"hidden" : 1,
					"numoutlets" : 0,
					"name" : "step_maker.maxpat",
					"patching_rect" : [ 0.0, 460.0, 156.0, 20.0 ],
					"presentation" : 1
				}

			}
, 			{
				"box" : 				{
					"maxclass" : "bpatcher",
					"varname" : "step_maker_[22]",
					"id" : "obj-144",
					"presentation_rect" : [ 0.0, 470.0, 346.0, 20.0 ],
					"numinlets" : 0,
					"args" : [ 22 ],
					"hidden" : 1,
					"numoutlets" : 0,
					"name" : "step_maker.maxpat",
					"patching_rect" : [ 0.0, 440.0, 156.0, 20.0 ],
					"presentation" : 1
				}

			}
, 			{
				"box" : 				{
					"maxclass" : "bpatcher",
					"varname" : "step_maker_[21]",
					"id" : "obj-143",
					"presentation_rect" : [ 0.0, 450.0, 346.0, 20.0 ],
					"numinlets" : 0,
					"args" : [ 21 ],
					"hidden" : 1,
					"numoutlets" : 0,
					"name" : "step_maker.maxpat",
					"patching_rect" : [ 0.0, 420.0, 156.0, 20.0 ],
					"presentation" : 1
				}

			}
, 			{
				"box" : 				{
					"maxclass" : "bpatcher",
					"varname" : "step_maker_[20]",
					"id" : "obj-142",
					"presentation_rect" : [ 0.0, 430.0, 346.0, 20.0 ],
					"numinlets" : 0,
					"args" : [ 20 ],
					"hidden" : 1,
					"numoutlets" : 0,
					"name" : "step_maker.maxpat",
					"patching_rect" : [ 0.0, 400.0, 156.0, 20.0 ],
					"presentation" : 1
				}

			}
, 			{
				"box" : 				{
					"maxclass" : "bpatcher",
					"varname" : "step_maker_[19]",
					"id" : "obj-141",
					"presentation_rect" : [ 0.0, 410.0, 346.0, 20.0 ],
					"numinlets" : 0,
					"args" : [ 19 ],
					"hidden" : 1,
					"numoutlets" : 0,
					"name" : "step_maker.maxpat",
					"patching_rect" : [ 0.0, 380.0, 156.0, 20.0 ],
					"presentation" : 1
				}

			}
, 			{
				"box" : 				{
					"maxclass" : "bpatcher",
					"varname" : "step_maker_[18]",
					"id" : "obj-140",
					"presentation_rect" : [ 0.0, 390.0, 346.0, 20.0 ],
					"numinlets" : 0,
					"args" : [ 18 ],
					"hidden" : 1,
					"numoutlets" : 0,
					"name" : "step_maker.maxpat",
					"patching_rect" : [ 0.0, 360.0, 156.0, 20.0 ],
					"presentation" : 1
				}

			}
, 			{
				"box" : 				{
					"maxclass" : "bpatcher",
					"varname" : "step_maker_[17]",
					"id" : "obj-139",
					"presentation_rect" : [ 0.0, 370.0, 346.0, 20.0 ],
					"numinlets" : 0,
					"args" : [ 17 ],
					"hidden" : 1,
					"numoutlets" : 0,
					"name" : "step_maker.maxpat",
					"patching_rect" : [ 0.0, 340.0, 156.0, 20.0 ],
					"presentation" : 1
				}

			}
, 			{
				"box" : 				{
					"maxclass" : "bpatcher",
					"varname" : "step_maker_[16]",
					"id" : "obj-138",
					"presentation_rect" : [ 0.0, 350.0, 346.0, 20.0 ],
					"numinlets" : 0,
					"args" : [ 16 ],
					"hidden" : 1,
					"numoutlets" : 0,
					"name" : "step_maker.maxpat",
					"patching_rect" : [ 0.0, 320.0, 156.0, 20.0 ],
					"presentation" : 1
				}

			}
, 			{
				"box" : 				{
					"maxclass" : "bpatcher",
					"varname" : "step_maker_[15]",
					"id" : "obj-137",
					"presentation_rect" : [ 0.0, 330.0, 346.0, 20.0 ],
					"numinlets" : 0,
					"args" : [ 15 ],
					"numoutlets" : 0,
					"name" : "step_maker.maxpat",
					"patching_rect" : [ 0.0, 300.0, 156.0, 20.0 ],
					"presentation" : 1
				}

			}
, 			{
				"box" : 				{
					"maxclass" : "bpatcher",
					"varname" : "step_maker_[14]",
					"id" : "obj-136",
					"presentation_rect" : [ 0.0, 310.0, 346.0, 20.0 ],
					"numinlets" : 0,
					"args" : [ 14 ],
					"numoutlets" : 0,
					"name" : "step_maker.maxpat",
					"patching_rect" : [ 0.0, 280.0, 156.0, 20.0 ],
					"presentation" : 1
				}

			}
, 			{
				"box" : 				{
					"maxclass" : "bpatcher",
					"varname" : "step_maker_[13]",
					"id" : "obj-135",
					"presentation_rect" : [ 0.0, 290.0, 346.0, 20.0 ],
					"numinlets" : 0,
					"args" : [ 13 ],
					"numoutlets" : 0,
					"name" : "step_maker.maxpat",
					"patching_rect" : [ 0.0, 260.0, 156.0, 20.0 ],
					"presentation" : 1
				}

			}
, 			{
				"box" : 				{
					"maxclass" : "bpatcher",
					"varname" : "step_maker_[12]",
					"id" : "obj-134",
					"presentation_rect" : [ 0.0, 270.0, 346.0, 20.0 ],
					"numinlets" : 0,
					"args" : [ 12 ],
					"numoutlets" : 0,
					"name" : "step_maker.maxpat",
					"patching_rect" : [ 0.0, 240.0, 156.0, 20.0 ],
					"presentation" : 1
				}

			}
, 			{
				"box" : 				{
					"maxclass" : "bpatcher",
					"varname" : "step_maker_[11]",
					"id" : "obj-133",
					"presentation_rect" : [ 0.0, 250.0, 346.0, 20.0 ],
					"numinlets" : 0,
					"args" : [ 11 ],
					"numoutlets" : 0,
					"name" : "step_maker.maxpat",
					"patching_rect" : [ 0.0, 220.0, 156.0, 20.0 ],
					"presentation" : 1
				}

			}
, 			{
				"box" : 				{
					"maxclass" : "bpatcher",
					"varname" : "step_maker_[10]",
					"id" : "obj-132",
					"presentation_rect" : [ 0.0, 230.0, 346.0, 20.0 ],
					"numinlets" : 0,
					"args" : [ 10 ],
					"numoutlets" : 0,
					"name" : "step_maker.maxpat",
					"patching_rect" : [ 0.0, 200.0, 156.0, 20.0 ],
					"presentation" : 1
				}

			}
, 			{
				"box" : 				{
					"maxclass" : "bpatcher",
					"varname" : "step_maker_[9]",
					"id" : "obj-131",
					"presentation_rect" : [ 0.0, 210.0, 346.0, 20.0 ],
					"numinlets" : 0,
					"args" : [ 9 ],
					"numoutlets" : 0,
					"name" : "step_maker.maxpat",
					"patching_rect" : [ 0.0, 180.0, 156.0, 20.0 ],
					"presentation" : 1
				}

			}
, 			{
				"box" : 				{
					"maxclass" : "bpatcher",
					"varname" : "step_maker_[8]",
					"id" : "obj-130",
					"presentation_rect" : [ 0.0, 190.0, 346.0, 20.0 ],
					"numinlets" : 0,
					"args" : [ 8 ],
					"numoutlets" : 0,
					"name" : "step_maker.maxpat",
					"patching_rect" : [ 0.0, 160.0, 156.0, 20.0 ],
					"presentation" : 1
				}

			}
, 			{
				"box" : 				{
					"maxclass" : "bpatcher",
					"varname" : "step_maker_[7]",
					"id" : "obj-129",
					"presentation_rect" : [ 0.0, 170.0, 346.0, 20.0 ],
					"numinlets" : 0,
					"args" : [ 7 ],
					"numoutlets" : 0,
					"name" : "step_maker.maxpat",
					"patching_rect" : [ 0.0, 140.0, 156.0, 20.0 ],
					"presentation" : 1
				}

			}
, 			{
				"box" : 				{
					"maxclass" : "bpatcher",
					"varname" : "step_maker_[6]",
					"id" : "obj-128",
					"presentation_rect" : [ 0.0, 150.0, 346.0, 20.0 ],
					"numinlets" : 0,
					"args" : [ 6 ],
					"numoutlets" : 0,
					"name" : "step_maker.maxpat",
					"patching_rect" : [ 0.0, 120.0, 156.0, 20.0 ],
					"presentation" : 1
				}

			}
, 			{
				"box" : 				{
					"maxclass" : "bpatcher",
					"varname" : "step_maker_[5]",
					"id" : "obj-127",
					"presentation_rect" : [ 0.0, 130.0, 346.0, 20.0 ],
					"numinlets" : 0,
					"args" : [ 5 ],
					"numoutlets" : 0,
					"name" : "step_maker.maxpat",
					"patching_rect" : [ 0.0, 100.0, 156.0, 20.0 ],
					"presentation" : 1
				}

			}
, 			{
				"box" : 				{
					"maxclass" : "bpatcher",
					"varname" : "step_maker_[4]",
					"id" : "obj-126",
					"presentation_rect" : [ 0.0, 110.0, 346.0, 20.0 ],
					"numinlets" : 0,
					"args" : [ 4 ],
					"numoutlets" : 0,
					"name" : "step_maker.maxpat",
					"patching_rect" : [ 0.0, 80.0, 156.0, 20.0 ],
					"presentation" : 1
				}

			}
, 			{
				"box" : 				{
					"maxclass" : "bpatcher",
					"varname" : "step_maker_[3]",
					"id" : "obj-125",
					"presentation_rect" : [ 0.0, 90.0, 346.0, 20.0 ],
					"numinlets" : 0,
					"args" : [ 3 ],
					"numoutlets" : 0,
					"name" : "step_maker.maxpat",
					"patching_rect" : [ 0.0, 60.0, 156.0, 20.0 ],
					"presentation" : 1
				}

			}
, 			{
				"box" : 				{
					"maxclass" : "bpatcher",
					"varname" : "step_maker_[2]",
					"id" : "obj-124",
					"presentation_rect" : [ 0.0, 70.0, 346.0, 20.0 ],
					"numinlets" : 0,
					"args" : [ 2 ],
					"numoutlets" : 0,
					"name" : "step_maker.maxpat",
					"patching_rect" : [ 0.0, 40.0, 156.0, 20.0 ],
					"presentation" : 1
				}

			}
, 			{
				"box" : 				{
					"maxclass" : "bpatcher",
					"varname" : "step_maker_[1]",
					"id" : "obj-122",
					"presentation_rect" : [ 0.0, 50.0, 346.0, 20.0 ],
					"numinlets" : 0,
					"args" : [ 1 ],
					"numoutlets" : 0,
					"name" : "step_maker.maxpat",
					"patching_rect" : [ 0.0, 20.0, 156.0, 20.0 ],
					"presentation" : 1
				}

			}
, 			{
				"box" : 				{
					"maxclass" : "newobj",
					"text" : "sprintf script show step_maker_[%i]",
					"id" : "obj-86",
					"numinlets" : 1,
					"numoutlets" : 1,
					"fontname" : "Arial",
					"patching_rect" : [ 688.0, 260.0, 201.0, 20.0 ],
					"outlettype" : [ "" ],
					"fontsize" : 12.0
				}

			}
, 			{
				"box" : 				{
					"maxclass" : "newobj",
					"text" : "sprintf script hide step_maker_[%i]",
					"id" : "obj-85",
					"numinlets" : 1,
					"numoutlets" : 1,
					"fontname" : "Arial",
					"patching_rect" : [ 653.0, 282.0, 196.0, 20.0 ],
					"outlettype" : [ "" ],
					"fontsize" : 12.0
				}

			}
, 			{
				"box" : 				{
					"maxclass" : "newobj",
					"text" : "+ 1",
					"id" : "obj-84",
					"numinlets" : 2,
					"numoutlets" : 1,
					"fontname" : "Arial",
					"patching_rect" : [ 702.0, 210.0, 32.5, 20.0 ],
					"outlettype" : [ "int" ],
					"fontsize" : 12.0
				}

			}
, 			{
				"box" : 				{
					"maxclass" : "newobj",
					"text" : "gate 2 1",
					"id" : "obj-83",
					"numinlets" : 2,
					"numoutlets" : 2,
					"fontname" : "Arial",
					"patching_rect" : [ 653.0, 237.0, 54.0, 20.0 ],
					"outlettype" : [ "", "" ],
					"fontsize" : 12.0
				}

			}
, 			{
				"box" : 				{
					"maxclass" : "newobj",
					"text" : "t i i",
					"id" : "obj-82",
					"numinlets" : 1,
					"numoutlets" : 2,
					"fontname" : "Arial",
					"patching_rect" : [ 688.0, 163.0, 32.5, 20.0 ],
					"outlettype" : [ "int", "int" ],
					"fontsize" : 12.0
				}

			}
, 			{
				"box" : 				{
					"maxclass" : "newobj",
					"text" : "- 1",
					"id" : "obj-81",
					"numinlets" : 2,
					"numoutlets" : 1,
					"fontname" : "Arial",
					"patching_rect" : [ 688.0, 139.0, 32.5, 20.0 ],
					"outlettype" : [ "int" ],
					"fontsize" : 12.0
				}

			}
, 			{
				"box" : 				{
					"maxclass" : "newobj",
					"text" : "uzi 32",
					"id" : "obj-80",
					"numinlets" : 2,
					"numoutlets" : 3,
					"fontname" : "Arial",
					"patching_rect" : [ 622.0, 117.0, 85.0, 20.0 ],
					"outlettype" : [ "bang", "bang", "int" ],
					"fontsize" : 12.0
				}

			}
, 			{
				"box" : 				{
					"maxclass" : "newobj",
					"text" : "<",
					"id" : "obj-79",
					"numinlets" : 2,
					"numoutlets" : 1,
					"fontname" : "Arial",
					"patching_rect" : [ 702.0, 186.0, 32.5, 20.0 ],
					"outlettype" : [ "int" ],
					"fontsize" : 12.0
				}

			}
, 			{
				"box" : 				{
					"maxclass" : "newobj",
					"text" : "t b i",
					"id" : "obj-78",
					"numinlets" : 1,
					"numoutlets" : 2,
					"fontname" : "Arial",
					"patching_rect" : [ 622.0, 92.0, 32.5, 20.0 ],
					"outlettype" : [ "bang", "int" ],
					"fontsize" : 12.0
				}

			}
, 			{
				"box" : 				{
					"maxclass" : "newobj",
					"text" : "thispatcher",
					"id" : "obj-28",
					"numinlets" : 1,
					"numoutlets" : 2,
					"fontname" : "Arial",
					"patching_rect" : [ 653.0, 306.0, 69.0, 20.0 ],
					"outlettype" : [ "", "" ],
					"fontsize" : 12.0,
					"save" : [ "#N", "thispatcher", ";", "#Q", "end", ";" ]
				}

			}
, 			{
				"box" : 				{
					"maxclass" : "newobj",
					"text" : "grab 1 cyclinder_steps",
					"id" : "obj-27",
					"numinlets" : 1,
					"numoutlets" : 1,
					"fontname" : "Arial",
					"patching_rect" : [ 608.0, 555.0, 131.0, 20.0 ],
					"outlettype" : [ "" ],
					"fontsize" : 12.0
				}

			}
, 			{
				"box" : 				{
					"maxclass" : "newobj",
					"text" : "- 1",
					"id" : "obj-25",
					"numinlets" : 2,
					"numoutlets" : 1,
					"fontname" : "Arial",
					"patching_rect" : [ 608.0, 502.0, 32.5, 20.0 ],
					"outlettype" : [ "int" ],
					"fontsize" : 12.0
				}

			}
, 			{
				"box" : 				{
					"maxclass" : "newobj",
					"text" : "zl join",
					"id" : "obj-24",
					"numinlets" : 2,
					"numoutlets" : 2,
					"fontname" : "Arial",
					"patching_rect" : [ 608.0, 527.0, 41.0, 20.0 ],
					"outlettype" : [ "", "" ],
					"fontsize" : 12.0
				}

			}
, 			{
				"box" : 				{
					"maxclass" : "newobj",
					"text" : "uzi 10",
					"id" : "obj-22",
					"numinlets" : 2,
					"numoutlets" : 3,
					"fontname" : "Arial",
					"patching_rect" : [ 581.0, 479.0, 46.0, 20.0 ],
					"outlettype" : [ "bang", "bang", "int" ],
					"fontsize" : 12.0
				}

			}
, 			{
				"box" : 				{
					"maxclass" : "message",
					"text" : "0",
					"id" : "obj-18",
					"numinlets" : 2,
					"numoutlets" : 1,
					"fontname" : "Arial",
					"patching_rect" : [ 595.0, 417.0, 32.5, 18.0 ],
					"outlettype" : [ "" ],
					"fontsize" : 12.0
				}

			}
, 			{
				"box" : 				{
					"maxclass" : "newobj",
					"text" : "zl group",
					"id" : "obj-16",
					"numinlets" : 2,
					"numoutlets" : 2,
					"fontname" : "Arial",
					"patching_rect" : [ 595.0, 441.0, 53.0, 20.0 ],
					"outlettype" : [ "", "" ],
					"fontsize" : 12.0
				}

			}
, 			{
				"box" : 				{
					"maxclass" : "newobj",
					"text" : "uzi",
					"id" : "obj-14",
					"numinlets" : 2,
					"numoutlets" : 3,
					"fontname" : "Arial",
					"patching_rect" : [ 595.0, 392.0, 46.0, 20.0 ],
					"outlettype" : [ "bang", "bang", "int" ],
					"fontsize" : 12.0
				}

			}
, 			{
				"box" : 				{
					"maxclass" : "newobj",
					"text" : "t b i i",
					"id" : "obj-13",
					"numinlets" : 1,
					"numoutlets" : 3,
					"fontname" : "Arial",
					"patching_rect" : [ 595.0, 366.0, 72.0, 20.0 ],
					"outlettype" : [ "bang", "int", "int" ],
					"fontsize" : 12.0
				}

			}
, 			{
				"box" : 				{
					"maxclass" : "message",
					"text" : "clear",
					"id" : "obj-9",
					"numinlets" : 2,
					"numoutlets" : 1,
					"fontname" : "Arial",
					"patching_rect" : [ 608.0, 318.0, 37.0, 18.0 ],
					"outlettype" : [ "" ],
					"fontsize" : 12.0
				}

			}
, 			{
				"box" : 				{
					"maxclass" : "newobj",
					"text" : "t b i b i",
					"id" : "obj-7",
					"numinlets" : 1,
					"numoutlets" : 4,
					"fontname" : "Arial",
					"patching_rect" : [ 581.0, 70.0, 59.5, 20.0 ],
					"outlettype" : [ "bang", "int", "bang", "int" ],
					"fontsize" : 12.0
				}

			}
, 			{
				"box" : 				{
					"maxclass" : "newobj",
					"text" : "grab 1 cyclinder_steps",
					"id" : "obj-20",
					"numinlets" : 1,
					"numoutlets" : 1,
					"fontname" : "Arial",
					"patching_rect" : [ 608.0, 340.0, 131.0, 20.0 ],
					"outlettype" : [ "" ],
					"fontsize" : 12.0
				}

			}
, 			{
				"box" : 				{
					"maxclass" : "newobj",
					"text" : "r updatePieceCount",
					"id" : "obj-15",
					"numinlets" : 0,
					"numoutlets" : 1,
					"fontname" : "Arial",
					"patching_rect" : [ 581.0, 47.0, 117.0, 20.0 ],
					"outlettype" : [ "" ],
					"fontsize" : 12.0
				}

			}
, 			{
				"box" : 				{
					"maxclass" : "bpatcher",
					"varname" : "step_maker_[0]",
					"id" : "obj-1",
					"presentation_rect" : [ 0.0, 30.0, 346.0, 20.0 ],
					"numinlets" : 0,
					"args" : [ 0 ],
					"numoutlets" : 0,
					"name" : "step_maker.maxpat",
					"patching_rect" : [ 0.0, 0.0, 156.0, 20.0 ],
					"presentation" : 1
				}

			}
 ],
		"lines" : [ 			{
				"patchline" : 				{
					"source" : [ "obj-31", 0 ],
					"destination" : [ "obj-51", 0 ],
					"hidden" : 0,
					"midpoints" : [  ]
				}

			}
, 			{
				"patchline" : 				{
					"source" : [ "obj-31", 1 ],
					"destination" : [ "obj-5", 0 ],
					"hidden" : 0,
					"midpoints" : [  ]
				}

			}
, 			{
				"patchline" : 				{
					"source" : [ "obj-31", 2 ],
					"destination" : [ "obj-6", 0 ],
					"hidden" : 0,
					"midpoints" : [  ]
				}

			}
, 			{
				"patchline" : 				{
					"source" : [ "obj-31", 3 ],
					"destination" : [ "obj-11", 0 ],
					"hidden" : 0,
					"midpoints" : [  ]
				}

			}
, 			{
				"patchline" : 				{
					"source" : [ "obj-31", 4 ],
					"destination" : [ "obj-12", 0 ],
					"hidden" : 0,
					"midpoints" : [  ]
				}

			}
, 			{
				"patchline" : 				{
					"source" : [ "obj-31", 5 ],
					"destination" : [ "obj-30", 0 ],
					"hidden" : 0,
					"midpoints" : [  ]
				}

			}
, 			{
				"patchline" : 				{
					"source" : [ "obj-31", 6 ],
					"destination" : [ "obj-29", 0 ],
					"hidden" : 0,
					"midpoints" : [  ]
				}

			}
, 			{
				"patchline" : 				{
					"source" : [ "obj-31", 7 ],
					"destination" : [ "obj-26", 0 ],
					"hidden" : 0,
					"midpoints" : [  ]
				}

			}
, 			{
				"patchline" : 				{
					"source" : [ "obj-31", 8 ],
					"destination" : [ "obj-23", 0 ],
					"hidden" : 0,
					"midpoints" : [  ]
				}

			}
, 			{
				"patchline" : 				{
					"source" : [ "obj-31", 9 ],
					"destination" : [ "obj-21", 0 ],
					"hidden" : 0,
					"midpoints" : [  ]
				}

			}
, 			{
				"patchline" : 				{
					"source" : [ "obj-10", 0 ],
					"destination" : [ "obj-31", 1 ],
					"hidden" : 0,
					"midpoints" : [  ]
				}

			}
, 			{
				"patchline" : 				{
					"source" : [ "obj-32", 0 ],
					"destination" : [ "obj-3", 0 ],
					"hidden" : 0,
					"midpoints" : [  ]
				}

			}
, 			{
				"patchline" : 				{
					"source" : [ "obj-2", 2 ],
					"destination" : [ "obj-32", 0 ],
					"hidden" : 0,
					"midpoints" : [  ]
				}

			}
, 			{
				"patchline" : 				{
					"source" : [ "obj-32", 1 ],
					"destination" : [ "obj-31", 0 ],
					"hidden" : 0,
					"midpoints" : [  ]
				}

			}
, 			{
				"patchline" : 				{
					"source" : [ "obj-3", 0 ],
					"destination" : [ "obj-10", 0 ],
					"hidden" : 0,
					"midpoints" : [  ]
				}

			}
, 			{
				"patchline" : 				{
					"source" : [ "obj-8", 0 ],
					"destination" : [ "obj-2", 0 ],
					"hidden" : 0,
					"midpoints" : [  ]
				}

			}
, 			{
				"patchline" : 				{
					"source" : [ "obj-9", 0 ],
					"destination" : [ "obj-20", 0 ],
					"hidden" : 0,
					"midpoints" : [  ]
				}

			}
, 			{
				"patchline" : 				{
					"source" : [ "obj-14", 0 ],
					"destination" : [ "obj-18", 0 ],
					"hidden" : 0,
					"midpoints" : [  ]
				}

			}
, 			{
				"patchline" : 				{
					"source" : [ "obj-13", 1 ],
					"destination" : [ "obj-14", 1 ],
					"hidden" : 0,
					"midpoints" : [  ]
				}

			}
, 			{
				"patchline" : 				{
					"source" : [ "obj-13", 0 ],
					"destination" : [ "obj-14", 0 ],
					"hidden" : 0,
					"midpoints" : [  ]
				}

			}
, 			{
				"patchline" : 				{
					"source" : [ "obj-13", 2 ],
					"destination" : [ "obj-16", 1 ],
					"hidden" : 0,
					"midpoints" : [  ]
				}

			}
, 			{
				"patchline" : 				{
					"source" : [ "obj-18", 0 ],
					"destination" : [ "obj-16", 0 ],
					"hidden" : 0,
					"midpoints" : [  ]
				}

			}
, 			{
				"patchline" : 				{
					"source" : [ "obj-16", 0 ],
					"destination" : [ "obj-24", 1 ],
					"hidden" : 0,
					"midpoints" : [  ]
				}

			}
, 			{
				"patchline" : 				{
					"source" : [ "obj-22", 2 ],
					"destination" : [ "obj-25", 0 ],
					"hidden" : 0,
					"midpoints" : [  ]
				}

			}
, 			{
				"patchline" : 				{
					"source" : [ "obj-25", 0 ],
					"destination" : [ "obj-24", 0 ],
					"hidden" : 0,
					"midpoints" : [  ]
				}

			}
, 			{
				"patchline" : 				{
					"source" : [ "obj-24", 0 ],
					"destination" : [ "obj-27", 0 ],
					"hidden" : 0,
					"midpoints" : [  ]
				}

			}
, 			{
				"patchline" : 				{
					"source" : [ "obj-85", 0 ],
					"destination" : [ "obj-28", 0 ],
					"hidden" : 0,
					"midpoints" : [  ]
				}

			}
, 			{
				"patchline" : 				{
					"source" : [ "obj-83", 0 ],
					"destination" : [ "obj-85", 0 ],
					"hidden" : 0,
					"midpoints" : [  ]
				}

			}
, 			{
				"patchline" : 				{
					"source" : [ "obj-86", 0 ],
					"destination" : [ "obj-28", 0 ],
					"hidden" : 0,
					"midpoints" : [  ]
				}

			}
, 			{
				"patchline" : 				{
					"source" : [ "obj-83", 1 ],
					"destination" : [ "obj-86", 0 ],
					"hidden" : 0,
					"midpoints" : [  ]
				}

			}
, 			{
				"patchline" : 				{
					"source" : [ "obj-82", 0 ],
					"destination" : [ "obj-83", 1 ],
					"hidden" : 0,
					"midpoints" : [  ]
				}

			}
, 			{
				"patchline" : 				{
					"source" : [ "obj-84", 0 ],
					"destination" : [ "obj-83", 0 ],
					"hidden" : 0,
					"midpoints" : [ 711.5, 233.0, 662.5, 233.0 ]
				}

			}
, 			{
				"patchline" : 				{
					"source" : [ "obj-79", 0 ],
					"destination" : [ "obj-84", 0 ],
					"hidden" : 0,
					"midpoints" : [  ]
				}

			}
, 			{
				"patchline" : 				{
					"source" : [ "obj-82", 1 ],
					"destination" : [ "obj-79", 0 ],
					"hidden" : 0,
					"midpoints" : [  ]
				}

			}
, 			{
				"patchline" : 				{
					"source" : [ "obj-81", 0 ],
					"destination" : [ "obj-82", 0 ],
					"hidden" : 0,
					"midpoints" : [  ]
				}

			}
, 			{
				"patchline" : 				{
					"source" : [ "obj-80", 2 ],
					"destination" : [ "obj-81", 0 ],
					"hidden" : 0,
					"midpoints" : [  ]
				}

			}
, 			{
				"patchline" : 				{
					"source" : [ "obj-78", 0 ],
					"destination" : [ "obj-80", 0 ],
					"hidden" : 0,
					"midpoints" : [  ]
				}

			}
, 			{
				"patchline" : 				{
					"source" : [ "obj-78", 1 ],
					"destination" : [ "obj-79", 1 ],
					"hidden" : 0,
					"midpoints" : [  ]
				}

			}
, 			{
				"patchline" : 				{
					"source" : [ "obj-7", 3 ],
					"destination" : [ "obj-78", 0 ],
					"hidden" : 0,
					"midpoints" : [  ]
				}

			}
, 			{
				"patchline" : 				{
					"source" : [ "obj-15", 0 ],
					"destination" : [ "obj-7", 0 ],
					"hidden" : 0,
					"midpoints" : [  ]
				}

			}
 ]
	}

}
