{
	"patcher" : 	{
		"fileversion" : 1,
		"rect" : [ 0.0, 650.0, 346.0, 20.0 ],
		"bgcolor" : [ 1.0, 1.0, 1.0, 0.0 ],
		"bglocked" : 0,
		"defrect" : [ 0.0, 44.0, 1280.0, 726.0 ],
		"openrect" : [ 0.0, 0.0, 0.0, 0.0 ],
		"openinpresentation" : 1,
		"default_fontsize" : 12.0,
		"default_fontface" : 0,
		"default_fontname" : "Arial",
		"gridonopen" : 0,
		"gridsize" : [ 15.0, 15.0 ],
		"gridsnaponopen" : 0,
		"toolbarvisible" : 1,
		"boxanimatetime" : 200,
		"imprint" : 0,
		"enablehscroll" : 1,
		"enablevscroll" : 1,
		"devicewidth" : 0.0,
		"boxes" : [ 			{
				"box" : 				{
					"maxclass" : "newobj",
					"text" : "r refreshTable",
					"numinlets" : 0,
					"patching_rect" : [ 522.0, 387.0, 84.0, 20.0 ],
					"numoutlets" : 1,
					"id" : "obj-16",
					"outlettype" : [ "" ],
					"fontname" : "Arial",
					"fontsize" : 12.0
				}

			}
, 			{
				"box" : 				{
					"maxclass" : "newobj",
					"text" : "+ 1",
					"numinlets" : 2,
					"patching_rect" : [ 519.0, 450.0, 32.5, 20.0 ],
					"numoutlets" : 1,
					"id" : "obj-37",
					"outlettype" : [ "int" ],
					"fontname" : "Arial",
					"fontsize" : 12.0
				}

			}
, 			{
				"box" : 				{
					"maxclass" : "newobj",
					"text" : "t dump #1",
					"numinlets" : 1,
					"patching_rect" : [ 408.0, 396.0, 64.0, 20.0 ],
					"numoutlets" : 2,
					"id" : "obj-30",
					"outlettype" : [ "dump", "int" ],
					"fontname" : "Arial",
					"fontsize" : 12.0
				}

			}
, 			{
				"box" : 				{
					"maxclass" : "newobj",
					"text" : "prepend set",
					"numinlets" : 1,
					"patching_rect" : [ 408.0, 489.0, 74.0, 20.0 ],
					"numoutlets" : 1,
					"id" : "obj-155",
					"outlettype" : [ "" ],
					"fontname" : "Arial",
					"fontsize" : 12.0
				}

			}
, 			{
				"box" : 				{
					"maxclass" : "newobj",
					"text" : "gate 10",
					"numinlets" : 2,
					"patching_rect" : [ 65.0, 28.0, 1396.5, 20.0 ],
					"numoutlets" : 10,
					"id" : "obj-154",
					"outlettype" : [ "", "", "", "", "", "", "", "", "", "" ],
					"fontname" : "Arial",
					"fontsize" : 12.0
				}

			}
, 			{
				"box" : 				{
					"maxclass" : "newobj",
					"text" : "zl mth",
					"numinlets" : 2,
					"patching_rect" : [ 408.0, 467.0, 43.0, 20.0 ],
					"numoutlets" : 2,
					"id" : "obj-33",
					"outlettype" : [ "", "" ],
					"fontname" : "Arial",
					"fontsize" : 12.0
				}

			}
, 			{
				"box" : 				{
					"maxclass" : "newobj",
					"text" : "grab 2 cyclinder_steps",
					"numinlets" : 1,
					"patching_rect" : [ 408.0, 426.0, 131.0, 20.0 ],
					"numoutlets" : 2,
					"id" : "obj-21",
					"outlettype" : [ "", "" ],
					"fontname" : "Arial",
					"fontsize" : 12.0
				}

			}
, 			{
				"box" : 				{
					"maxclass" : "newobj",
					"text" : "loadbang",
					"numinlets" : 1,
					"patching_rect" : [ 408.0, 368.0, 60.0, 20.0 ],
					"numoutlets" : 1,
					"id" : "obj-17",
					"outlettype" : [ "bang" ],
					"fontname" : "Arial",
					"color" : [ 0.0, 0.0, 0.0, 1.0 ],
					"fontsize" : 12.0
				}

			}
, 			{
				"box" : 				{
					"maxclass" : "newobj",
					"text" : "s change",
					"numinlets" : 1,
					"patching_rect" : [ 3.0, 95.0, 59.0, 20.0 ],
					"numoutlets" : 0,
					"id" : "obj-13",
					"fontname" : "Arial",
					"fontsize" : 12.0
				}

			}
, 			{
				"box" : 				{
					"maxclass" : "newobj",
					"text" : "grab 1 cyclinder_steps",
					"numinlets" : 1,
					"patching_rect" : [ 1282.0, 341.0, 131.0, 20.0 ],
					"numoutlets" : 1,
					"id" : "obj-42",
					"outlettype" : [ "" ],
					"fontname" : "Arial",
					"fontsize" : 12.0
				}

			}
, 			{
				"box" : 				{
					"maxclass" : "newobj",
					"text" : "grab 1 cyclinder_steps",
					"numinlets" : 1,
					"patching_rect" : [ 1130.0, 341.0, 131.0, 20.0 ],
					"numoutlets" : 1,
					"id" : "obj-36",
					"outlettype" : [ "" ],
					"fontname" : "Arial",
					"fontsize" : 12.0
				}

			}
, 			{
				"box" : 				{
					"maxclass" : "newobj",
					"text" : "grab 1 cyclinder_steps",
					"numinlets" : 1,
					"patching_rect" : [ 978.0, 341.0, 131.0, 20.0 ],
					"numoutlets" : 1,
					"id" : "obj-31",
					"outlettype" : [ "" ],
					"fontname" : "Arial",
					"fontsize" : 12.0
				}

			}
, 			{
				"box" : 				{
					"maxclass" : "newobj",
					"text" : "grab 1 cyclinder_steps",
					"numinlets" : 1,
					"patching_rect" : [ 826.0, 341.0, 131.0, 20.0 ],
					"numoutlets" : 1,
					"id" : "obj-29",
					"outlettype" : [ "" ],
					"fontname" : "Arial",
					"fontsize" : 12.0
				}

			}
, 			{
				"box" : 				{
					"maxclass" : "newobj",
					"text" : "grab 1 cyclinder_steps",
					"numinlets" : 1,
					"patching_rect" : [ 674.0, 341.0, 131.0, 20.0 ],
					"numoutlets" : 1,
					"id" : "obj-23",
					"outlettype" : [ "" ],
					"fontname" : "Arial",
					"fontsize" : 12.0
				}

			}
, 			{
				"box" : 				{
					"maxclass" : "newobj",
					"text" : "grab 1 cyclinder_steps",
					"numinlets" : 1,
					"patching_rect" : [ 522.0, 341.0, 131.0, 20.0 ],
					"numoutlets" : 1,
					"id" : "obj-18",
					"outlettype" : [ "" ],
					"fontname" : "Arial",
					"fontsize" : 12.0
				}

			}
, 			{
				"box" : 				{
					"maxclass" : "newobj",
					"text" : "grab 1 cyclinder_steps",
					"numinlets" : 1,
					"patching_rect" : [ 371.0, 341.0, 131.0, 20.0 ],
					"numoutlets" : 1,
					"id" : "obj-15",
					"outlettype" : [ "" ],
					"fontname" : "Arial",
					"fontsize" : 12.0
				}

			}
, 			{
				"box" : 				{
					"maxclass" : "newobj",
					"text" : "grab 1 cyclinder_steps",
					"numinlets" : 1,
					"patching_rect" : [ 218.0, 341.0, 131.0, 20.0 ],
					"numoutlets" : 1,
					"id" : "obj-12",
					"outlettype" : [ "" ],
					"fontname" : "Arial",
					"fontsize" : 12.0
				}

			}
, 			{
				"box" : 				{
					"maxclass" : "newobj",
					"text" : "grab 1 cyclinder_steps",
					"numinlets" : 1,
					"patching_rect" : [ 65.0, 341.0, 131.0, 20.0 ],
					"numoutlets" : 1,
					"id" : "obj-1",
					"outlettype" : [ "" ],
					"fontname" : "Arial",
					"fontsize" : 12.0
				}

			}
, 			{
				"box" : 				{
					"maxclass" : "newobj",
					"text" : "zl join",
					"numinlets" : 2,
					"patching_rect" : [ 1434.0, 319.0, 41.0, 20.0 ],
					"numoutlets" : 2,
					"id" : "obj-128",
					"outlettype" : [ "", "" ],
					"fontname" : "Arial",
					"fontsize" : 12.0
				}

			}
, 			{
				"box" : 				{
					"maxclass" : "newobj",
					"text" : "t i i",
					"numinlets" : 1,
					"patching_rect" : [ 1434.0, 243.0, 32.5, 20.0 ],
					"numoutlets" : 2,
					"id" : "obj-129",
					"outlettype" : [ "int", "int" ],
					"fontname" : "Arial",
					"fontsize" : 12.0
				}

			}
, 			{
				"box" : 				{
					"maxclass" : "newobj",
					"text" : "grab 1 cyclinder_steps",
					"numinlets" : 1,
					"patching_rect" : [ 1434.0, 341.0, 131.0, 20.0 ],
					"numoutlets" : 1,
					"id" : "obj-130",
					"outlettype" : [ "" ],
					"fontname" : "Arial",
					"fontsize" : 12.0
				}

			}
, 			{
				"box" : 				{
					"maxclass" : "newobj",
					"text" : "zl join",
					"numinlets" : 2,
					"patching_rect" : [ 1448.0, 197.0, 41.0, 20.0 ],
					"numoutlets" : 2,
					"id" : "obj-131",
					"outlettype" : [ "", "" ],
					"fontname" : "Arial",
					"fontsize" : 12.0
				}

			}
, 			{
				"box" : 				{
					"maxclass" : "newobj",
					"text" : "t b i",
					"numinlets" : 1,
					"patching_rect" : [ 1448.0, 100.0, 32.5, 20.0 ],
					"numoutlets" : 2,
					"id" : "obj-132",
					"outlettype" : [ "bang", "int" ],
					"fontname" : "Arial",
					"fontsize" : 12.0
				}

			}
, 			{
				"box" : 				{
					"maxclass" : "newobj",
					"text" : "+ 1",
					"numinlets" : 2,
					"patching_rect" : [ 1448.0, 174.0, 32.5, 20.0 ],
					"numoutlets" : 1,
					"id" : "obj-133",
					"outlettype" : [ "int" ],
					"fontname" : "Arial",
					"fontsize" : 12.0
				}

			}
, 			{
				"box" : 				{
					"maxclass" : "newobj",
					"text" : "zl nth",
					"numinlets" : 2,
					"patching_rect" : [ 1448.0, 289.0, 39.0, 20.0 ],
					"numoutlets" : 2,
					"id" : "obj-134",
					"outlettype" : [ "", "" ],
					"fontname" : "Arial",
					"fontsize" : 12.0
				}

			}
, 			{
				"box" : 				{
					"maxclass" : "message",
					"text" : "9",
					"numinlets" : 2,
					"patching_rect" : [ 1434.0, 217.0, 32.5, 18.0 ],
					"numoutlets" : 1,
					"id" : "obj-135",
					"outlettype" : [ "" ],
					"fontname" : "Arial",
					"fontsize" : 12.0
				}

			}
, 			{
				"box" : 				{
					"maxclass" : "newobj",
					"text" : "t b i",
					"numinlets" : 1,
					"patching_rect" : [ 1434.0, 78.0, 32.5, 20.0 ],
					"numoutlets" : 2,
					"id" : "obj-136",
					"outlettype" : [ "bang", "int" ],
					"fontname" : "Arial",
					"fontsize" : 12.0
				}

			}
, 			{
				"box" : 				{
					"maxclass" : "newobj",
					"text" : "grab 1 cyclinder_steps",
					"numinlets" : 1,
					"patching_rect" : [ 1448.0, 267.0, 131.0, 20.0 ],
					"numoutlets" : 1,
					"id" : "obj-137",
					"outlettype" : [ "" ],
					"fontname" : "Arial",
					"fontsize" : 12.0
				}

			}
, 			{
				"box" : 				{
					"maxclass" : "message",
					"text" : "#1",
					"numinlets" : 2,
					"patching_rect" : [ 1448.0, 153.0, 32.5, 18.0 ],
					"numoutlets" : 1,
					"id" : "obj-138",
					"outlettype" : [ "" ],
					"fontname" : "Arial",
					"fontsize" : 12.0
				}

			}
, 			{
				"box" : 				{
					"maxclass" : "newobj",
					"text" : "zl join",
					"numinlets" : 2,
					"patching_rect" : [ 1282.0, 319.0, 41.0, 20.0 ],
					"numoutlets" : 2,
					"id" : "obj-117",
					"outlettype" : [ "", "" ],
					"fontname" : "Arial",
					"fontsize" : 12.0
				}

			}
, 			{
				"box" : 				{
					"maxclass" : "newobj",
					"text" : "t i i",
					"numinlets" : 1,
					"patching_rect" : [ 1282.0, 243.0, 32.5, 20.0 ],
					"numoutlets" : 2,
					"id" : "obj-118",
					"outlettype" : [ "int", "int" ],
					"fontname" : "Arial",
					"fontsize" : 12.0
				}

			}
, 			{
				"box" : 				{
					"maxclass" : "newobj",
					"text" : "zl join",
					"numinlets" : 2,
					"patching_rect" : [ 1296.0, 194.0, 41.0, 20.0 ],
					"numoutlets" : 2,
					"id" : "obj-120",
					"outlettype" : [ "", "" ],
					"fontname" : "Arial",
					"fontsize" : 12.0
				}

			}
, 			{
				"box" : 				{
					"maxclass" : "newobj",
					"text" : "t b i",
					"numinlets" : 1,
					"patching_rect" : [ 1296.0, 100.0, 32.5, 20.0 ],
					"numoutlets" : 2,
					"id" : "obj-121",
					"outlettype" : [ "bang", "int" ],
					"fontname" : "Arial",
					"fontsize" : 12.0
				}

			}
, 			{
				"box" : 				{
					"maxclass" : "newobj",
					"text" : "+ 1",
					"numinlets" : 2,
					"patching_rect" : [ 1296.0, 171.0, 32.5, 20.0 ],
					"numoutlets" : 1,
					"id" : "obj-122",
					"outlettype" : [ "int" ],
					"fontname" : "Arial",
					"fontsize" : 12.0
				}

			}
, 			{
				"box" : 				{
					"maxclass" : "newobj",
					"text" : "zl nth",
					"numinlets" : 2,
					"patching_rect" : [ 1296.0, 289.0, 39.0, 20.0 ],
					"numoutlets" : 2,
					"id" : "obj-123",
					"outlettype" : [ "", "" ],
					"fontname" : "Arial",
					"fontsize" : 12.0
				}

			}
, 			{
				"box" : 				{
					"maxclass" : "message",
					"text" : "8",
					"numinlets" : 2,
					"patching_rect" : [ 1282.0, 217.0, 32.5, 18.0 ],
					"numoutlets" : 1,
					"id" : "obj-124",
					"outlettype" : [ "" ],
					"fontname" : "Arial",
					"fontsize" : 12.0
				}

			}
, 			{
				"box" : 				{
					"maxclass" : "newobj",
					"text" : "t b i",
					"numinlets" : 1,
					"patching_rect" : [ 1282.0, 78.0, 32.5, 20.0 ],
					"numoutlets" : 2,
					"id" : "obj-125",
					"outlettype" : [ "bang", "int" ],
					"fontname" : "Arial",
					"fontsize" : 12.0
				}

			}
, 			{
				"box" : 				{
					"maxclass" : "newobj",
					"text" : "grab 1 cyclinder_steps",
					"numinlets" : 1,
					"patching_rect" : [ 1296.0, 267.0, 131.0, 20.0 ],
					"numoutlets" : 1,
					"id" : "obj-126",
					"outlettype" : [ "" ],
					"fontname" : "Arial",
					"fontsize" : 12.0
				}

			}
, 			{
				"box" : 				{
					"maxclass" : "message",
					"text" : "#1",
					"numinlets" : 2,
					"patching_rect" : [ 1296.0, 150.0, 32.5, 18.0 ],
					"numoutlets" : 1,
					"id" : "obj-127",
					"outlettype" : [ "" ],
					"fontname" : "Arial",
					"fontsize" : 12.0
				}

			}
, 			{
				"box" : 				{
					"maxclass" : "newobj",
					"text" : "zl join",
					"numinlets" : 2,
					"patching_rect" : [ 1130.0, 319.0, 41.0, 20.0 ],
					"numoutlets" : 2,
					"id" : "obj-106",
					"outlettype" : [ "", "" ],
					"fontname" : "Arial",
					"fontsize" : 12.0
				}

			}
, 			{
				"box" : 				{
					"maxclass" : "newobj",
					"text" : "t i i",
					"numinlets" : 1,
					"patching_rect" : [ 1130.0, 243.0, 32.5, 20.0 ],
					"numoutlets" : 2,
					"id" : "obj-107",
					"outlettype" : [ "int", "int" ],
					"fontname" : "Arial",
					"fontsize" : 12.0
				}

			}
, 			{
				"box" : 				{
					"maxclass" : "newobj",
					"text" : "zl join",
					"numinlets" : 2,
					"patching_rect" : [ 1144.0, 191.0, 41.0, 20.0 ],
					"numoutlets" : 2,
					"id" : "obj-109",
					"outlettype" : [ "", "" ],
					"fontname" : "Arial",
					"fontsize" : 12.0
				}

			}
, 			{
				"box" : 				{
					"maxclass" : "newobj",
					"text" : "t b i",
					"numinlets" : 1,
					"patching_rect" : [ 1144.0, 100.0, 32.5, 20.0 ],
					"numoutlets" : 2,
					"id" : "obj-110",
					"outlettype" : [ "bang", "int" ],
					"fontname" : "Arial",
					"fontsize" : 12.0
				}

			}
, 			{
				"box" : 				{
					"maxclass" : "newobj",
					"text" : "+ 1",
					"numinlets" : 2,
					"patching_rect" : [ 1144.0, 168.0, 32.5, 20.0 ],
					"numoutlets" : 1,
					"id" : "obj-111",
					"outlettype" : [ "int" ],
					"fontname" : "Arial",
					"fontsize" : 12.0
				}

			}
, 			{
				"box" : 				{
					"maxclass" : "newobj",
					"text" : "zl nth",
					"numinlets" : 2,
					"patching_rect" : [ 1144.0, 289.0, 39.0, 20.0 ],
					"numoutlets" : 2,
					"id" : "obj-112",
					"outlettype" : [ "", "" ],
					"fontname" : "Arial",
					"fontsize" : 12.0
				}

			}
, 			{
				"box" : 				{
					"maxclass" : "message",
					"text" : "7",
					"numinlets" : 2,
					"patching_rect" : [ 1130.0, 217.0, 32.5, 18.0 ],
					"numoutlets" : 1,
					"id" : "obj-113",
					"outlettype" : [ "" ],
					"fontname" : "Arial",
					"fontsize" : 12.0
				}

			}
, 			{
				"box" : 				{
					"maxclass" : "newobj",
					"text" : "t b i",
					"numinlets" : 1,
					"patching_rect" : [ 1130.0, 78.0, 32.5, 20.0 ],
					"numoutlets" : 2,
					"id" : "obj-114",
					"outlettype" : [ "bang", "int" ],
					"fontname" : "Arial",
					"fontsize" : 12.0
				}

			}
, 			{
				"box" : 				{
					"maxclass" : "newobj",
					"text" : "grab 1 cyclinder_steps",
					"numinlets" : 1,
					"patching_rect" : [ 1144.0, 267.0, 131.0, 20.0 ],
					"numoutlets" : 1,
					"id" : "obj-115",
					"outlettype" : [ "" ],
					"fontname" : "Arial",
					"fontsize" : 12.0
				}

			}
, 			{
				"box" : 				{
					"maxclass" : "message",
					"text" : "#1",
					"numinlets" : 2,
					"patching_rect" : [ 1144.0, 147.0, 32.5, 18.0 ],
					"numoutlets" : 1,
					"id" : "obj-116",
					"outlettype" : [ "" ],
					"fontname" : "Arial",
					"fontsize" : 12.0
				}

			}
, 			{
				"box" : 				{
					"maxclass" : "newobj",
					"text" : "zl join",
					"numinlets" : 2,
					"patching_rect" : [ 978.0, 319.0, 41.0, 20.0 ],
					"numoutlets" : 2,
					"id" : "obj-95",
					"outlettype" : [ "", "" ],
					"fontname" : "Arial",
					"fontsize" : 12.0
				}

			}
, 			{
				"box" : 				{
					"maxclass" : "newobj",
					"text" : "t i i",
					"numinlets" : 1,
					"patching_rect" : [ 978.0, 243.0, 32.5, 20.0 ],
					"numoutlets" : 2,
					"id" : "obj-96",
					"outlettype" : [ "int", "int" ],
					"fontname" : "Arial",
					"fontsize" : 12.0
				}

			}
, 			{
				"box" : 				{
					"maxclass" : "newobj",
					"text" : "zl join",
					"numinlets" : 2,
					"patching_rect" : [ 992.0, 188.0, 41.0, 20.0 ],
					"numoutlets" : 2,
					"id" : "obj-98",
					"outlettype" : [ "", "" ],
					"fontname" : "Arial",
					"fontsize" : 12.0
				}

			}
, 			{
				"box" : 				{
					"maxclass" : "newobj",
					"text" : "t b i",
					"numinlets" : 1,
					"patching_rect" : [ 992.0, 100.0, 32.5, 20.0 ],
					"numoutlets" : 2,
					"id" : "obj-99",
					"outlettype" : [ "bang", "int" ],
					"fontname" : "Arial",
					"fontsize" : 12.0
				}

			}
, 			{
				"box" : 				{
					"maxclass" : "newobj",
					"text" : "+ 1",
					"numinlets" : 2,
					"patching_rect" : [ 992.0, 165.0, 32.5, 20.0 ],
					"numoutlets" : 1,
					"id" : "obj-100",
					"outlettype" : [ "int" ],
					"fontname" : "Arial",
					"fontsize" : 12.0
				}

			}
, 			{
				"box" : 				{
					"maxclass" : "newobj",
					"text" : "zl nth",
					"numinlets" : 2,
					"patching_rect" : [ 992.0, 289.0, 39.0, 20.0 ],
					"numoutlets" : 2,
					"id" : "obj-101",
					"outlettype" : [ "", "" ],
					"fontname" : "Arial",
					"fontsize" : 12.0
				}

			}
, 			{
				"box" : 				{
					"maxclass" : "message",
					"text" : "6",
					"numinlets" : 2,
					"patching_rect" : [ 978.0, 217.0, 32.5, 18.0 ],
					"numoutlets" : 1,
					"id" : "obj-102",
					"outlettype" : [ "" ],
					"fontname" : "Arial",
					"fontsize" : 12.0
				}

			}
, 			{
				"box" : 				{
					"maxclass" : "newobj",
					"text" : "t b i",
					"numinlets" : 1,
					"patching_rect" : [ 978.0, 78.0, 32.5, 20.0 ],
					"numoutlets" : 2,
					"id" : "obj-103",
					"outlettype" : [ "bang", "int" ],
					"fontname" : "Arial",
					"fontsize" : 12.0
				}

			}
, 			{
				"box" : 				{
					"maxclass" : "newobj",
					"text" : "grab 1 cyclinder_steps",
					"numinlets" : 1,
					"patching_rect" : [ 992.0, 267.0, 131.0, 20.0 ],
					"numoutlets" : 1,
					"id" : "obj-104",
					"outlettype" : [ "" ],
					"fontname" : "Arial",
					"fontsize" : 12.0
				}

			}
, 			{
				"box" : 				{
					"maxclass" : "message",
					"text" : "#1",
					"numinlets" : 2,
					"patching_rect" : [ 992.0, 144.0, 32.5, 18.0 ],
					"numoutlets" : 1,
					"id" : "obj-105",
					"outlettype" : [ "" ],
					"fontname" : "Arial",
					"fontsize" : 12.0
				}

			}
, 			{
				"box" : 				{
					"maxclass" : "newobj",
					"text" : "zl join",
					"numinlets" : 2,
					"patching_rect" : [ 826.0, 319.0, 41.0, 20.0 ],
					"numoutlets" : 2,
					"id" : "obj-84",
					"outlettype" : [ "", "" ],
					"fontname" : "Arial",
					"fontsize" : 12.0
				}

			}
, 			{
				"box" : 				{
					"maxclass" : "newobj",
					"text" : "t i i",
					"numinlets" : 1,
					"patching_rect" : [ 826.0, 243.0, 32.5, 20.0 ],
					"numoutlets" : 2,
					"id" : "obj-85",
					"outlettype" : [ "int", "int" ],
					"fontname" : "Arial",
					"fontsize" : 12.0
				}

			}
, 			{
				"box" : 				{
					"maxclass" : "newobj",
					"text" : "zl join",
					"numinlets" : 2,
					"patching_rect" : [ 840.0, 185.0, 41.0, 20.0 ],
					"numoutlets" : 2,
					"id" : "obj-87",
					"outlettype" : [ "", "" ],
					"fontname" : "Arial",
					"fontsize" : 12.0
				}

			}
, 			{
				"box" : 				{
					"maxclass" : "newobj",
					"text" : "t b i",
					"numinlets" : 1,
					"patching_rect" : [ 840.0, 100.0, 32.5, 20.0 ],
					"numoutlets" : 2,
					"id" : "obj-88",
					"outlettype" : [ "bang", "int" ],
					"fontname" : "Arial",
					"fontsize" : 12.0
				}

			}
, 			{
				"box" : 				{
					"maxclass" : "newobj",
					"text" : "+ 1",
					"numinlets" : 2,
					"patching_rect" : [ 840.0, 162.0, 32.5, 20.0 ],
					"numoutlets" : 1,
					"id" : "obj-89",
					"outlettype" : [ "int" ],
					"fontname" : "Arial",
					"fontsize" : 12.0
				}

			}
, 			{
				"box" : 				{
					"maxclass" : "newobj",
					"text" : "zl nth",
					"numinlets" : 2,
					"patching_rect" : [ 840.0, 289.0, 39.0, 20.0 ],
					"numoutlets" : 2,
					"id" : "obj-90",
					"outlettype" : [ "", "" ],
					"fontname" : "Arial",
					"fontsize" : 12.0
				}

			}
, 			{
				"box" : 				{
					"maxclass" : "message",
					"text" : "5",
					"numinlets" : 2,
					"patching_rect" : [ 826.0, 217.0, 32.5, 18.0 ],
					"numoutlets" : 1,
					"id" : "obj-91",
					"outlettype" : [ "" ],
					"fontname" : "Arial",
					"fontsize" : 12.0
				}

			}
, 			{
				"box" : 				{
					"maxclass" : "newobj",
					"text" : "t b i",
					"numinlets" : 1,
					"patching_rect" : [ 826.0, 78.0, 32.5, 20.0 ],
					"numoutlets" : 2,
					"id" : "obj-92",
					"outlettype" : [ "bang", "int" ],
					"fontname" : "Arial",
					"fontsize" : 12.0
				}

			}
, 			{
				"box" : 				{
					"maxclass" : "newobj",
					"text" : "grab 1 cyclinder_steps",
					"numinlets" : 1,
					"patching_rect" : [ 840.0, 267.0, 131.0, 20.0 ],
					"numoutlets" : 1,
					"id" : "obj-93",
					"outlettype" : [ "" ],
					"fontname" : "Arial",
					"fontsize" : 12.0
				}

			}
, 			{
				"box" : 				{
					"maxclass" : "message",
					"text" : "#1",
					"numinlets" : 2,
					"patching_rect" : [ 840.0, 141.0, 32.5, 18.0 ],
					"numoutlets" : 1,
					"id" : "obj-94",
					"outlettype" : [ "" ],
					"fontname" : "Arial",
					"fontsize" : 12.0
				}

			}
, 			{
				"box" : 				{
					"maxclass" : "newobj",
					"text" : "zl join",
					"numinlets" : 2,
					"patching_rect" : [ 674.0, 319.0, 41.0, 20.0 ],
					"numoutlets" : 2,
					"id" : "obj-73",
					"outlettype" : [ "", "" ],
					"fontname" : "Arial",
					"fontsize" : 12.0
				}

			}
, 			{
				"box" : 				{
					"maxclass" : "newobj",
					"text" : "t i i",
					"numinlets" : 1,
					"patching_rect" : [ 674.0, 243.0, 32.5, 20.0 ],
					"numoutlets" : 2,
					"id" : "obj-74",
					"outlettype" : [ "int", "int" ],
					"fontname" : "Arial",
					"fontsize" : 12.0
				}

			}
, 			{
				"box" : 				{
					"maxclass" : "newobj",
					"text" : "zl join",
					"numinlets" : 2,
					"patching_rect" : [ 688.0, 182.0, 41.0, 20.0 ],
					"numoutlets" : 2,
					"id" : "obj-76",
					"outlettype" : [ "", "" ],
					"fontname" : "Arial",
					"fontsize" : 12.0
				}

			}
, 			{
				"box" : 				{
					"maxclass" : "newobj",
					"text" : "t b i",
					"numinlets" : 1,
					"patching_rect" : [ 688.0, 100.0, 32.5, 20.0 ],
					"numoutlets" : 2,
					"id" : "obj-77",
					"outlettype" : [ "bang", "int" ],
					"fontname" : "Arial",
					"fontsize" : 12.0
				}

			}
, 			{
				"box" : 				{
					"maxclass" : "newobj",
					"text" : "+ 1",
					"numinlets" : 2,
					"patching_rect" : [ 688.0, 159.0, 32.5, 20.0 ],
					"numoutlets" : 1,
					"id" : "obj-78",
					"outlettype" : [ "int" ],
					"fontname" : "Arial",
					"fontsize" : 12.0
				}

			}
, 			{
				"box" : 				{
					"maxclass" : "newobj",
					"text" : "zl nth",
					"numinlets" : 2,
					"patching_rect" : [ 688.0, 289.0, 39.0, 20.0 ],
					"numoutlets" : 2,
					"id" : "obj-79",
					"outlettype" : [ "", "" ],
					"fontname" : "Arial",
					"fontsize" : 12.0
				}

			}
, 			{
				"box" : 				{
					"maxclass" : "message",
					"text" : "4",
					"numinlets" : 2,
					"patching_rect" : [ 674.0, 217.0, 32.5, 18.0 ],
					"numoutlets" : 1,
					"id" : "obj-80",
					"outlettype" : [ "" ],
					"fontname" : "Arial",
					"fontsize" : 12.0
				}

			}
, 			{
				"box" : 				{
					"maxclass" : "newobj",
					"text" : "t b i",
					"numinlets" : 1,
					"patching_rect" : [ 674.0, 78.0, 32.5, 20.0 ],
					"numoutlets" : 2,
					"id" : "obj-81",
					"outlettype" : [ "bang", "int" ],
					"fontname" : "Arial",
					"fontsize" : 12.0
				}

			}
, 			{
				"box" : 				{
					"maxclass" : "newobj",
					"text" : "grab 1 cyclinder_steps",
					"numinlets" : 1,
					"patching_rect" : [ 688.0, 267.0, 131.0, 20.0 ],
					"numoutlets" : 1,
					"id" : "obj-82",
					"outlettype" : [ "" ],
					"fontname" : "Arial",
					"fontsize" : 12.0
				}

			}
, 			{
				"box" : 				{
					"maxclass" : "message",
					"text" : "#1",
					"numinlets" : 2,
					"patching_rect" : [ 688.0, 138.0, 32.5, 18.0 ],
					"numoutlets" : 1,
					"id" : "obj-83",
					"outlettype" : [ "" ],
					"fontname" : "Arial",
					"fontsize" : 12.0
				}

			}
, 			{
				"box" : 				{
					"maxclass" : "newobj",
					"text" : "zl join",
					"numinlets" : 2,
					"patching_rect" : [ 522.0, 319.0, 41.0, 20.0 ],
					"numoutlets" : 2,
					"id" : "obj-62",
					"outlettype" : [ "", "" ],
					"fontname" : "Arial",
					"fontsize" : 12.0
				}

			}
, 			{
				"box" : 				{
					"maxclass" : "newobj",
					"text" : "t i i",
					"numinlets" : 1,
					"patching_rect" : [ 522.0, 243.0, 32.5, 20.0 ],
					"numoutlets" : 2,
					"id" : "obj-63",
					"outlettype" : [ "int", "int" ],
					"fontname" : "Arial",
					"fontsize" : 12.0
				}

			}
, 			{
				"box" : 				{
					"maxclass" : "newobj",
					"text" : "zl join",
					"numinlets" : 2,
					"patching_rect" : [ 536.0, 179.0, 41.0, 20.0 ],
					"numoutlets" : 2,
					"id" : "obj-65",
					"outlettype" : [ "", "" ],
					"fontname" : "Arial",
					"fontsize" : 12.0
				}

			}
, 			{
				"box" : 				{
					"maxclass" : "newobj",
					"text" : "t b i",
					"numinlets" : 1,
					"patching_rect" : [ 536.0, 100.0, 32.5, 20.0 ],
					"numoutlets" : 2,
					"id" : "obj-66",
					"outlettype" : [ "bang", "int" ],
					"fontname" : "Arial",
					"fontsize" : 12.0
				}

			}
, 			{
				"box" : 				{
					"maxclass" : "newobj",
					"text" : "+ 1",
					"numinlets" : 2,
					"patching_rect" : [ 536.0, 156.0, 32.5, 20.0 ],
					"numoutlets" : 1,
					"id" : "obj-67",
					"outlettype" : [ "int" ],
					"fontname" : "Arial",
					"fontsize" : 12.0
				}

			}
, 			{
				"box" : 				{
					"maxclass" : "newobj",
					"text" : "zl nth",
					"numinlets" : 2,
					"patching_rect" : [ 536.0, 289.0, 39.0, 20.0 ],
					"numoutlets" : 2,
					"id" : "obj-68",
					"outlettype" : [ "", "" ],
					"fontname" : "Arial",
					"fontsize" : 12.0
				}

			}
, 			{
				"box" : 				{
					"maxclass" : "message",
					"text" : "3",
					"numinlets" : 2,
					"patching_rect" : [ 522.0, 217.0, 32.5, 18.0 ],
					"numoutlets" : 1,
					"id" : "obj-69",
					"outlettype" : [ "" ],
					"fontname" : "Arial",
					"fontsize" : 12.0
				}

			}
, 			{
				"box" : 				{
					"maxclass" : "newobj",
					"text" : "t b i",
					"numinlets" : 1,
					"patching_rect" : [ 522.0, 78.0, 32.5, 20.0 ],
					"numoutlets" : 2,
					"id" : "obj-70",
					"outlettype" : [ "bang", "int" ],
					"fontname" : "Arial",
					"fontsize" : 12.0
				}

			}
, 			{
				"box" : 				{
					"maxclass" : "newobj",
					"text" : "grab 1 cyclinder_steps",
					"numinlets" : 1,
					"patching_rect" : [ 536.0, 267.0, 131.0, 20.0 ],
					"numoutlets" : 1,
					"id" : "obj-71",
					"outlettype" : [ "" ],
					"fontname" : "Arial",
					"fontsize" : 12.0
				}

			}
, 			{
				"box" : 				{
					"maxclass" : "message",
					"text" : "#1",
					"numinlets" : 2,
					"patching_rect" : [ 536.0, 135.0, 32.5, 18.0 ],
					"numoutlets" : 1,
					"id" : "obj-72",
					"outlettype" : [ "" ],
					"fontname" : "Arial",
					"fontsize" : 12.0
				}

			}
, 			{
				"box" : 				{
					"maxclass" : "newobj",
					"text" : "zl join",
					"numinlets" : 2,
					"patching_rect" : [ 371.0, 319.0, 41.0, 20.0 ],
					"numoutlets" : 2,
					"id" : "obj-51",
					"outlettype" : [ "", "" ],
					"fontname" : "Arial",
					"fontsize" : 12.0
				}

			}
, 			{
				"box" : 				{
					"maxclass" : "newobj",
					"text" : "t i i",
					"numinlets" : 1,
					"patching_rect" : [ 371.0, 243.0, 32.5, 20.0 ],
					"numoutlets" : 2,
					"id" : "obj-52",
					"outlettype" : [ "int", "int" ],
					"fontname" : "Arial",
					"fontsize" : 12.0
				}

			}
, 			{
				"box" : 				{
					"maxclass" : "newobj",
					"text" : "zl join",
					"numinlets" : 2,
					"patching_rect" : [ 384.0, 176.0, 41.0, 20.0 ],
					"numoutlets" : 2,
					"id" : "obj-54",
					"outlettype" : [ "", "" ],
					"fontname" : "Arial",
					"fontsize" : 12.0
				}

			}
, 			{
				"box" : 				{
					"maxclass" : "newobj",
					"text" : "t b i",
					"numinlets" : 1,
					"patching_rect" : [ 384.0, 100.0, 32.5, 20.0 ],
					"numoutlets" : 2,
					"id" : "obj-55",
					"outlettype" : [ "bang", "int" ],
					"fontname" : "Arial",
					"fontsize" : 12.0
				}

			}
, 			{
				"box" : 				{
					"maxclass" : "newobj",
					"text" : "+ 1",
					"numinlets" : 2,
					"patching_rect" : [ 384.0, 153.0, 32.5, 20.0 ],
					"numoutlets" : 1,
					"id" : "obj-56",
					"outlettype" : [ "int" ],
					"fontname" : "Arial",
					"fontsize" : 12.0
				}

			}
, 			{
				"box" : 				{
					"maxclass" : "newobj",
					"text" : "zl nth",
					"numinlets" : 2,
					"patching_rect" : [ 384.0, 289.0, 39.0, 20.0 ],
					"numoutlets" : 2,
					"id" : "obj-57",
					"outlettype" : [ "", "" ],
					"fontname" : "Arial",
					"fontsize" : 12.0
				}

			}
, 			{
				"box" : 				{
					"maxclass" : "message",
					"text" : "2",
					"numinlets" : 2,
					"patching_rect" : [ 371.0, 217.0, 32.5, 18.0 ],
					"numoutlets" : 1,
					"id" : "obj-58",
					"outlettype" : [ "" ],
					"fontname" : "Arial",
					"fontsize" : 12.0
				}

			}
, 			{
				"box" : 				{
					"maxclass" : "newobj",
					"text" : "t b i",
					"numinlets" : 1,
					"patching_rect" : [ 371.0, 78.0, 32.5, 20.0 ],
					"numoutlets" : 2,
					"id" : "obj-59",
					"outlettype" : [ "bang", "int" ],
					"fontname" : "Arial",
					"fontsize" : 12.0
				}

			}
, 			{
				"box" : 				{
					"maxclass" : "newobj",
					"text" : "grab 1 cyclinder_steps",
					"numinlets" : 1,
					"patching_rect" : [ 384.0, 267.0, 131.0, 20.0 ],
					"numoutlets" : 1,
					"id" : "obj-60",
					"outlettype" : [ "" ],
					"fontname" : "Arial",
					"fontsize" : 12.0
				}

			}
, 			{
				"box" : 				{
					"maxclass" : "message",
					"text" : "#1",
					"numinlets" : 2,
					"patching_rect" : [ 384.0, 132.0, 32.5, 18.0 ],
					"numoutlets" : 1,
					"id" : "obj-61",
					"outlettype" : [ "" ],
					"fontname" : "Arial",
					"fontsize" : 12.0
				}

			}
, 			{
				"box" : 				{
					"maxclass" : "newobj",
					"text" : "zl join",
					"numinlets" : 2,
					"patching_rect" : [ 218.0, 319.0, 41.0, 20.0 ],
					"numoutlets" : 2,
					"id" : "obj-40",
					"outlettype" : [ "", "" ],
					"fontname" : "Arial",
					"fontsize" : 12.0
				}

			}
, 			{
				"box" : 				{
					"maxclass" : "newobj",
					"text" : "t i i",
					"numinlets" : 1,
					"patching_rect" : [ 218.0, 243.0, 32.5, 20.0 ],
					"numoutlets" : 2,
					"id" : "obj-41",
					"outlettype" : [ "int", "int" ],
					"fontname" : "Arial",
					"fontsize" : 12.0
				}

			}
, 			{
				"box" : 				{
					"maxclass" : "newobj",
					"text" : "zl join",
					"numinlets" : 2,
					"patching_rect" : [ 232.0, 173.0, 41.0, 20.0 ],
					"numoutlets" : 2,
					"id" : "obj-43",
					"outlettype" : [ "", "" ],
					"fontname" : "Arial",
					"fontsize" : 12.0
				}

			}
, 			{
				"box" : 				{
					"maxclass" : "newobj",
					"text" : "t b i",
					"numinlets" : 1,
					"patching_rect" : [ 232.0, 100.0, 32.5, 20.0 ],
					"numoutlets" : 2,
					"id" : "obj-44",
					"outlettype" : [ "bang", "int" ],
					"fontname" : "Arial",
					"fontsize" : 12.0
				}

			}
, 			{
				"box" : 				{
					"maxclass" : "newobj",
					"text" : "+ 1",
					"numinlets" : 2,
					"patching_rect" : [ 232.0, 150.0, 32.5, 20.0 ],
					"numoutlets" : 1,
					"id" : "obj-45",
					"outlettype" : [ "int" ],
					"fontname" : "Arial",
					"fontsize" : 12.0
				}

			}
, 			{
				"box" : 				{
					"maxclass" : "newobj",
					"text" : "zl nth",
					"numinlets" : 2,
					"patching_rect" : [ 232.0, 289.0, 39.0, 20.0 ],
					"numoutlets" : 2,
					"id" : "obj-46",
					"outlettype" : [ "", "" ],
					"fontname" : "Arial",
					"fontsize" : 12.0
				}

			}
, 			{
				"box" : 				{
					"maxclass" : "message",
					"text" : "1",
					"numinlets" : 2,
					"patching_rect" : [ 218.0, 217.0, 32.5, 18.0 ],
					"numoutlets" : 1,
					"id" : "obj-47",
					"outlettype" : [ "" ],
					"fontname" : "Arial",
					"fontsize" : 12.0
				}

			}
, 			{
				"box" : 				{
					"maxclass" : "newobj",
					"text" : "t b i",
					"numinlets" : 1,
					"patching_rect" : [ 218.0, 78.0, 32.5, 20.0 ],
					"numoutlets" : 2,
					"id" : "obj-48",
					"outlettype" : [ "bang", "int" ],
					"fontname" : "Arial",
					"fontsize" : 12.0
				}

			}
, 			{
				"box" : 				{
					"maxclass" : "newobj",
					"text" : "grab 1 cyclinder_steps",
					"numinlets" : 1,
					"patching_rect" : [ 232.0, 267.0, 131.0, 20.0 ],
					"numoutlets" : 1,
					"id" : "obj-49",
					"outlettype" : [ "" ],
					"fontname" : "Arial",
					"fontsize" : 12.0
				}

			}
, 			{
				"box" : 				{
					"maxclass" : "message",
					"text" : "#1",
					"numinlets" : 2,
					"patching_rect" : [ 232.0, 129.0, 32.5, 18.0 ],
					"numoutlets" : 1,
					"id" : "obj-50",
					"outlettype" : [ "" ],
					"fontname" : "Arial",
					"fontsize" : 12.0
				}

			}
, 			{
				"box" : 				{
					"maxclass" : "comment",
					"text" : "Which step?",
					"numinlets" : 1,
					"patching_rect" : [ 145.0, 395.0, 150.0, 20.0 ],
					"numoutlets" : 0,
					"id" : "obj-38",
					"fontname" : "Arial",
					"fontsize" : 12.0
				}

			}
, 			{
				"box" : 				{
					"maxclass" : "message",
					"text" : "#1",
					"numinlets" : 2,
					"patching_rect" : [ 104.0, 395.0, 32.5, 18.0 ],
					"numoutlets" : 1,
					"id" : "obj-39",
					"outlettype" : [ "" ],
					"fontname" : "Arial",
					"fontsize" : 12.0
				}

			}
, 			{
				"box" : 				{
					"maxclass" : "newobj",
					"text" : "zl join",
					"numinlets" : 2,
					"patching_rect" : [ 65.0, 319.0, 41.0, 20.0 ],
					"numoutlets" : 2,
					"id" : "obj-35",
					"outlettype" : [ "", "" ],
					"fontname" : "Arial",
					"fontsize" : 12.0
				}

			}
, 			{
				"box" : 				{
					"maxclass" : "newobj",
					"text" : "t i i",
					"numinlets" : 1,
					"patching_rect" : [ 65.0, 243.0, 32.5, 20.0 ],
					"numoutlets" : 2,
					"id" : "obj-34",
					"outlettype" : [ "int", "int" ],
					"fontname" : "Arial",
					"fontsize" : 12.0
				}

			}
, 			{
				"box" : 				{
					"maxclass" : "newobj",
					"text" : "zl join",
					"numinlets" : 2,
					"patching_rect" : [ 79.0, 167.0, 41.0, 20.0 ],
					"numoutlets" : 2,
					"id" : "obj-28",
					"outlettype" : [ "", "" ],
					"fontname" : "Arial",
					"fontsize" : 12.0
				}

			}
, 			{
				"box" : 				{
					"maxclass" : "newobj",
					"text" : "t b i",
					"numinlets" : 1,
					"patching_rect" : [ 79.0, 100.0, 32.5, 20.0 ],
					"numoutlets" : 2,
					"id" : "obj-27",
					"outlettype" : [ "bang", "int" ],
					"fontname" : "Arial",
					"fontsize" : 12.0
				}

			}
, 			{
				"box" : 				{
					"maxclass" : "newobj",
					"text" : "+ 1",
					"numinlets" : 2,
					"patching_rect" : [ 79.0, 144.0, 32.5, 20.0 ],
					"numoutlets" : 1,
					"id" : "obj-26",
					"outlettype" : [ "int" ],
					"fontname" : "Arial",
					"fontsize" : 12.0
				}

			}
, 			{
				"box" : 				{
					"maxclass" : "newobj",
					"text" : "zl nth",
					"numinlets" : 2,
					"patching_rect" : [ 79.0, 289.0, 39.0, 20.0 ],
					"numoutlets" : 2,
					"id" : "obj-25",
					"outlettype" : [ "", "" ],
					"fontname" : "Arial",
					"fontsize" : 12.0
				}

			}
, 			{
				"box" : 				{
					"maxclass" : "message",
					"text" : "0",
					"numinlets" : 2,
					"patching_rect" : [ 66.0, 217.0, 32.5, 18.0 ],
					"numoutlets" : 1,
					"id" : "obj-22",
					"outlettype" : [ "" ],
					"fontname" : "Arial",
					"fontsize" : 12.0
				}

			}
, 			{
				"box" : 				{
					"maxclass" : "newobj",
					"text" : "t b i",
					"numinlets" : 1,
					"patching_rect" : [ 65.0, 78.0, 32.5, 20.0 ],
					"numoutlets" : 2,
					"id" : "obj-19",
					"outlettype" : [ "bang", "int" ],
					"fontname" : "Arial",
					"fontsize" : 12.0
				}

			}
, 			{
				"box" : 				{
					"maxclass" : "newobj",
					"text" : "grab 1 cyclinder_steps",
					"numinlets" : 1,
					"patching_rect" : [ 79.0, 267.0, 131.0, 20.0 ],
					"numoutlets" : 1,
					"id" : "obj-20",
					"outlettype" : [ "" ],
					"fontname" : "Arial",
					"fontsize" : 12.0
				}

			}
, 			{
				"box" : 				{
					"maxclass" : "message",
					"text" : "#1",
					"numinlets" : 2,
					"patching_rect" : [ 79.0, 123.0, 32.5, 18.0 ],
					"numoutlets" : 1,
					"id" : "obj-14",
					"outlettype" : [ "" ],
					"fontname" : "Arial",
					"fontsize" : 12.0
				}

			}
, 			{
				"box" : 				{
					"maxclass" : "toggle",
					"numinlets" : 1,
					"patching_rect" : [ 1435.0, 54.0, 20.0, 20.0 ],
					"presentation" : 1,
					"numoutlets" : 1,
					"id" : "obj-11",
					"outlettype" : [ "int" ],
					"presentation_rect" : [ 313.641327, 0.206672, 20.778502, 20.778502 ],
					"bordercolor" : [ 0.360784, 0.360784, 0.360784, 1.0 ]
				}

			}
, 			{
				"box" : 				{
					"maxclass" : "toggle",
					"numinlets" : 1,
					"patching_rect" : [ 1277.0, 54.0, 20.0, 20.0 ],
					"presentation" : 1,
					"numoutlets" : 1,
					"id" : "obj-10",
					"outlettype" : [ "int" ],
					"presentation_rect" : [ 279.062103, 0.206672, 20.778502, 20.778502 ],
					"bordercolor" : [ 0.360784, 0.360784, 0.360784, 1.0 ]
				}

			}
, 			{
				"box" : 				{
					"maxclass" : "toggle",
					"numinlets" : 1,
					"patching_rect" : [ 1131.0, 54.0, 20.0, 20.0 ],
					"presentation" : 1,
					"numoutlets" : 1,
					"id" : "obj-9",
					"outlettype" : [ "int" ],
					"presentation_rect" : [ 244.482864, 0.206672, 20.778502, 20.778502 ],
					"bordercolor" : [ 0.360784, 0.360784, 0.360784, 1.0 ]
				}

			}
, 			{
				"box" : 				{
					"maxclass" : "toggle",
					"numinlets" : 1,
					"patching_rect" : [ 980.0, 54.0, 20.0, 20.0 ],
					"presentation" : 1,
					"numoutlets" : 1,
					"id" : "obj-8",
					"outlettype" : [ "int" ],
					"presentation_rect" : [ 208.704376, 0.206672, 20.778502, 20.778502 ],
					"bordercolor" : [ 0.360784, 0.360784, 0.360784, 1.0 ]
				}

			}
, 			{
				"box" : 				{
					"maxclass" : "toggle",
					"numinlets" : 1,
					"patching_rect" : [ 823.0, 54.0, 20.0, 20.0 ],
					"presentation" : 1,
					"numoutlets" : 1,
					"id" : "obj-7",
					"outlettype" : [ "int" ],
					"presentation_rect" : [ 173.125122, 0.206672, 20.778502, 20.778502 ],
					"bordercolor" : [ 0.360784, 0.360784, 0.360784, 1.0 ]
				}

			}
, 			{
				"box" : 				{
					"maxclass" : "toggle",
					"numinlets" : 1,
					"patching_rect" : [ 674.0, 54.0, 20.0, 20.0 ],
					"presentation" : 1,
					"numoutlets" : 1,
					"id" : "obj-6",
					"outlettype" : [ "int" ],
					"presentation_rect" : [ 138.519928, 0.206672, 20.778502, 20.778502 ],
					"bordercolor" : [ 0.360784, 0.360784, 0.360784, 1.0 ]
				}

			}
, 			{
				"box" : 				{
					"maxclass" : "toggle",
					"numinlets" : 1,
					"patching_rect" : [ 520.0, 54.0, 20.0, 20.0 ],
					"presentation" : 1,
					"numoutlets" : 1,
					"id" : "obj-5",
					"outlettype" : [ "int" ],
					"presentation_rect" : [ 103.940689, 0.206672, 20.778502, 20.778502 ],
					"bordercolor" : [ 0.360784, 0.360784, 0.360784, 1.0 ]
				}

			}
, 			{
				"box" : 				{
					"maxclass" : "toggle",
					"numinlets" : 1,
					"patching_rect" : [ 371.0, 54.0, 20.0, 20.0 ],
					"presentation" : 1,
					"numoutlets" : 1,
					"id" : "obj-4",
					"outlettype" : [ "int" ],
					"presentation_rect" : [ 69.568115, 0.206672, 20.778502, 20.778502 ],
					"bordercolor" : [ 0.360784, 0.360784, 0.360784, 1.0 ]
				}

			}
, 			{
				"box" : 				{
					"maxclass" : "toggle",
					"numinlets" : 1,
					"patching_rect" : [ 218.0, 54.0, 20.0, 20.0 ],
					"presentation" : 1,
					"numoutlets" : 1,
					"id" : "obj-3",
					"outlettype" : [ "int" ],
					"presentation_rect" : [ 35.0, 0.206672, 20.778502, 20.778502 ],
					"bordercolor" : [ 0.360784, 0.360784, 0.360784, 1.0 ]
				}

			}
, 			{
				"box" : 				{
					"maxclass" : "toggle",
					"numinlets" : 1,
					"patching_rect" : [ 65.0, 54.0, 20.0, 20.0 ],
					"presentation" : 1,
					"numoutlets" : 1,
					"id" : "obj-2",
					"outlettype" : [ "int" ],
					"presentation_rect" : [ 1.206672, 0.206672, 20.0, 20.0 ],
					"bordercolor" : [ 0.360784, 0.360784, 0.360784, 1.0 ]
				}

			}
 ],
		"lines" : [ 			{
				"patchline" : 				{
					"source" : [ "obj-33", 0 ],
					"destination" : [ "obj-155", 0 ],
					"hidden" : 0,
					"midpoints" : [  ]
				}

			}
, 			{
				"patchline" : 				{
					"source" : [ "obj-37", 0 ],
					"destination" : [ "obj-154", 0 ],
					"hidden" : 0,
					"midpoints" : [  ]
				}

			}
, 			{
				"patchline" : 				{
					"source" : [ "obj-21", 1 ],
					"destination" : [ "obj-37", 0 ],
					"hidden" : 0,
					"midpoints" : [  ]
				}

			}
, 			{
				"patchline" : 				{
					"source" : [ "obj-30", 1 ],
					"destination" : [ "obj-33", 1 ],
					"hidden" : 0,
					"midpoints" : [  ]
				}

			}
, 			{
				"patchline" : 				{
					"source" : [ "obj-30", 0 ],
					"destination" : [ "obj-21", 0 ],
					"hidden" : 0,
					"midpoints" : [  ]
				}

			}
, 			{
				"patchline" : 				{
					"source" : [ "obj-17", 0 ],
					"destination" : [ "obj-30", 0 ],
					"hidden" : 0,
					"midpoints" : [  ]
				}

			}
, 			{
				"patchline" : 				{
					"source" : [ "obj-154", 9 ],
					"destination" : [ "obj-11", 0 ],
					"hidden" : 0,
					"midpoints" : [  ]
				}

			}
, 			{
				"patchline" : 				{
					"source" : [ "obj-154", 8 ],
					"destination" : [ "obj-10", 0 ],
					"hidden" : 0,
					"midpoints" : [  ]
				}

			}
, 			{
				"patchline" : 				{
					"source" : [ "obj-154", 7 ],
					"destination" : [ "obj-9", 0 ],
					"hidden" : 0,
					"midpoints" : [  ]
				}

			}
, 			{
				"patchline" : 				{
					"source" : [ "obj-154", 6 ],
					"destination" : [ "obj-8", 0 ],
					"hidden" : 0,
					"midpoints" : [  ]
				}

			}
, 			{
				"patchline" : 				{
					"source" : [ "obj-154", 5 ],
					"destination" : [ "obj-7", 0 ],
					"hidden" : 0,
					"midpoints" : [  ]
				}

			}
, 			{
				"patchline" : 				{
					"source" : [ "obj-154", 4 ],
					"destination" : [ "obj-6", 0 ],
					"hidden" : 0,
					"midpoints" : [  ]
				}

			}
, 			{
				"patchline" : 				{
					"source" : [ "obj-154", 3 ],
					"destination" : [ "obj-5", 0 ],
					"hidden" : 0,
					"midpoints" : [  ]
				}

			}
, 			{
				"patchline" : 				{
					"source" : [ "obj-154", 2 ],
					"destination" : [ "obj-4", 0 ],
					"hidden" : 0,
					"midpoints" : [  ]
				}

			}
, 			{
				"patchline" : 				{
					"source" : [ "obj-154", 1 ],
					"destination" : [ "obj-3", 0 ],
					"hidden" : 0,
					"midpoints" : [  ]
				}

			}
, 			{
				"patchline" : 				{
					"source" : [ "obj-154", 0 ],
					"destination" : [ "obj-2", 0 ],
					"hidden" : 0,
					"midpoints" : [  ]
				}

			}
, 			{
				"patchline" : 				{
					"source" : [ "obj-155", 0 ],
					"destination" : [ "obj-154", 1 ],
					"hidden" : 0,
					"midpoints" : [  ]
				}

			}
, 			{
				"patchline" : 				{
					"source" : [ "obj-11", 0 ],
					"destination" : [ "obj-136", 0 ],
					"hidden" : 0,
					"midpoints" : [  ]
				}

			}
, 			{
				"patchline" : 				{
					"source" : [ "obj-10", 0 ],
					"destination" : [ "obj-125", 0 ],
					"hidden" : 0,
					"midpoints" : [  ]
				}

			}
, 			{
				"patchline" : 				{
					"source" : [ "obj-9", 0 ],
					"destination" : [ "obj-114", 0 ],
					"hidden" : 0,
					"midpoints" : [  ]
				}

			}
, 			{
				"patchline" : 				{
					"source" : [ "obj-8", 0 ],
					"destination" : [ "obj-103", 0 ],
					"hidden" : 0,
					"midpoints" : [  ]
				}

			}
, 			{
				"patchline" : 				{
					"source" : [ "obj-7", 0 ],
					"destination" : [ "obj-92", 0 ],
					"hidden" : 0,
					"midpoints" : [  ]
				}

			}
, 			{
				"patchline" : 				{
					"source" : [ "obj-6", 0 ],
					"destination" : [ "obj-81", 0 ],
					"hidden" : 0,
					"midpoints" : [  ]
				}

			}
, 			{
				"patchline" : 				{
					"source" : [ "obj-5", 0 ],
					"destination" : [ "obj-70", 0 ],
					"hidden" : 0,
					"midpoints" : [  ]
				}

			}
, 			{
				"patchline" : 				{
					"source" : [ "obj-4", 0 ],
					"destination" : [ "obj-59", 0 ],
					"hidden" : 0,
					"midpoints" : [  ]
				}

			}
, 			{
				"patchline" : 				{
					"source" : [ "obj-3", 0 ],
					"destination" : [ "obj-48", 0 ],
					"hidden" : 0,
					"midpoints" : [  ]
				}

			}
, 			{
				"patchline" : 				{
					"source" : [ "obj-138", 0 ],
					"destination" : [ "obj-133", 0 ],
					"hidden" : 0,
					"midpoints" : [  ]
				}

			}
, 			{
				"patchline" : 				{
					"source" : [ "obj-132", 0 ],
					"destination" : [ "obj-138", 0 ],
					"hidden" : 0,
					"midpoints" : [  ]
				}

			}
, 			{
				"patchline" : 				{
					"source" : [ "obj-132", 1 ],
					"destination" : [ "obj-131", 1 ],
					"hidden" : 0,
					"midpoints" : [  ]
				}

			}
, 			{
				"patchline" : 				{
					"source" : [ "obj-133", 0 ],
					"destination" : [ "obj-131", 0 ],
					"hidden" : 0,
					"midpoints" : [  ]
				}

			}
, 			{
				"patchline" : 				{
					"source" : [ "obj-131", 0 ],
					"destination" : [ "obj-134", 1 ],
					"hidden" : 0,
					"midpoints" : [  ]
				}

			}
, 			{
				"patchline" : 				{
					"source" : [ "obj-136", 1 ],
					"destination" : [ "obj-132", 0 ],
					"hidden" : 0,
					"midpoints" : [  ]
				}

			}
, 			{
				"patchline" : 				{
					"source" : [ "obj-136", 0 ],
					"destination" : [ "obj-135", 0 ],
					"hidden" : 0,
					"midpoints" : [  ]
				}

			}
, 			{
				"patchline" : 				{
					"source" : [ "obj-137", 0 ],
					"destination" : [ "obj-134", 0 ],
					"hidden" : 0,
					"midpoints" : [  ]
				}

			}
, 			{
				"patchline" : 				{
					"source" : [ "obj-135", 0 ],
					"destination" : [ "obj-129", 0 ],
					"hidden" : 0,
					"midpoints" : [  ]
				}

			}
, 			{
				"patchline" : 				{
					"source" : [ "obj-129", 1 ],
					"destination" : [ "obj-137", 0 ],
					"hidden" : 0,
					"midpoints" : [  ]
				}

			}
, 			{
				"patchline" : 				{
					"source" : [ "obj-129", 0 ],
					"destination" : [ "obj-128", 0 ],
					"hidden" : 0,
					"midpoints" : [  ]
				}

			}
, 			{
				"patchline" : 				{
					"source" : [ "obj-134", 1 ],
					"destination" : [ "obj-128", 1 ],
					"hidden" : 0,
					"midpoints" : [  ]
				}

			}
, 			{
				"patchline" : 				{
					"source" : [ "obj-128", 0 ],
					"destination" : [ "obj-130", 0 ],
					"hidden" : 0,
					"midpoints" : [  ]
				}

			}
, 			{
				"patchline" : 				{
					"source" : [ "obj-123", 1 ],
					"destination" : [ "obj-117", 1 ],
					"hidden" : 0,
					"midpoints" : [  ]
				}

			}
, 			{
				"patchline" : 				{
					"source" : [ "obj-118", 0 ],
					"destination" : [ "obj-117", 0 ],
					"hidden" : 0,
					"midpoints" : [  ]
				}

			}
, 			{
				"patchline" : 				{
					"source" : [ "obj-118", 1 ],
					"destination" : [ "obj-126", 0 ],
					"hidden" : 0,
					"midpoints" : [  ]
				}

			}
, 			{
				"patchline" : 				{
					"source" : [ "obj-124", 0 ],
					"destination" : [ "obj-118", 0 ],
					"hidden" : 0,
					"midpoints" : [  ]
				}

			}
, 			{
				"patchline" : 				{
					"source" : [ "obj-126", 0 ],
					"destination" : [ "obj-123", 0 ],
					"hidden" : 0,
					"midpoints" : [  ]
				}

			}
, 			{
				"patchline" : 				{
					"source" : [ "obj-125", 0 ],
					"destination" : [ "obj-124", 0 ],
					"hidden" : 0,
					"midpoints" : [  ]
				}

			}
, 			{
				"patchline" : 				{
					"source" : [ "obj-125", 1 ],
					"destination" : [ "obj-121", 0 ],
					"hidden" : 0,
					"midpoints" : [  ]
				}

			}
, 			{
				"patchline" : 				{
					"source" : [ "obj-120", 0 ],
					"destination" : [ "obj-123", 1 ],
					"hidden" : 0,
					"midpoints" : [  ]
				}

			}
, 			{
				"patchline" : 				{
					"source" : [ "obj-122", 0 ],
					"destination" : [ "obj-120", 0 ],
					"hidden" : 0,
					"midpoints" : [  ]
				}

			}
, 			{
				"patchline" : 				{
					"source" : [ "obj-121", 1 ],
					"destination" : [ "obj-120", 1 ],
					"hidden" : 0,
					"midpoints" : [  ]
				}

			}
, 			{
				"patchline" : 				{
					"source" : [ "obj-121", 0 ],
					"destination" : [ "obj-127", 0 ],
					"hidden" : 0,
					"midpoints" : [  ]
				}

			}
, 			{
				"patchline" : 				{
					"source" : [ "obj-127", 0 ],
					"destination" : [ "obj-122", 0 ],
					"hidden" : 0,
					"midpoints" : [  ]
				}

			}
, 			{
				"patchline" : 				{
					"source" : [ "obj-116", 0 ],
					"destination" : [ "obj-111", 0 ],
					"hidden" : 0,
					"midpoints" : [  ]
				}

			}
, 			{
				"patchline" : 				{
					"source" : [ "obj-110", 0 ],
					"destination" : [ "obj-116", 0 ],
					"hidden" : 0,
					"midpoints" : [  ]
				}

			}
, 			{
				"patchline" : 				{
					"source" : [ "obj-110", 1 ],
					"destination" : [ "obj-109", 1 ],
					"hidden" : 0,
					"midpoints" : [  ]
				}

			}
, 			{
				"patchline" : 				{
					"source" : [ "obj-111", 0 ],
					"destination" : [ "obj-109", 0 ],
					"hidden" : 0,
					"midpoints" : [  ]
				}

			}
, 			{
				"patchline" : 				{
					"source" : [ "obj-109", 0 ],
					"destination" : [ "obj-112", 1 ],
					"hidden" : 0,
					"midpoints" : [  ]
				}

			}
, 			{
				"patchline" : 				{
					"source" : [ "obj-114", 1 ],
					"destination" : [ "obj-110", 0 ],
					"hidden" : 0,
					"midpoints" : [  ]
				}

			}
, 			{
				"patchline" : 				{
					"source" : [ "obj-114", 0 ],
					"destination" : [ "obj-113", 0 ],
					"hidden" : 0,
					"midpoints" : [  ]
				}

			}
, 			{
				"patchline" : 				{
					"source" : [ "obj-115", 0 ],
					"destination" : [ "obj-112", 0 ],
					"hidden" : 0,
					"midpoints" : [  ]
				}

			}
, 			{
				"patchline" : 				{
					"source" : [ "obj-113", 0 ],
					"destination" : [ "obj-107", 0 ],
					"hidden" : 0,
					"midpoints" : [  ]
				}

			}
, 			{
				"patchline" : 				{
					"source" : [ "obj-107", 1 ],
					"destination" : [ "obj-115", 0 ],
					"hidden" : 0,
					"midpoints" : [  ]
				}

			}
, 			{
				"patchline" : 				{
					"source" : [ "obj-107", 0 ],
					"destination" : [ "obj-106", 0 ],
					"hidden" : 0,
					"midpoints" : [  ]
				}

			}
, 			{
				"patchline" : 				{
					"source" : [ "obj-112", 1 ],
					"destination" : [ "obj-106", 1 ],
					"hidden" : 0,
					"midpoints" : [  ]
				}

			}
, 			{
				"patchline" : 				{
					"source" : [ "obj-101", 1 ],
					"destination" : [ "obj-95", 1 ],
					"hidden" : 0,
					"midpoints" : [  ]
				}

			}
, 			{
				"patchline" : 				{
					"source" : [ "obj-96", 0 ],
					"destination" : [ "obj-95", 0 ],
					"hidden" : 0,
					"midpoints" : [  ]
				}

			}
, 			{
				"patchline" : 				{
					"source" : [ "obj-96", 1 ],
					"destination" : [ "obj-104", 0 ],
					"hidden" : 0,
					"midpoints" : [  ]
				}

			}
, 			{
				"patchline" : 				{
					"source" : [ "obj-102", 0 ],
					"destination" : [ "obj-96", 0 ],
					"hidden" : 0,
					"midpoints" : [  ]
				}

			}
, 			{
				"patchline" : 				{
					"source" : [ "obj-104", 0 ],
					"destination" : [ "obj-101", 0 ],
					"hidden" : 0,
					"midpoints" : [  ]
				}

			}
, 			{
				"patchline" : 				{
					"source" : [ "obj-103", 0 ],
					"destination" : [ "obj-102", 0 ],
					"hidden" : 0,
					"midpoints" : [  ]
				}

			}
, 			{
				"patchline" : 				{
					"source" : [ "obj-103", 1 ],
					"destination" : [ "obj-99", 0 ],
					"hidden" : 0,
					"midpoints" : [  ]
				}

			}
, 			{
				"patchline" : 				{
					"source" : [ "obj-98", 0 ],
					"destination" : [ "obj-101", 1 ],
					"hidden" : 0,
					"midpoints" : [  ]
				}

			}
, 			{
				"patchline" : 				{
					"source" : [ "obj-100", 0 ],
					"destination" : [ "obj-98", 0 ],
					"hidden" : 0,
					"midpoints" : [  ]
				}

			}
, 			{
				"patchline" : 				{
					"source" : [ "obj-99", 1 ],
					"destination" : [ "obj-98", 1 ],
					"hidden" : 0,
					"midpoints" : [  ]
				}

			}
, 			{
				"patchline" : 				{
					"source" : [ "obj-99", 0 ],
					"destination" : [ "obj-105", 0 ],
					"hidden" : 0,
					"midpoints" : [  ]
				}

			}
, 			{
				"patchline" : 				{
					"source" : [ "obj-105", 0 ],
					"destination" : [ "obj-100", 0 ],
					"hidden" : 0,
					"midpoints" : [  ]
				}

			}
, 			{
				"patchline" : 				{
					"source" : [ "obj-94", 0 ],
					"destination" : [ "obj-89", 0 ],
					"hidden" : 0,
					"midpoints" : [  ]
				}

			}
, 			{
				"patchline" : 				{
					"source" : [ "obj-88", 0 ],
					"destination" : [ "obj-94", 0 ],
					"hidden" : 0,
					"midpoints" : [  ]
				}

			}
, 			{
				"patchline" : 				{
					"source" : [ "obj-88", 1 ],
					"destination" : [ "obj-87", 1 ],
					"hidden" : 0,
					"midpoints" : [  ]
				}

			}
, 			{
				"patchline" : 				{
					"source" : [ "obj-89", 0 ],
					"destination" : [ "obj-87", 0 ],
					"hidden" : 0,
					"midpoints" : [  ]
				}

			}
, 			{
				"patchline" : 				{
					"source" : [ "obj-87", 0 ],
					"destination" : [ "obj-90", 1 ],
					"hidden" : 0,
					"midpoints" : [  ]
				}

			}
, 			{
				"patchline" : 				{
					"source" : [ "obj-92", 1 ],
					"destination" : [ "obj-88", 0 ],
					"hidden" : 0,
					"midpoints" : [  ]
				}

			}
, 			{
				"patchline" : 				{
					"source" : [ "obj-92", 0 ],
					"destination" : [ "obj-91", 0 ],
					"hidden" : 0,
					"midpoints" : [  ]
				}

			}
, 			{
				"patchline" : 				{
					"source" : [ "obj-93", 0 ],
					"destination" : [ "obj-90", 0 ],
					"hidden" : 0,
					"midpoints" : [  ]
				}

			}
, 			{
				"patchline" : 				{
					"source" : [ "obj-91", 0 ],
					"destination" : [ "obj-85", 0 ],
					"hidden" : 0,
					"midpoints" : [  ]
				}

			}
, 			{
				"patchline" : 				{
					"source" : [ "obj-85", 1 ],
					"destination" : [ "obj-93", 0 ],
					"hidden" : 0,
					"midpoints" : [  ]
				}

			}
, 			{
				"patchline" : 				{
					"source" : [ "obj-85", 0 ],
					"destination" : [ "obj-84", 0 ],
					"hidden" : 0,
					"midpoints" : [  ]
				}

			}
, 			{
				"patchline" : 				{
					"source" : [ "obj-90", 1 ],
					"destination" : [ "obj-84", 1 ],
					"hidden" : 0,
					"midpoints" : [  ]
				}

			}
, 			{
				"patchline" : 				{
					"source" : [ "obj-79", 1 ],
					"destination" : [ "obj-73", 1 ],
					"hidden" : 0,
					"midpoints" : [  ]
				}

			}
, 			{
				"patchline" : 				{
					"source" : [ "obj-74", 0 ],
					"destination" : [ "obj-73", 0 ],
					"hidden" : 0,
					"midpoints" : [  ]
				}

			}
, 			{
				"patchline" : 				{
					"source" : [ "obj-74", 1 ],
					"destination" : [ "obj-82", 0 ],
					"hidden" : 0,
					"midpoints" : [  ]
				}

			}
, 			{
				"patchline" : 				{
					"source" : [ "obj-80", 0 ],
					"destination" : [ "obj-74", 0 ],
					"hidden" : 0,
					"midpoints" : [  ]
				}

			}
, 			{
				"patchline" : 				{
					"source" : [ "obj-82", 0 ],
					"destination" : [ "obj-79", 0 ],
					"hidden" : 0,
					"midpoints" : [  ]
				}

			}
, 			{
				"patchline" : 				{
					"source" : [ "obj-81", 0 ],
					"destination" : [ "obj-80", 0 ],
					"hidden" : 0,
					"midpoints" : [  ]
				}

			}
, 			{
				"patchline" : 				{
					"source" : [ "obj-81", 1 ],
					"destination" : [ "obj-77", 0 ],
					"hidden" : 0,
					"midpoints" : [  ]
				}

			}
, 			{
				"patchline" : 				{
					"source" : [ "obj-76", 0 ],
					"destination" : [ "obj-79", 1 ],
					"hidden" : 0,
					"midpoints" : [  ]
				}

			}
, 			{
				"patchline" : 				{
					"source" : [ "obj-78", 0 ],
					"destination" : [ "obj-76", 0 ],
					"hidden" : 0,
					"midpoints" : [  ]
				}

			}
, 			{
				"patchline" : 				{
					"source" : [ "obj-77", 1 ],
					"destination" : [ "obj-76", 1 ],
					"hidden" : 0,
					"midpoints" : [  ]
				}

			}
, 			{
				"patchline" : 				{
					"source" : [ "obj-77", 0 ],
					"destination" : [ "obj-83", 0 ],
					"hidden" : 0,
					"midpoints" : [  ]
				}

			}
, 			{
				"patchline" : 				{
					"source" : [ "obj-83", 0 ],
					"destination" : [ "obj-78", 0 ],
					"hidden" : 0,
					"midpoints" : [  ]
				}

			}
, 			{
				"patchline" : 				{
					"source" : [ "obj-72", 0 ],
					"destination" : [ "obj-67", 0 ],
					"hidden" : 0,
					"midpoints" : [  ]
				}

			}
, 			{
				"patchline" : 				{
					"source" : [ "obj-66", 0 ],
					"destination" : [ "obj-72", 0 ],
					"hidden" : 0,
					"midpoints" : [  ]
				}

			}
, 			{
				"patchline" : 				{
					"source" : [ "obj-66", 1 ],
					"destination" : [ "obj-65", 1 ],
					"hidden" : 0,
					"midpoints" : [  ]
				}

			}
, 			{
				"patchline" : 				{
					"source" : [ "obj-67", 0 ],
					"destination" : [ "obj-65", 0 ],
					"hidden" : 0,
					"midpoints" : [  ]
				}

			}
, 			{
				"patchline" : 				{
					"source" : [ "obj-65", 0 ],
					"destination" : [ "obj-68", 1 ],
					"hidden" : 0,
					"midpoints" : [  ]
				}

			}
, 			{
				"patchline" : 				{
					"source" : [ "obj-70", 1 ],
					"destination" : [ "obj-66", 0 ],
					"hidden" : 0,
					"midpoints" : [  ]
				}

			}
, 			{
				"patchline" : 				{
					"source" : [ "obj-70", 0 ],
					"destination" : [ "obj-69", 0 ],
					"hidden" : 0,
					"midpoints" : [  ]
				}

			}
, 			{
				"patchline" : 				{
					"source" : [ "obj-71", 0 ],
					"destination" : [ "obj-68", 0 ],
					"hidden" : 0,
					"midpoints" : [  ]
				}

			}
, 			{
				"patchline" : 				{
					"source" : [ "obj-69", 0 ],
					"destination" : [ "obj-63", 0 ],
					"hidden" : 0,
					"midpoints" : [  ]
				}

			}
, 			{
				"patchline" : 				{
					"source" : [ "obj-63", 1 ],
					"destination" : [ "obj-71", 0 ],
					"hidden" : 0,
					"midpoints" : [  ]
				}

			}
, 			{
				"patchline" : 				{
					"source" : [ "obj-63", 0 ],
					"destination" : [ "obj-62", 0 ],
					"hidden" : 0,
					"midpoints" : [  ]
				}

			}
, 			{
				"patchline" : 				{
					"source" : [ "obj-68", 1 ],
					"destination" : [ "obj-62", 1 ],
					"hidden" : 0,
					"midpoints" : [  ]
				}

			}
, 			{
				"patchline" : 				{
					"source" : [ "obj-57", 1 ],
					"destination" : [ "obj-51", 1 ],
					"hidden" : 0,
					"midpoints" : [  ]
				}

			}
, 			{
				"patchline" : 				{
					"source" : [ "obj-52", 0 ],
					"destination" : [ "obj-51", 0 ],
					"hidden" : 0,
					"midpoints" : [  ]
				}

			}
, 			{
				"patchline" : 				{
					"source" : [ "obj-52", 1 ],
					"destination" : [ "obj-60", 0 ],
					"hidden" : 0,
					"midpoints" : [  ]
				}

			}
, 			{
				"patchline" : 				{
					"source" : [ "obj-58", 0 ],
					"destination" : [ "obj-52", 0 ],
					"hidden" : 0,
					"midpoints" : [  ]
				}

			}
, 			{
				"patchline" : 				{
					"source" : [ "obj-60", 0 ],
					"destination" : [ "obj-57", 0 ],
					"hidden" : 0,
					"midpoints" : [  ]
				}

			}
, 			{
				"patchline" : 				{
					"source" : [ "obj-59", 0 ],
					"destination" : [ "obj-58", 0 ],
					"hidden" : 0,
					"midpoints" : [  ]
				}

			}
, 			{
				"patchline" : 				{
					"source" : [ "obj-59", 1 ],
					"destination" : [ "obj-55", 0 ],
					"hidden" : 0,
					"midpoints" : [  ]
				}

			}
, 			{
				"patchline" : 				{
					"source" : [ "obj-54", 0 ],
					"destination" : [ "obj-57", 1 ],
					"hidden" : 0,
					"midpoints" : [  ]
				}

			}
, 			{
				"patchline" : 				{
					"source" : [ "obj-56", 0 ],
					"destination" : [ "obj-54", 0 ],
					"hidden" : 0,
					"midpoints" : [  ]
				}

			}
, 			{
				"patchline" : 				{
					"source" : [ "obj-55", 1 ],
					"destination" : [ "obj-54", 1 ],
					"hidden" : 0,
					"midpoints" : [  ]
				}

			}
, 			{
				"patchline" : 				{
					"source" : [ "obj-55", 0 ],
					"destination" : [ "obj-61", 0 ],
					"hidden" : 0,
					"midpoints" : [  ]
				}

			}
, 			{
				"patchline" : 				{
					"source" : [ "obj-61", 0 ],
					"destination" : [ "obj-56", 0 ],
					"hidden" : 0,
					"midpoints" : [  ]
				}

			}
, 			{
				"patchline" : 				{
					"source" : [ "obj-50", 0 ],
					"destination" : [ "obj-45", 0 ],
					"hidden" : 0,
					"midpoints" : [  ]
				}

			}
, 			{
				"patchline" : 				{
					"source" : [ "obj-44", 0 ],
					"destination" : [ "obj-50", 0 ],
					"hidden" : 0,
					"midpoints" : [  ]
				}

			}
, 			{
				"patchline" : 				{
					"source" : [ "obj-44", 1 ],
					"destination" : [ "obj-43", 1 ],
					"hidden" : 0,
					"midpoints" : [  ]
				}

			}
, 			{
				"patchline" : 				{
					"source" : [ "obj-45", 0 ],
					"destination" : [ "obj-43", 0 ],
					"hidden" : 0,
					"midpoints" : [  ]
				}

			}
, 			{
				"patchline" : 				{
					"source" : [ "obj-43", 0 ],
					"destination" : [ "obj-46", 1 ],
					"hidden" : 0,
					"midpoints" : [  ]
				}

			}
, 			{
				"patchline" : 				{
					"source" : [ "obj-48", 1 ],
					"destination" : [ "obj-44", 0 ],
					"hidden" : 0,
					"midpoints" : [  ]
				}

			}
, 			{
				"patchline" : 				{
					"source" : [ "obj-48", 0 ],
					"destination" : [ "obj-47", 0 ],
					"hidden" : 0,
					"midpoints" : [  ]
				}

			}
, 			{
				"patchline" : 				{
					"source" : [ "obj-49", 0 ],
					"destination" : [ "obj-46", 0 ],
					"hidden" : 0,
					"midpoints" : [  ]
				}

			}
, 			{
				"patchline" : 				{
					"source" : [ "obj-47", 0 ],
					"destination" : [ "obj-41", 0 ],
					"hidden" : 0,
					"midpoints" : [  ]
				}

			}
, 			{
				"patchline" : 				{
					"source" : [ "obj-41", 1 ],
					"destination" : [ "obj-49", 0 ],
					"hidden" : 0,
					"midpoints" : [  ]
				}

			}
, 			{
				"patchline" : 				{
					"source" : [ "obj-41", 0 ],
					"destination" : [ "obj-40", 0 ],
					"hidden" : 0,
					"midpoints" : [  ]
				}

			}
, 			{
				"patchline" : 				{
					"source" : [ "obj-46", 1 ],
					"destination" : [ "obj-40", 1 ],
					"hidden" : 0,
					"midpoints" : [  ]
				}

			}
, 			{
				"patchline" : 				{
					"source" : [ "obj-25", 1 ],
					"destination" : [ "obj-35", 1 ],
					"hidden" : 0,
					"midpoints" : [  ]
				}

			}
, 			{
				"patchline" : 				{
					"source" : [ "obj-34", 0 ],
					"destination" : [ "obj-35", 0 ],
					"hidden" : 0,
					"midpoints" : [  ]
				}

			}
, 			{
				"patchline" : 				{
					"source" : [ "obj-34", 1 ],
					"destination" : [ "obj-20", 0 ],
					"hidden" : 0,
					"midpoints" : [  ]
				}

			}
, 			{
				"patchline" : 				{
					"source" : [ "obj-22", 0 ],
					"destination" : [ "obj-34", 0 ],
					"hidden" : 0,
					"midpoints" : [  ]
				}

			}
, 			{
				"patchline" : 				{
					"source" : [ "obj-20", 0 ],
					"destination" : [ "obj-25", 0 ],
					"hidden" : 0,
					"midpoints" : [  ]
				}

			}
, 			{
				"patchline" : 				{
					"source" : [ "obj-19", 0 ],
					"destination" : [ "obj-22", 0 ],
					"hidden" : 0,
					"midpoints" : [  ]
				}

			}
, 			{
				"patchline" : 				{
					"source" : [ "obj-19", 1 ],
					"destination" : [ "obj-27", 0 ],
					"hidden" : 0,
					"midpoints" : [  ]
				}

			}
, 			{
				"patchline" : 				{
					"source" : [ "obj-2", 0 ],
					"destination" : [ "obj-19", 0 ],
					"hidden" : 0,
					"midpoints" : [  ]
				}

			}
, 			{
				"patchline" : 				{
					"source" : [ "obj-28", 0 ],
					"destination" : [ "obj-25", 1 ],
					"hidden" : 0,
					"midpoints" : [  ]
				}

			}
, 			{
				"patchline" : 				{
					"source" : [ "obj-26", 0 ],
					"destination" : [ "obj-28", 0 ],
					"hidden" : 0,
					"midpoints" : [  ]
				}

			}
, 			{
				"patchline" : 				{
					"source" : [ "obj-27", 1 ],
					"destination" : [ "obj-28", 1 ],
					"hidden" : 0,
					"midpoints" : [  ]
				}

			}
, 			{
				"patchline" : 				{
					"source" : [ "obj-27", 0 ],
					"destination" : [ "obj-14", 0 ],
					"hidden" : 0,
					"midpoints" : [  ]
				}

			}
, 			{
				"patchline" : 				{
					"source" : [ "obj-14", 0 ],
					"destination" : [ "obj-26", 0 ],
					"hidden" : 0,
					"midpoints" : [  ]
				}

			}
, 			{
				"patchline" : 				{
					"source" : [ "obj-35", 0 ],
					"destination" : [ "obj-1", 0 ],
					"hidden" : 0,
					"midpoints" : [  ]
				}

			}
, 			{
				"patchline" : 				{
					"source" : [ "obj-40", 0 ],
					"destination" : [ "obj-12", 0 ],
					"hidden" : 0,
					"midpoints" : [  ]
				}

			}
, 			{
				"patchline" : 				{
					"source" : [ "obj-51", 0 ],
					"destination" : [ "obj-15", 0 ],
					"hidden" : 0,
					"midpoints" : [  ]
				}

			}
, 			{
				"patchline" : 				{
					"source" : [ "obj-62", 0 ],
					"destination" : [ "obj-18", 0 ],
					"hidden" : 0,
					"midpoints" : [  ]
				}

			}
, 			{
				"patchline" : 				{
					"source" : [ "obj-73", 0 ],
					"destination" : [ "obj-23", 0 ],
					"hidden" : 0,
					"midpoints" : [  ]
				}

			}
, 			{
				"patchline" : 				{
					"source" : [ "obj-84", 0 ],
					"destination" : [ "obj-29", 0 ],
					"hidden" : 0,
					"midpoints" : [  ]
				}

			}
, 			{
				"patchline" : 				{
					"source" : [ "obj-95", 0 ],
					"destination" : [ "obj-31", 0 ],
					"hidden" : 0,
					"midpoints" : [  ]
				}

			}
, 			{
				"patchline" : 				{
					"source" : [ "obj-106", 0 ],
					"destination" : [ "obj-36", 0 ],
					"hidden" : 0,
					"midpoints" : [  ]
				}

			}
, 			{
				"patchline" : 				{
					"source" : [ "obj-117", 0 ],
					"destination" : [ "obj-42", 0 ],
					"hidden" : 0,
					"midpoints" : [  ]
				}

			}
, 			{
				"patchline" : 				{
					"source" : [ "obj-19", 0 ],
					"destination" : [ "obj-13", 0 ],
					"hidden" : 0,
					"midpoints" : [  ]
				}

			}
, 			{
				"patchline" : 				{
					"source" : [ "obj-48", 0 ],
					"destination" : [ "obj-13", 0 ],
					"hidden" : 0,
					"midpoints" : [  ]
				}

			}
, 			{
				"patchline" : 				{
					"source" : [ "obj-59", 0 ],
					"destination" : [ "obj-13", 0 ],
					"hidden" : 0,
					"midpoints" : [  ]
				}

			}
, 			{
				"patchline" : 				{
					"source" : [ "obj-5", 0 ],
					"destination" : [ "obj-13", 0 ],
					"hidden" : 0,
					"midpoints" : [  ]
				}

			}
, 			{
				"patchline" : 				{
					"source" : [ "obj-6", 0 ],
					"destination" : [ "obj-13", 0 ],
					"hidden" : 0,
					"midpoints" : [  ]
				}

			}
, 			{
				"patchline" : 				{
					"source" : [ "obj-7", 0 ],
					"destination" : [ "obj-13", 0 ],
					"hidden" : 0,
					"midpoints" : [  ]
				}

			}
, 			{
				"patchline" : 				{
					"source" : [ "obj-8", 0 ],
					"destination" : [ "obj-13", 0 ],
					"hidden" : 0,
					"midpoints" : [  ]
				}

			}
, 			{
				"patchline" : 				{
					"source" : [ "obj-9", 0 ],
					"destination" : [ "obj-13", 0 ],
					"hidden" : 0,
					"midpoints" : [  ]
				}

			}
, 			{
				"patchline" : 				{
					"source" : [ "obj-10", 0 ],
					"destination" : [ "obj-13", 0 ],
					"hidden" : 0,
					"midpoints" : [  ]
				}

			}
, 			{
				"patchline" : 				{
					"source" : [ "obj-11", 0 ],
					"destination" : [ "obj-13", 0 ],
					"hidden" : 0,
					"midpoints" : [  ]
				}

			}
, 			{
				"patchline" : 				{
					"source" : [ "obj-21", 0 ],
					"destination" : [ "obj-33", 0 ],
					"hidden" : 0,
					"midpoints" : [  ]
				}

			}
, 			{
				"patchline" : 				{
					"source" : [ "obj-16", 0 ],
					"destination" : [ "obj-30", 0 ],
					"hidden" : 0,
					"midpoints" : [  ]
				}

			}
 ]
	}

}
